<svg width="40" height="46" viewBox="0 0 40 46" fill="none" xmlns="http://www.w3.org/2000/svg">
<g clip-path="url(#clip0)">
<path d="M22.9911 39.9894L21.009 41.9839C20.1697 42.8285 18.8126 42.8285 17.9822 41.9839L0.62507 24.5273C-0.214216 23.6828 -0.214216 22.3171 0.62507 21.4816L17.9822 4.01597C18.8215 3.17144 20.1786 3.17144 21.009 4.01597L22.9911 6.0105C23.8394 6.86401 23.8215 8.25659 22.9554 9.09214L12.1965 19.4062H37.8572C39.0447 19.4062 40.0001 20.3675 40.0001 21.5625V24.4375C40.0001 25.6324 39.0447 26.5937 37.8572 26.5937H12.1965L22.9554 36.9078C23.8304 37.7433 23.8483 39.1359 22.9911 39.9894Z" fill="white"/>
</g>
<defs>
<clipPath id="clip0">
<rect width="40" height="46" fill="white"/>
</clipPath>
</defs>
</svg>
