<svg width="70" height="70" viewBox="0 0 70 70" fill="none" xmlns="http://www.w3.org/2000/svg">
<path d="M63.4375 13.125V53.5938H42.6562L41.5625 54.6875H28.4375L27.3438 53.5938H6.5625V13.125C6.5625 12.2548 6.9082 11.4202 7.52356 10.8048C8.13891 10.1895 8.97351 9.84375 9.84375 9.84375H60.1562C61.0265 9.84375 61.8611 10.1895 62.4764 10.8048C63.0918 11.4202 63.4375 12.2548 63.4375 13.125Z" fill="url(#paint0_linear)"/>
<path d="M63.4375 51.4062V53.5938H42.6562L41.5625 54.6875H28.4375L27.3438 53.5938H6.5625V51.4062H28.2516L29.3453 52.5H40.6547L41.7484 51.4062H63.4375Z" fill="#8288A1"/>
<path d="M68.9062 53.5938V57.9688L62.3438 60.1562H7.65625L1.09375 57.9688V53.5938H27.3438L28.4375 54.6875H41.5625L42.6562 53.5938H68.9062Z" fill="url(#paint1_linear)"/>
<path d="M68.9062 55.7812V57.9688L62.3438 60.1562H7.65625L1.09375 57.9688V55.7812L7.65625 57.9688H62.3438L68.9062 55.7812Z" fill="#8288A1"/>
<path d="M59.0625 14.2188H10.9375V49.2188H59.0625V14.2188Z" fill="url(#paint2_linear)"/>
<path d="M59.0625 47.0312H10.9375V49.2188H59.0625V47.0312Z" fill="#C7CDD8"/>
<path d="M59.0625 14.2188H10.9375V16.4062H59.0625V14.2188Z" fill="#DFE3EA"/>
<path d="M17.5 20.7812H23.3953C26.4731 20.7812 29.4248 22.0039 31.6011 24.1802C33.7774 26.3565 35 29.3082 35 32.3859V34.5734H29.1047C26.0269 34.5734 23.0752 33.3508 20.8989 31.1745C18.7226 28.9982 17.5 26.0465 17.5 22.9687V20.7812Z" fill="url(#paint3_linear)"/>
<path d="M40.8953 37.1875H35V35C34.9971 33.4742 35.2951 31.9628 35.877 30.5524C36.459 29.1419 37.3133 27.86 38.3912 26.7801C39.4691 25.7002 40.7493 24.8434 42.1587 24.2589C43.5681 23.6743 45.0789 23.3734 46.6047 23.3734H52.5V25.5609C52.5029 27.0867 52.2048 28.5981 51.6229 30.0086C51.041 31.4191 50.1867 32.7009 49.1088 33.7808C48.0309 34.8607 46.7506 35.7175 45.3413 36.3021C43.9319 36.8866 42.4211 37.1875 40.8953 37.1875Z" fill="url(#paint4_linear)"/>
<path d="M35 32.4078V34.5953H29.1047C27.5789 34.5953 26.0681 34.2944 24.6587 33.7099C23.2494 33.1253 21.9691 32.2686 20.8912 31.1886C19.8133 30.1087 18.959 28.8269 18.3771 27.4164C17.7952 26.0059 17.4971 24.4945 17.5 22.9687V20.7812C17.4971 22.307 17.7952 23.8184 18.3771 25.2289C18.959 26.6394 19.8133 27.9212 20.8912 29.0011C21.9691 30.0811 23.2494 30.9378 24.6587 31.5224C26.0681 32.1069 27.5789 32.4078 29.1047 32.4078H35Z" fill="#7ECE67"/>
<path d="M52.5 23.3953V25.5828C52.5 28.6605 51.2774 31.6122 49.1011 33.7885C46.9248 35.9648 43.9731 37.1875 40.8953 37.1875H35V35H40.8953C43.9731 35 46.9248 33.7773 49.1011 31.601C51.2774 29.4247 52.5 26.473 52.5 23.3953Z" fill="#7ECE67"/>
<path d="M46.4297 28.5578C46.4297 28.8478 46.3145 29.126 46.1093 29.3312C45.9042 29.5363 45.626 29.6515 45.3359 29.6515C41.4422 29.6515 37.4719 35.1203 36.0937 37.4828V49.2187H33.9062C33.9062 37.3843 34.4641 35.3937 32.3859 32.6156C30.8547 30.5375 27.8141 27.0593 24.6641 27.0593C24.374 27.0593 24.0958 26.9441 23.8907 26.739C23.6855 26.5339 23.5703 26.2557 23.5703 25.9656C23.5703 25.6755 23.6855 25.3973 23.8907 25.1922C24.0958 24.9871 24.374 24.8718 24.6641 24.8718C29.2141 24.8718 34.5078 30.5046 35.6016 34.2125C40.6656 27.1906 46.4297 26.25 46.4297 28.5578Z" fill="url(#paint5_linear)"/>
<path d="M36.0938 47.0312H33.9062V49.2188H36.0938V47.0312Z" fill="#4DA67F"/>
<defs>
<linearGradient id="paint0_linear" x1="35" y1="54.6875" x2="35" y2="9.84375" gradientUnits="userSpaceOnUse">
<stop stop-color="#949AAF"/>
<stop offset="1" stop-color="#C6CCDA"/>
</linearGradient>
<linearGradient id="paint1_linear" x1="1.09373" y1="414.531" x2="1.74628" y2="374.073" gradientUnits="userSpaceOnUse">
<stop stop-color="#949AAF"/>
<stop offset="1" stop-color="#C6CCDA"/>
</linearGradient>
<linearGradient id="paint2_linear" x1="35" y1="49.2188" x2="35" y2="14.2188" gradientUnits="userSpaceOnUse">
<stop stop-color="#D4D8E1"/>
<stop offset="1" stop-color="#F3F4F5"/>
</linearGradient>
<linearGradient id="paint3_linear" x1="26.25" y1="34.5953" x2="26.25" y2="20.7813" gradientUnits="userSpaceOnUse">
<stop stop-color="#8CDD79"/>
<stop offset="1" stop-color="#D4E6B6"/>
</linearGradient>
<linearGradient id="paint4_linear" x1="735.002" y1="493.052" x2="735.002" y2="318.58" gradientUnits="userSpaceOnUse">
<stop stop-color="#8CDD79"/>
<stop offset="1" stop-color="#D4E6B6"/>
</linearGradient>
<linearGradient id="paint5_linear" x1="35" y1="49.2187" x2="35" y2="24.8718" gradientUnits="userSpaceOnUse">
<stop stop-color="#6AB891"/>
<stop offset="1" stop-color="#85CBA9"/>
</linearGradient>
</defs>
</svg>
