<svg width="69" height="72" viewBox="0 0 69 72" fill="none" xmlns="http://www.w3.org/2000/svg">
<path d="M14.375 1.125H21.5678C24.9048 1.125 28.1051 2.52243 30.4648 5.00986C32.8244 7.4973 34.15 10.871 34.15 14.3887V16.2787H26.9571C23.6201 16.2787 20.4198 14.8813 18.0602 12.3939C15.7006 9.90645 14.375 6.53276 14.375 3.015V1.125Z" fill="url(#paint0_linear)"/>
<path d="M41.3427 19.125L34.1498 19.125V17.235C34.1498 13.7172 35.4754 10.3435 37.835 7.85611C39.0034 6.62446 40.3904 5.64746 41.917 4.98089C43.4435 4.31433 45.0797 3.97125 46.732 3.97125L53.9248 3.97125V5.86125C53.9248 9.37901 52.5992 12.7527 50.2396 15.2401C47.88 17.7276 44.6797 19.125 41.3427 19.125Z" fill="url(#paint1_linear)"/>
<path d="M34.15 16.2788H26.9571C23.6201 16.2788 20.4198 14.8814 18.0602 12.3939C15.7006 9.90651 14.375 6.53282 14.375 3.01506C14.375 0.855058 14.375 1.12506 14.4497 1.12506C14.7961 4.36599 16.263 7.35877 18.5703 9.53159C20.8775 11.7044 23.8633 12.905 26.9571 12.9038H34.0646C34.1636 14.0256 34.1921 15.1531 34.15 16.2788Z" fill="#7ECE67"/>
<path d="M53.925 5.86138C53.925 9.37914 52.5994 12.7528 50.2398 15.2403C49.0715 16.4719 47.6844 17.4489 46.1579 18.1155C44.6313 18.7821 42.9952 19.1251 41.3429 19.1251H34.1501C34.1159 17.9995 34.1409 16.8728 34.2248 15.7501H41.3429C44.4356 15.751 47.42 14.5501 49.7255 12.377C52.031 10.204 53.4957 7.21135 53.8397 3.97138C53.957 3.97138 53.925 3.69013 53.925 5.86138Z" fill="#7ECE67"/>
<path d="M45.889 8.52765C41.1294 8.52765 36.9887 13.2076 34.8436 16.1776C33.6164 11.9251 27.6935 5.6814 22.5176 5.6814C22.2346 5.6814 21.9631 5.79992 21.763 6.0109C21.5629 6.22188 21.4504 6.50803 21.4504 6.8064C21.4504 7.10477 21.5629 7.39091 21.763 7.60189C21.9631 7.81287 22.2346 7.9314 22.5176 7.9314C26.2314 7.9314 29.7532 11.8914 31.5247 14.2426C33.6164 17.1001 33.0828 19.5639 33.0828 28.1251C33.0828 28.4235 33.1952 28.7097 33.3954 28.9206C33.5955 29.1316 33.8669 29.2502 34.15 29.2502C34.433 29.2502 34.7044 29.1316 34.9046 28.9206C35.1047 28.7097 35.2172 28.4235 35.2172 28.1251V19.4514C36.0709 18.0451 40.7452 10.7776 45.889 10.7776C46.1721 10.7776 46.4435 10.6591 46.6436 10.4481C46.8438 10.2372 46.9562 9.95101 46.9562 9.65265C46.9562 9.35428 46.8438 9.06813 46.6436 8.85715C46.4435 8.64617 46.1721 8.52765 45.889 8.52765Z" fill="url(#paint2_linear)"/>
<path d="M35.2171 25.875H33.0828V29.25H35.2171V25.875Z" fill="#4DA67F"/>
<path d="M34.1498 28.125V70.875L8.53735 65.25V29.25L34.1498 28.125Z" fill="url(#paint3_linear)"/>
<path d="M34.1498 28.125V33.165L26.8076 48.6338L8.53735 45.2813V29.25L34.1498 28.125Z" fill="#CBA07A"/>
<path d="M8.53745 29.25L1.06714 41.625L25.6124 46.125L34.1499 28.125L8.53745 29.25Z" fill="url(#paint4_linear)"/>
<path d="M59.7624 29.25V65.25L34.1499 70.875V28.125L59.7624 29.25Z" fill="url(#paint5_linear)"/>
<path d="M34.1498 67.2524V70.8749L8.53735 65.2499V61.6274L34.1498 67.2524Z" fill="#CBA07A"/>
<path d="M59.7624 61.6274V65.2499L34.1499 70.8749V67.2524L59.7624 61.6274Z" fill="#CBA07A"/>
<path d="M59.7624 29.25V45.2813L41.4922 48.6338L34.1499 33.165V28.125L59.7624 29.25Z" fill="#CBA07A"/>
<path d="M59.7624 29.25L67.2327 41.625L42.6874 46.125L34.1499 28.125L59.7624 29.25Z" fill="url(#paint6_linear)"/>
<defs>
<linearGradient id="paint0_linear" x1="24.2678" y1="16.2787" x2="24.2678" y2="1.125" gradientUnits="userSpaceOnUse">
<stop stop-color="#8CDD79"/>
<stop offset="1" stop-color="#D4E6B6"/>
</linearGradient>
<linearGradient id="paint1_linear" x1="850.065" y1="261.585" x2="850.065" y2="57.464" gradientUnits="userSpaceOnUse">
<stop stop-color="#8CDD79"/>
<stop offset="1" stop-color="#D4E6B6"/>
</linearGradient>
<linearGradient id="paint2_linear" x1="34.15" y1="29.2389" x2="34.15" y2="5.6814" gradientUnits="userSpaceOnUse">
<stop stop-color="#6AB891"/>
<stop offset="1" stop-color="#85CBA9"/>
</linearGradient>
<linearGradient id="paint3_linear" x1="7.73696" y1="64.4062" x2="39.7549" y2="34.0337" gradientUnits="userSpaceOnUse">
<stop stop-color="#DEB895"/>
<stop offset="1" stop-color="#F2D3B8"/>
</linearGradient>
<linearGradient id="paint4_linear" x1="546.933" y1="766.125" x2="546.933" y2="478.125" gradientUnits="userSpaceOnUse">
<stop stop-color="#DEB895"/>
<stop offset="1" stop-color="#F2D3B8"/>
</linearGradient>
<linearGradient id="paint5_linear" x1="732.09" y1="2518.31" x2="1881.78" y2="1829.51" gradientUnits="userSpaceOnUse">
<stop stop-color="#DEB895"/>
<stop offset="1" stop-color="#F2D3B8"/>
</linearGradient>
<linearGradient id="paint6_linear" x1="1605.58" y1="766.125" x2="1605.58" y2="478.125" gradientUnits="userSpaceOnUse">
<stop stop-color="#DEB895"/>
<stop offset="1" stop-color="#F2D3B8"/>
</linearGradient>
</defs>
</svg>
