<svg width="107" height="41" viewBox="0 0 107 41" fill="none" xmlns="http://www.w3.org/2000/svg">
<path d="M100.922 23.9669L97.4264 13.125C97.2845 12.665 96.9978 12.2628 96.6086 11.9778C96.2194 11.6927 95.7485 11.54 95.2655 11.5422H86.9396V3.94497C86.9396 3.86101 86.9061 3.7805 86.8465 3.72113C86.7869 3.66177 86.7061 3.62842 86.6218 3.62842H60.5636C60.4794 3.62842 60.3985 3.66177 60.3389 3.72113C60.2793 3.7805 60.2458 3.86101 60.2458 3.94497V33.7008C60.2458 33.7848 60.2793 33.8653 60.3389 33.9246C60.3985 33.984 60.4794 34.0174 60.5636 34.0174H64.7107C64.7759 35.0626 65.2386 36.0438 66.0047 36.761C66.7708 37.4782 67.7826 37.8774 68.8339 37.8774C69.8852 37.8774 70.897 37.4782 71.6631 36.761C72.4292 36.0438 72.892 35.0626 72.9572 34.0174C90.9087 34.0174 88.6969 34.0174 88.8781 34.0174C88.9686 35.0424 89.4413 35.9965 90.2031 36.6915C90.9648 37.3865 91.9604 37.772 92.9933 37.772C94.0263 37.772 95.0218 37.3865 95.7836 36.6915C96.5454 35.9965 97.0181 35.0424 97.1086 34.0174H100.604C100.689 34.0174 100.769 33.984 100.829 33.9246C100.889 33.8653 100.922 33.7848 100.922 33.7008C100.922 23.4667 100.922 24.0428 100.922 23.9669V23.9669ZM77.0883 4.26152V7.85438L76.2875 7.45553C76.081 7.35423 76.0206 7.45553 74.8702 8.01582C73.669 7.41754 73.6499 7.35739 73.4561 7.45553L72.3216 8.01582L71.1966 7.45553C71.0091 7.36056 70.9424 7.43653 70.1035 7.85438V4.26152H77.0883ZM60.8814 4.26152H69.4615V8.37669C69.4615 8.46064 69.495 8.54116 69.5546 8.60053C69.6142 8.65989 69.695 8.69324 69.7793 8.69324C69.8842 8.69324 69.8397 8.69324 71.0505 8.09813C72.2549 8.69641 72.2739 8.75655 72.4678 8.65842L73.5927 8.10446L74.7177 8.66475C74.9242 8.76605 74.9846 8.66475 76.1318 8.10446C77.3616 8.7154 77.3743 8.77555 77.5745 8.65209C77.7747 8.52864 77.7239 8.67108 77.7239 4.26152H86.304V27.0532H60.8814V4.26152ZM60.8814 27.6863H86.304V33.3843H72.9572C72.8666 32.3592 72.3939 31.4052 71.6321 30.7102C70.8704 30.0152 69.8749 29.6297 68.8419 29.6297C67.8089 29.6297 66.8134 30.0152 66.0516 30.7102C65.2898 31.4052 64.8171 32.3592 64.7266 33.3843H60.8814V27.6863ZM68.826 37.1829C68.1346 37.1829 67.4588 36.9787 66.8839 36.596C66.3091 36.2134 65.861 35.6696 65.5965 35.0333C65.3319 34.3971 65.2627 33.6969 65.3975 33.0215C65.5324 32.346 65.8653 31.7256 66.3542 31.2386C66.8431 30.7516 67.4659 30.42 68.144 30.2856C68.8221 30.1513 69.525 30.2203 70.1637 30.4838C70.8024 30.7474 71.3484 31.1937 71.7325 31.7663C72.1166 32.3389 72.3216 33.0121 72.3216 33.7008C72.3216 34.6243 71.9533 35.51 71.2977 36.163C70.6422 36.816 69.7531 37.1829 68.826 37.1829V37.1829ZM92.9775 37.1829C92.2861 37.1829 91.6102 36.9787 91.0354 36.596C90.4605 36.2134 90.0125 35.6696 89.7479 35.0333C89.4834 34.3971 89.4141 33.6969 89.549 33.0215C89.6839 32.346 90.0168 31.7256 90.5057 31.2386C90.9946 30.7516 91.6174 30.42 92.2955 30.2856C92.9736 30.1513 93.6764 30.2203 94.3152 30.4838C94.9539 30.7474 95.4998 31.1937 95.8839 31.7663C96.268 32.3389 96.4731 33.0121 96.4731 33.7008C96.4731 34.6243 96.1048 35.51 95.4492 36.163C94.7937 36.816 93.9045 37.1829 92.9775 37.1829V37.1829ZM97.1086 33.3843C97.0181 32.3592 96.5454 31.4052 95.7836 30.7102C95.0218 30.0152 94.0263 29.6297 92.9933 29.6297C91.9604 29.6297 90.9648 30.0152 90.2031 30.7102C89.4413 31.4052 88.9686 32.3592 88.8781 33.3843C88.7827 33.3843 89.2435 33.3843 86.9714 33.3843V12.1753H95.3068C95.6528 12.1729 95.9904 12.2811 96.27 12.4839C96.5497 12.6867 96.7568 12.9735 96.8608 13.3022L97.0769 14.0746H90.1174C90.0331 14.0746 89.9523 14.108 89.8927 14.1673C89.8331 14.2267 89.7996 14.3072 89.7996 14.3912V23.8877C89.7996 23.9717 89.8331 24.0522 89.8927 24.1115C89.9523 24.1709 90.0331 24.2043 90.1174 24.2043H100.286V26.7367H99.3331C99.0803 26.7367 98.8378 26.8367 98.659 27.0148C98.4802 27.1929 98.3798 27.4345 98.3798 27.6863V30.2187C98.3798 30.4706 98.4802 30.7122 98.659 30.8902C98.8378 31.0683 99.0803 31.1684 99.3331 31.1684H100.286V33.3843H97.1086ZM99.8702 23.5712H90.4352V14.7077H97.0419L99.8702 23.5712ZM100.286 30.5353H99.3331C99.2488 30.5353 99.168 30.5019 99.1084 30.4426C99.0488 30.3832 99.0153 30.3027 99.0153 30.2187V27.6863C99.0153 27.6024 99.0488 27.5219 99.1084 27.4625C99.168 27.4031 99.2488 27.3698 99.3331 27.3698H100.286V30.5353Z" fill="#125C34" stroke="#125C34" stroke-width="0.5"/>
<path d="M91.7063 26.1035H90.1174C90.0331 26.1035 89.9523 26.1369 89.8927 26.1962C89.8331 26.2556 89.7996 26.3361 89.7996 26.4201C89.7996 26.504 89.8331 26.5845 89.8927 26.6439C89.9523 26.7033 90.0331 26.7366 90.1174 26.7366H91.7063C91.7906 26.7366 91.8714 26.7033 91.931 26.6439C91.9906 26.5845 92.0241 26.504 92.0241 26.4201C92.0241 26.3361 91.9906 26.2556 91.931 26.1962C91.8714 26.1369 91.7906 26.1035 91.7063 26.1035Z" fill="#125C34" stroke="#125C34" stroke-width="1.4"/>
<path d="M92.9774 31.4849C92.5375 31.4849 92.1074 31.6148 91.7416 31.8583C91.3758 32.1018 91.0907 32.4479 90.9223 32.8528C90.7539 33.2576 90.7099 33.7032 90.7957 34.133C90.8815 34.5629 91.0934 34.9577 91.4045 35.2676C91.7156 35.5775 92.112 35.7885 92.5435 35.874C92.975 35.9595 93.4222 35.9156 93.8287 35.7479C94.2352 35.5802 94.5826 35.2962 94.827 34.9318C95.0715 34.5674 95.2019 34.139 95.2019 33.7007C95.2019 33.4097 95.1444 33.1216 95.0326 32.8528C94.9208 32.5839 94.7569 32.3396 94.5504 32.1339C94.3438 31.9281 94.0986 31.7649 93.8287 31.6535C93.5588 31.5422 93.2696 31.4849 92.9774 31.4849V31.4849ZM92.9774 35.2835C92.6632 35.2835 92.356 35.1907 92.0947 35.0167C91.8334 34.8428 91.6297 34.5956 91.5095 34.3064C91.3892 34.0172 91.3577 33.699 91.4191 33.3919C91.4804 33.0849 91.6317 32.8029 91.8539 32.5815C92.0761 32.3602 92.3592 32.2095 92.6675 32.1484C92.9757 32.0873 93.2952 32.1187 93.5855 32.2384C93.8758 32.3582 94.124 32.5611 94.2986 32.8214C94.4732 33.0817 94.5664 33.3877 94.5664 33.7007C94.5664 34.1205 94.3989 34.5231 94.101 34.8199C93.803 35.1167 93.3988 35.2835 92.9774 35.2835V35.2835Z" fill="#125C34"/>
<path d="M68.826 31.4849C68.386 31.4849 67.9559 31.6148 67.5901 31.8583C67.2243 32.1018 66.9392 32.4479 66.7708 32.8528C66.6025 33.2576 66.5584 33.7032 66.6442 34.133C66.7301 34.5629 66.9419 34.9577 67.253 35.2676C67.5641 35.5775 67.9605 35.7885 68.392 35.874C68.8235 35.9595 69.2708 35.9156 69.6773 35.7479C70.0837 35.5802 70.4311 35.2962 70.6756 34.9318C70.92 34.5674 71.0505 34.139 71.0505 33.7007C71.0505 33.4097 70.9929 33.1216 70.8811 32.8528C70.7693 32.5839 70.6055 32.3396 70.3989 32.1339C70.1924 31.9281 69.9471 31.7649 69.6773 31.6535C69.4074 31.5422 69.1181 31.4849 68.826 31.4849V31.4849ZM68.826 35.2835C68.5117 35.2835 68.2045 35.1907 67.9432 35.0167C67.6819 34.8428 67.4783 34.5956 67.358 34.3064C67.2378 34.0172 67.2063 33.699 67.2676 33.3919C67.3289 33.0849 67.4802 32.8029 67.7025 32.5815C67.9247 32.3602 68.2078 32.2095 68.516 32.1484C68.8242 32.0873 69.1437 32.1187 69.434 32.2384C69.7244 32.3582 69.9725 32.5611 70.1471 32.8214C70.3217 33.0817 70.4149 33.3877 70.4149 33.7007C70.4149 34.1205 70.2475 34.5231 69.9495 34.8199C69.6515 35.1167 69.2474 35.2835 68.826 35.2835V35.2835Z" fill="#125C34"/>
<path d="M82.5809 19.1163C82.5971 19.073 82.607 19.025 82.607 18.9752C82.607 18.7543 82.4296 18.5757 82.2116 18.5757C82.0441 18.5757 81.901 18.6811 81.8436 18.8294C81.5799 19.6213 80.839 20.1924 79.9684 20.1924C79.2821 20.1924 78.6769 19.8368 78.3222 19.2997C78.4735 19.291 78.6126 19.1948 78.67 19.0426C78.7477 18.8358 78.645 18.6044 78.4404 18.5271L77.7007 18.243C77.5228 18.1745 77.3252 18.2448 77.2266 18.4023C77.2127 18.4246 77.2005 18.4486 77.1912 18.475L76.9101 19.2224C76.8319 19.4286 76.9351 19.6594 77.1391 19.7379C77.302 19.8 77.4799 19.7473 77.5849 19.6184C78.0672 20.4402 78.9534 20.9926 79.9684 20.9926C81.1776 20.9914 82.2041 20.2082 82.5809 19.1163Z" fill="#125C34"/>
<path d="M79.9104 15.8002C80.5962 15.8002 81.2007 16.1552 81.5561 16.6929C81.4048 16.7017 81.2651 16.7972 81.2089 16.95C81.1306 17.1562 81.2326 17.3876 81.4372 17.4649L82.1774 17.7496C82.2238 17.7672 82.2714 17.7754 82.3183 17.7754C82.4771 17.7748 82.6267 17.6776 82.687 17.5176L82.9681 16.7702C83.0458 16.5634 82.9432 16.3326 82.7386 16.2541C82.5763 16.1915 82.3983 16.2454 82.294 16.3742C81.8111 15.5518 80.9248 15 79.9105 15C78.7007 15 77.6741 15.7844 77.2974 16.8762C77.2811 16.9201 77.2713 16.9676 77.2713 17.0174C77.2713 17.2382 77.4486 17.4169 77.6672 17.4163C77.8341 17.4169 77.9773 17.3114 78.0347 17.1632C78.2984 16.3713 79.0392 15.8002 79.9104 15.8002Z" fill="#125C34"/>
<path d="M75.4424 18.9323C75.0999 19.6311 74.3869 20.1126 73.5643 20.1126C72.4091 20.1126 71.4695 19.1625 71.4695 17.9951C71.4695 16.8282 72.4091 15.8781 73.5643 15.8781C74.3869 15.8781 75.0999 16.3596 75.4424 17.0585L76.1519 16.7023C75.6801 15.7405 74.6987 15.0786 73.5643 15.0786C71.9703 15.0786 70.6776 16.3842 70.6776 17.9951C70.6776 19.6065 71.9703 20.9122 73.5643 20.9122C74.6987 20.9122 75.6801 20.2503 76.1519 19.2885L75.4424 18.9323Z" fill="#125C34"/>
<path d="M69.5792 18.1134H69.7693C69.7711 18.073 69.7722 18.032 69.7722 17.991C69.7722 16.3801 68.4796 15.0745 66.8867 15.0745C65.2921 15.0745 64 16.3801 64 17.991C64 19.6024 65.292 20.908 66.8867 20.908C68.1608 20.908 69.2436 20.0721 69.625 18.9129H68.7717C68.4321 19.62 67.7145 20.1079 66.8867 20.1079C65.7715 20.1079 64.8573 19.224 64.7947 18.1134H68.9775H69.5792V18.1134ZM66.8867 15.874C67.8072 15.874 68.5903 16.4779 68.8703 17.3144H64.9013C65.1819 16.4779 65.965 15.874 66.8867 15.874Z" fill="#125C34"/>
<path d="M45.922 23.9669L42.4264 13.125C42.2845 12.665 41.9978 12.2628 41.6086 11.9778C41.2194 11.6927 40.7485 11.54 40.2655 11.5422H31.9396V3.94497C31.9396 3.86101 31.9061 3.7805 31.8465 3.72113C31.7869 3.66177 31.7061 3.62842 31.6218 3.62842H5.56363C5.47935 3.62842 5.39852 3.66177 5.33893 3.72113C5.27933 3.7805 5.24585 3.86101 5.24585 3.94497V33.7008C5.24585 33.7848 5.27933 33.8653 5.33893 33.9246C5.39852 33.984 5.47935 34.0174 5.56363 34.0174H9.7107C9.77586 35.0626 10.2386 36.0438 11.0047 36.761C11.7708 37.4782 12.7826 37.8774 13.8339 37.8774C14.8852 37.8774 15.897 37.4782 16.6631 36.761C17.4292 36.0438 17.892 35.0626 17.9572 34.0174C35.9087 34.0174 33.6969 34.0174 33.8781 34.0174C33.9686 35.0424 34.4413 35.9965 35.2031 36.6915C35.9648 37.3865 36.9604 37.772 37.9933 37.772C39.0263 37.772 40.0218 37.3865 40.7836 36.6915C41.5454 35.9965 42.0181 35.0424 42.1086 34.0174H45.6042C45.6885 34.0174 45.7693 33.984 45.8289 33.9246C45.8885 33.8653 45.922 33.7848 45.922 33.7008C45.922 23.4667 45.922 24.0428 45.922 23.9669V23.9669ZM22.0883 4.26152V7.85438L21.2875 7.45553C21.081 7.35423 21.0206 7.45553 19.8702 8.01582C18.669 7.41754 18.6499 7.35739 18.4561 7.45553L17.3216 8.01582L16.1966 7.45553C16.0091 7.36056 15.9424 7.43653 15.1035 7.85438V4.26152H22.0883ZM5.88141 4.26152H14.4615V8.37669C14.4615 8.46064 14.495 8.54116 14.5546 8.60053C14.6142 8.65989 14.695 8.69324 14.7793 8.69324C14.8842 8.69324 14.8397 8.69324 16.0505 8.09813C17.2549 8.69641 17.2739 8.75655 17.4678 8.65842L18.5927 8.10446L19.7177 8.66475C19.9242 8.76605 19.9846 8.66475 21.1318 8.10446C22.3616 8.7154 22.3743 8.77555 22.5745 8.65209C22.7747 8.52864 22.7239 8.67108 22.7239 4.26152H31.304V27.0532H5.88141V4.26152ZM5.88141 27.6863H31.304V33.3843H17.9572C17.8666 32.3592 17.3939 31.4052 16.6321 30.7102C15.8704 30.0152 14.8749 29.6297 13.8419 29.6297C12.8089 29.6297 11.8134 30.0152 11.0516 30.7102C10.2898 31.4052 9.8171 32.3592 9.72658 33.3843H5.88141V27.6863ZM13.826 37.1829C13.1346 37.1829 12.4588 36.9787 11.8839 36.596C11.3091 36.2134 10.861 35.6696 10.5965 35.0333C10.3319 34.3971 10.2627 33.6969 10.3975 33.0215C10.5324 32.346 10.8653 31.7256 11.3542 31.2386C11.8431 30.7516 12.4659 30.42 13.144 30.2856C13.8221 30.1513 14.525 30.2203 15.1637 30.4838C15.8024 30.7474 16.3484 31.1937 16.7325 31.7663C17.1166 32.3389 17.3216 33.0121 17.3216 33.7008C17.3216 34.6243 16.9533 35.51 16.2977 36.163C15.6422 36.816 14.7531 37.1829 13.826 37.1829V37.1829ZM37.9775 37.1829C37.2861 37.1829 36.6102 36.9787 36.0354 36.596C35.4605 36.2134 35.0125 35.6696 34.7479 35.0333C34.4834 34.3971 34.4141 33.6969 34.549 33.0215C34.6839 32.346 35.0168 31.7256 35.5057 31.2386C35.9946 30.7516 36.6174 30.42 37.2955 30.2856C37.9736 30.1513 38.6764 30.2203 39.3152 30.4838C39.9539 30.7474 40.4998 31.1937 40.8839 31.7663C41.268 32.3389 41.4731 33.0121 41.4731 33.7008C41.4731 34.6243 41.1048 35.51 40.4492 36.163C39.7937 36.816 38.9045 37.1829 37.9775 37.1829V37.1829ZM42.1086 33.3843C42.0181 32.3592 41.5454 31.4052 40.7836 30.7102C40.0218 30.0152 39.0263 29.6297 37.9933 29.6297C36.9604 29.6297 35.9648 30.0152 35.2031 30.7102C34.4413 31.4052 33.9686 32.3592 33.8781 33.3843C33.7827 33.3843 34.2435 33.3843 31.9714 33.3843V12.1753H40.3068C40.6528 12.1729 40.9904 12.2811 41.27 12.4839C41.5497 12.6867 41.7568 12.9735 41.8608 13.3022L42.0769 14.0746H35.1174C35.0331 14.0746 34.9523 14.108 34.8927 14.1673C34.8331 14.2267 34.7996 14.3072 34.7996 14.3912V23.8877C34.7996 23.9717 34.8331 24.0522 34.8927 24.1115C34.9523 24.1709 35.0331 24.2043 35.1174 24.2043H45.2865V26.7367H44.3331C44.0803 26.7367 43.8378 26.8367 43.659 27.0148C43.4802 27.1929 43.3798 27.4345 43.3798 27.6863V30.2187C43.3798 30.4706 43.4802 30.7122 43.659 30.8902C43.8378 31.0683 44.0803 31.1684 44.3331 31.1684H45.2865V33.3843H42.1086ZM44.8702 23.5712H35.4352V14.7077H42.0419L44.8702 23.5712ZM45.2865 30.5353H44.3331C44.2488 30.5353 44.168 30.5019 44.1084 30.4426C44.0488 30.3832 44.0153 30.3027 44.0153 30.2187V27.6863C44.0153 27.6024 44.0488 27.5219 44.1084 27.4625C44.168 27.4031 44.2488 27.3698 44.3331 27.3698H45.2865V30.5353Z" fill="white" stroke="white" stroke-width="0.5"/>
<path d="M36.7063 26.1035H35.1174C35.0331 26.1035 34.9523 26.1369 34.8927 26.1962C34.8331 26.2556 34.7996 26.3361 34.7996 26.4201C34.7996 26.504 34.8331 26.5845 34.8927 26.6439C34.9523 26.7033 35.0331 26.7366 35.1174 26.7366H36.7063C36.7906 26.7366 36.8714 26.7033 36.931 26.6439C36.9906 26.5845 37.0241 26.504 37.0241 26.4201C37.0241 26.3361 36.9906 26.2556 36.931 26.1962C36.8714 26.1369 36.7906 26.1035 36.7063 26.1035Z" fill="white" stroke="white" stroke-width="1.4"/>
<path d="M37.9774 31.4849C37.5375 31.4849 37.1074 31.6148 36.7416 31.8583C36.3758 32.1018 36.0907 32.4479 35.9223 32.8528C35.7539 33.2576 35.7099 33.7032 35.7957 34.133C35.8815 34.5629 36.0934 34.9577 36.4045 35.2676C36.7156 35.5775 37.112 35.7885 37.5435 35.874C37.975 35.9595 38.4222 35.9156 38.8287 35.7479C39.2352 35.5802 39.5826 35.2962 39.827 34.9318C40.0715 34.5674 40.2019 34.139 40.2019 33.7007C40.2019 33.4097 40.1444 33.1216 40.0326 32.8528C39.9208 32.5839 39.7569 32.3396 39.5504 32.1339C39.3438 31.9281 39.0986 31.7649 38.8287 31.6535C38.5588 31.5422 38.2696 31.4849 37.9774 31.4849V31.4849ZM37.9774 35.2835C37.6632 35.2835 37.356 35.1907 37.0947 35.0167C36.8334 34.8428 36.6297 34.5956 36.5095 34.3064C36.3892 34.0172 36.3577 33.699 36.4191 33.3919C36.4804 33.0849 36.6317 32.8029 36.8539 32.5815C37.0761 32.3602 37.3592 32.2095 37.6675 32.1484C37.9757 32.0873 38.2952 32.1187 38.5855 32.2384C38.8758 32.3582 39.124 32.5611 39.2986 32.8214C39.4732 33.0817 39.5664 33.3877 39.5664 33.7007C39.5664 34.1205 39.3989 34.5231 39.101 34.8199C38.803 35.1167 38.3988 35.2835 37.9774 35.2835V35.2835Z" fill="white"/>
<path d="M13.826 31.4849C13.386 31.4849 12.9559 31.6148 12.5901 31.8583C12.2243 32.1018 11.9392 32.4479 11.7708 32.8528C11.6025 33.2576 11.5584 33.7032 11.6442 34.133C11.7301 34.5629 11.9419 34.9577 12.253 35.2676C12.5641 35.5775 12.9605 35.7885 13.392 35.874C13.8235 35.9595 14.2708 35.9156 14.6773 35.7479C15.0837 35.5802 15.4311 35.2962 15.6756 34.9318C15.92 34.5674 16.0505 34.139 16.0505 33.7007C16.0505 33.4097 15.9929 33.1216 15.8811 32.8528C15.7693 32.5839 15.6055 32.3396 15.3989 32.1339C15.1924 31.9281 14.9471 31.7649 14.6773 31.6535C14.4074 31.5422 14.1181 31.4849 13.826 31.4849V31.4849ZM13.826 35.2835C13.5117 35.2835 13.2045 35.1907 12.9432 35.0167C12.6819 34.8428 12.4783 34.5956 12.358 34.3064C12.2378 34.0172 12.2063 33.699 12.2676 33.3919C12.3289 33.0849 12.4802 32.8029 12.7025 32.5815C12.9247 32.3602 13.2078 32.2095 13.516 32.1484C13.8242 32.0873 14.1437 32.1187 14.434 32.2384C14.7244 32.3582 14.9725 32.5611 15.1471 32.8214C15.3217 33.0817 15.4149 33.3877 15.4149 33.7007C15.4149 34.1205 15.2475 34.5231 14.9495 34.8199C14.6515 35.1167 14.2474 35.2835 13.826 35.2835V35.2835Z" fill="white"/>
<path d="M27.5809 19.1163C27.5971 19.073 27.607 19.025 27.607 18.9752C27.607 18.7543 27.4296 18.5757 27.2116 18.5757C27.0441 18.5757 26.901 18.6811 26.8436 18.8294C26.5799 19.6213 25.839 20.1924 24.9684 20.1924C24.2821 20.1924 23.6769 19.8368 23.3222 19.2997C23.4735 19.291 23.6126 19.1948 23.67 19.0426C23.7477 18.8358 23.645 18.6044 23.4404 18.5271L22.7007 18.243C22.5228 18.1745 22.3252 18.2448 22.2266 18.4023C22.2127 18.4246 22.2005 18.4486 22.1912 18.475L21.9101 19.2224C21.8319 19.4286 21.9351 19.6594 22.1391 19.7379C22.302 19.8 22.4799 19.7473 22.5849 19.6184C23.0672 20.4402 23.9534 20.9926 24.9684 20.9926C26.1776 20.9914 27.2041 20.2082 27.5809 19.1163Z" fill="white"/>
<path d="M24.9104 15.8002C25.5962 15.8002 26.2008 16.1552 26.5561 16.6929C26.4048 16.7017 26.2651 16.7972 26.2089 16.95C26.1307 17.1562 26.2326 17.3876 26.4373 17.4649L27.1774 17.7496C27.2238 17.7672 27.2714 17.7754 27.3183 17.7754C27.4771 17.7748 27.6267 17.6776 27.687 17.5176L27.9681 16.7702C28.0458 16.5634 27.9432 16.3326 27.7386 16.2541C27.5763 16.1915 27.3983 16.2454 27.294 16.3742C26.8111 15.5518 25.9248 15 24.9105 15C23.7007 15 22.6741 15.7844 22.2974 16.8762C22.2811 16.9201 22.2713 16.9676 22.2713 17.0174C22.2713 17.2382 22.4486 17.4169 22.6672 17.4163C22.8342 17.4169 22.9773 17.3114 23.0347 17.1632C23.2984 16.3713 24.0392 15.8002 24.9104 15.8002Z" fill="white"/>
<path d="M20.4424 18.9323C20.0999 19.6311 19.3869 20.1126 18.5643 20.1126C17.4091 20.1126 16.4695 19.1625 16.4695 17.9951C16.4695 16.8282 17.4091 15.8781 18.5643 15.8781C19.3869 15.8781 20.0999 16.3596 20.4424 17.0585L21.1519 16.7023C20.6801 15.7405 19.6987 15.0786 18.5643 15.0786C16.9703 15.0786 15.6776 16.3842 15.6776 17.9951C15.6776 19.6065 16.9703 20.9122 18.5643 20.9122C19.6987 20.9122 20.6801 20.2503 21.1519 19.2885L20.4424 18.9323Z" fill="white"/>
<path d="M14.5792 18.1134H14.7693C14.7711 18.073 14.7722 18.032 14.7722 17.991C14.7722 16.3801 13.4796 15.0745 11.8867 15.0745C10.2921 15.0745 9 16.3801 9 17.991C9 19.6024 10.292 20.908 11.8867 20.908C13.1608 20.908 14.2436 20.0721 14.625 18.9129H13.7717C13.4321 19.62 12.7145 20.1079 11.8867 20.1079C10.7715 20.1079 9.8573 19.224 9.7947 18.1134H13.9775H14.5792V18.1134ZM11.8867 15.874C12.8072 15.874 13.5903 16.4779 13.8703 17.3144H9.90135C10.1819 16.4779 10.965 15.874 11.8867 15.874Z" fill="white"/>
</svg>
