<svg width="512" height="160" viewBox="0 0 512 160" fill="none" xmlns="http://www.w3.org/2000/svg">
<g clip-path="url(#clip0)">
<path d="M500.707 109.765C501.144 108.611 501.409 107.329 501.409 106.001C501.409 100.112 496.629 95.349 490.756 95.349C486.242 95.349 482.384 98.16 480.838 102.113C473.731 123.23 453.768 138.461 430.307 138.461C411.812 138.461 395.504 128.979 385.945 114.656C390.022 114.422 393.77 111.859 395.317 107.799C397.411 102.285 394.645 96.113 389.131 94.053L369.199 86.477C364.404 84.649 359.078 86.524 356.422 90.725C356.047 91.319 355.719 91.959 355.469 92.663L347.894 112.595C345.786 118.093 348.566 124.247 354.064 126.341C358.454 127.997 363.249 126.591 366.077 123.153C379.073 145.069 402.956 159.799 430.307 159.799C462.89 159.767 490.553 138.882 500.707 109.765Z" fill="#EEEEEE"/>
<path d="M428.744 21.339C447.223 21.339 463.515 30.805 473.09 45.144C469.013 45.378 465.248 47.925 463.734 52.001C461.626 57.5 464.374 63.669 469.888 65.731L489.834 73.323C491.084 73.791 492.365 74.01 493.631 74.01C497.91 73.994 501.941 71.402 503.565 67.137L511.141 47.205C513.235 41.691 510.469 35.537 504.955 33.444C500.582 31.773 495.786 33.21 492.975 36.646C479.963 14.715 456.079 0 428.745 0C396.145 0 368.481 20.916 358.329 50.032C357.891 51.203 357.626 52.469 357.626 53.797C357.626 59.686 362.405 64.45 368.294 64.434C372.794 64.45 376.651 61.638 378.198 57.686C385.305 36.569 405.267 21.339 428.744 21.339Z" fill="#EEEEEE"/>
<path d="M308.344 104.861C299.112 123.496 279.899 136.336 257.734 136.336C226.603 136.336 201.283 111 201.283 79.8689C201.283 48.7529 226.603 23.4169 257.734 23.4169C279.899 23.4169 299.112 36.2569 308.344 54.8919L327.463 45.3949C314.748 19.7469 288.303 2.09595 257.734 2.09595C214.778 2.09595 179.945 36.9129 179.945 79.8689C179.945 122.84 214.778 157.658 257.734 157.658C288.303 157.658 314.749 140.008 327.463 114.359L308.344 104.861Z" fill="#EEEEEE"/>
<path d="M150.345 83.0249H155.468C155.515 81.9469 155.546 80.853 155.546 79.759C155.546 36.803 120.713 1.98596 77.789 1.98596C34.818 1.98596 0 36.803 0 79.759C0 122.73 34.817 157.548 77.789 157.548C112.122 157.548 141.301 135.257 151.579 104.345H128.586C119.433 123.199 100.095 136.21 77.789 136.21C47.736 136.21 23.102 112.64 21.415 83.024H134.131H150.345V83.0249ZM77.789 23.308C102.594 23.308 123.697 39.412 131.241 61.718H24.289C31.85 39.412 52.952 23.308 77.789 23.308Z" fill="#EEEEEE"/>
</g>
<defs>
<clipPath id="clip0">
<rect width="511.84" height="159.799" fill="white"/>
</clipPath>
</defs>
</svg>
