<svg width="114" height="36" viewBox="0 0 114 36" fill="none" xmlns="http://www.w3.org/2000/svg">
<g clip-path="url(#clip0)">
<path d="M111.52 24.7282C111.618 24.4682 111.677 24.1794 111.677 23.8803C111.677 22.5536 110.612 21.4805 109.304 21.4805C108.299 21.4805 107.439 22.1138 107.095 23.0044C105.512 27.7617 101.066 31.1929 95.8405 31.1929C91.7211 31.1929 88.0889 29.0568 85.9599 25.8301C86.868 25.7774 87.7027 25.2 88.0473 24.2853C88.5137 23.0431 87.8976 21.6527 86.6695 21.1886L82.2301 19.4818C81.1622 19.07 79.9759 19.4924 79.3844 20.4388C79.3008 20.5727 79.2278 20.7168 79.1721 20.8754L77.485 25.3658C77.0155 26.6044 77.6346 27.9908 78.8592 28.4625C79.8369 28.8356 80.9049 28.5188 81.5348 27.7443C84.4293 32.6816 89.7487 36 95.8405 36C103.098 35.9928 109.259 31.2878 111.52 24.7282Z" fill="#EEEEEE"/>
<path d="M95.4924 4.80732C99.6081 4.80732 103.237 6.93984 105.369 10.1702C104.461 10.2229 103.623 10.7967 103.286 11.7149C102.816 12.9538 103.428 14.3435 104.656 14.8081L109.099 16.5184C109.377 16.6239 109.662 16.6732 109.944 16.6732C110.897 16.6696 111.795 16.0857 112.157 15.1248L113.844 10.6345C114.311 9.39227 113.695 8.00588 112.467 7.53437C111.493 7.15792 110.424 7.48165 109.798 8.25572C106.9 3.31504 101.581 0 95.4926 0C88.2318 0 82.0703 4.71202 79.8092 11.2714C79.7116 11.5352 79.6526 11.8204 79.6526 12.1196C79.6526 13.4462 80.717 14.5195 82.0286 14.5159C83.0309 14.5195 83.8899 13.886 84.2345 12.9957C85.8174 8.23838 90.2635 4.80732 95.4924 4.80732Z" fill="#EEEEEE"/>
<path d="M68.6761 23.6234C66.6199 27.8215 62.3407 30.7142 57.404 30.7142C50.4703 30.7142 44.8309 25.0064 44.8309 17.9931C44.8309 10.9832 50.4703 5.27543 57.404 5.27543C62.3407 5.27543 66.6199 8.16806 68.6761 12.3662L72.9344 10.2267C70.1025 4.44864 64.2125 0.472168 57.404 0.472168C47.8366 0.472168 40.0784 8.31584 40.0784 17.9931C40.0784 27.6737 47.8366 35.5176 57.404 35.5176C64.2125 35.5176 70.1027 31.5414 72.9344 25.7631L68.6761 23.6234Z" fill="#EEEEEE"/>
<path d="M33.4857 18.7041H34.6267C34.6372 18.4612 34.6441 18.2148 34.6441 17.9683C34.6441 8.29106 26.8859 0.447388 17.3256 0.447388C7.75486 0.447388 0 8.29106 0 17.9683C0 27.649 7.75464 35.4929 17.3256 35.4929C24.9724 35.4929 31.4714 30.4711 33.7605 23.5071H28.6394C26.6008 27.7546 22.2937 30.6858 17.3256 30.6858C10.632 30.6858 5.14541 25.3759 4.76967 18.7039H29.8744H33.4857V18.7041ZM17.3256 5.25087C22.8503 5.25087 27.5505 8.87883 29.2307 13.904H5.40978C7.09381 8.87883 11.7938 5.25087 17.3256 5.25087Z" fill="#EEEEEE"/>
</g>
<defs>
<clipPath id="clip0">
<rect width="114" height="36" fill="white"/>
</clipPath>
</defs>
</svg>
