<svg width="136" height="61" viewBox="0 0 136 61" fill="none" xmlns="http://www.w3.org/2000/svg">
<circle cx="32.5" cy="30.5" r="28.5" fill="white"/>
<path d="M30.3912 41.5902C37.3766 41.5902 43.0394 35.9992 43.0394 29.1023C43.0394 22.2055 37.3766 16.6145 30.3912 16.6145C23.4058 16.6145 17.7431 22.2055 17.7431 29.1023C17.7431 35.9992 23.4058 41.5902 30.3912 41.5902Z" stroke="#125C34" stroke-width="2" stroke-linecap="round" stroke-linejoin="round"/>
<path d="M46.2014 44.7121L39.324 37.9219" stroke="#125C34" stroke-width="2" stroke-linecap="round" stroke-linejoin="round"/>
<path d="M100.391 41.5902C107.377 41.5902 113.039 35.9992 113.039 29.1023C113.039 22.2055 107.377 16.6145 100.391 16.6145C93.4058 16.6145 87.7431 22.2055 87.7431 29.1023C87.7431 35.9992 93.4058 41.5902 100.391 41.5902Z" stroke="white" stroke-width="2" stroke-linecap="round" stroke-linejoin="round"/>
<path d="M116.201 44.7121L109.324 37.9219" stroke="white" stroke-width="2" stroke-linecap="round" stroke-linejoin="round"/>
</svg>
