<svg width="91" height="37" viewBox="0 0 91 37" fill="none" xmlns="http://www.w3.org/2000/svg">
<path d="M67.3912 29.6585C74.3766 29.6585 80.0394 24.0675 80.0394 17.1707C80.0394 10.2739 74.3766 4.68286 67.3912 4.68286C60.4058 4.68286 54.7431 10.2739 54.7431 17.1707C54.7431 24.0675 60.4058 29.6585 67.3912 29.6585Z" stroke="#125C34" stroke-width="2" stroke-linecap="round" stroke-linejoin="round"/>
<path d="M83.2014 32.7805L76.324 25.9902" stroke="#125C34" stroke-width="2" stroke-linecap="round" stroke-linejoin="round"/>
<path d="M17.3912 29.6585C24.3766 29.6585 30.0394 24.0675 30.0394 17.1707C30.0394 10.2739 24.3766 4.68286 17.3912 4.68286C10.4058 4.68286 4.74306 10.2739 4.74306 17.1707C4.74306 24.0675 10.4058 29.6585 17.3912 29.6585Z" stroke="white" stroke-width="2" stroke-linecap="round" stroke-linejoin="round"/>
<path d="M33.2014 32.7805L26.324 25.9902" stroke="white" stroke-width="2" stroke-linecap="round" stroke-linejoin="round"/>
</svg>
