<svg xmlns="http://www.w3.org/2000/svg" width="57" height="57" fill="none" viewBox="0 0 57 57"><path fill="url(#paint0_linear)" d="M56.1094 50.7656H0.890625V56.1094H56.1094V50.7656Z"/><path fill="url(#paint1_linear)" d="M56.1094 9.79688H0.890625V15.1406H56.1094V9.79688Z"/><path fill="#8288A1" d="M56.1094 13.3594H0.890625V15.1406H56.1094V13.3594Z"/><path fill="#8288A1" d="M56.1094 54.3281H0.890625V56.1094H56.1094V54.3281Z"/><path fill="url(#paint2_linear)" d="M17.8125 6.23438H7.125V9.79688H17.8125V6.23438Z"/><path fill="url(#paint3_linear)" d="M54.3281 15.1406H2.67188V50.7656H54.3281V15.1406Z"/><path fill="#42455E" d="M54.3281 48.9844H2.67188V50.7656H54.3281V48.9844Z"/><path fill="#575F7C" d="M54.3281 15.1406H2.67188V16.9219H54.3281V15.1406Z"/><path fill="url(#paint4_linear)" d="M50.7656 18.7031H6.23438V47.2031H50.7656V18.7031Z"/><path fill="#4DA67F" d="M50.7656 45.4219H6.23438V47.2031H50.7656V45.4219Z"/><path fill="#78C19B" d="M50.7656 18.7031H6.23438V20.4844H50.7656V18.7031Z"/><path fill="url(#paint5_linear)" d="M28.5 43.6406C34.4025 43.6406 39.1875 38.8557 39.1875 32.9531C39.1875 27.0506 34.4025 22.2656 28.5 22.2656C22.5975 22.2656 17.8125 27.0506 17.8125 32.9531C17.8125 38.8557 22.5975 43.6406 28.5 43.6406Z"/><path fill="#C7CDD8" d="M28.5001 43.6406C27.0184 43.6458 25.5518 43.3428 24.1935 42.7509C22.8351 42.159 21.6147 41.2911 20.6097 40.2023C19.6047 39.1135 18.837 37.8277 18.3555 36.4264C17.874 35.0251 17.6891 33.5391 17.8126 32.0625C17.8126 34.897 18.9386 37.6154 20.9429 39.6197C22.9472 41.624 25.6656 42.75 28.5001 42.75C31.3346 42.75 34.053 41.624 36.0573 39.6197C38.0616 37.6154 39.1876 34.897 39.1876 32.0625C39.3111 33.5391 39.1262 35.0251 38.6446 36.4264C38.1631 37.8277 37.3955 39.1135 36.3905 40.2023C35.3854 41.2911 34.165 42.159 32.8067 42.7509C31.4483 43.3428 29.9818 43.6458 28.5001 43.6406Z"/><path fill="url(#paint6_linear)" d="M32.3208 33.541C32.3208 37.1213 28.5 38.297 28.5 38.297C28.5 38.297 24.6792 37.1213 24.6792 33.541C24.6792 29.9607 28.5 25.3206 28.5 25.3206C28.5 25.3206 32.3208 29.9518 32.3208 33.541Z"/><path fill="#7ECE67" d="M27.6094 40.5858V31.4302C27.6094 31.194 27.7032 30.9674 27.8702 30.8004C28.0373 30.6334 28.2638 30.5396 28.5 30.5396C28.7362 30.5396 28.9627 30.6334 29.1298 30.8004C29.2968 30.9674 29.3906 31.194 29.3906 31.4302V40.5858C29.3906 40.822 29.2968 41.0485 29.1298 41.2156C28.9627 41.3826 28.7362 41.4764 28.5 41.4764C28.2638 41.4764 28.0373 41.3826 27.8702 41.2156C27.7032 41.0485 27.6094 40.822 27.6094 40.5858Z"/><path fill="url(#paint7_linear)" d="M15.1406 0.890625H9.79688V6.23438H15.1406V0.890625Z"/><path fill="url(#paint8_linear)" d="M49.875 6.23438H39.1875V9.79688H49.875V6.23438Z"/><path fill="#8288A1" d="M17.8125 8.01562H7.125V9.79688H17.8125V8.01562Z"/><path fill="#8288A1" d="M49.875 8.01562H39.1875V9.79688H49.875V8.01562Z"/><path fill="url(#paint9_linear)" d="M47.2031 0.890625H41.8594V6.23438H47.2031V0.890625Z"/><path fill="#42455E" d="M15.1406 4.45312H9.79688V6.23438H15.1406V4.45312Z"/><path fill="#42455E" d="M47.2031 4.45312H41.8594V6.23438H47.2031V4.45312Z"/><path fill="#CF4055" d="M46.3125 25.8281H41.8594C41.6232 25.8281 41.3966 25.7343 41.2296 25.5673C41.0626 25.4002 40.9688 25.1737 40.9688 24.9375C40.9688 24.7013 41.0626 24.4748 41.2296 24.3077C41.3966 24.1407 41.6232 24.0469 41.8594 24.0469H46.3125C46.5487 24.0469 46.7752 24.1407 46.9423 24.3077C47.1093 24.4748 47.2031 24.7013 47.2031 24.9375C47.2031 25.1737 47.1093 25.4002 46.9423 25.5673C46.7752 25.7343 46.5487 25.8281 46.3125 25.8281Z"/><path fill="#CF4055" d="M15.1406 24.0469H13.8047V22.7109C13.8047 22.4747 13.7109 22.2482 13.5438 22.0812C13.3768 21.9141 13.1503 21.8203 12.9141 21.8203C12.6779 21.8203 12.4513 21.9141 12.2843 22.0812C12.1173 22.2482 12.0234 22.4747 12.0234 22.7109V24.0469H10.6875C10.4513 24.0469 10.2248 24.1407 10.0577 24.3077C9.89071 24.4748 9.79688 24.7013 9.79688 24.9375C9.79688 25.1737 9.89071 25.4002 10.0577 25.5673C10.2248 25.7343 10.4513 25.8281 10.6875 25.8281H12.0234V27.1641C12.0234 27.4003 12.1173 27.6268 12.2843 27.7938C12.4513 27.9609 12.6779 28.0547 12.9141 28.0547C13.1503 28.0547 13.3768 27.9609 13.5438 27.7938C13.7109 27.6268 13.8047 27.4003 13.8047 27.1641V25.8281H15.1406C15.3768 25.8281 15.6034 25.7343 15.7704 25.5673C15.9374 25.4002 16.0312 25.1737 16.0312 24.9375C16.0312 24.7013 15.9374 24.4748 15.7704 24.3077C15.6034 24.1407 15.3768 24.0469 15.1406 24.0469Z"/><defs><linearGradient id="paint0_linear" x1="28.5" x2="28.5" y1="56.109" y2="50.766" gradientUnits="userSpaceOnUse"><stop stop-color="#949AAF"/><stop offset="1" stop-color="#C6CCDA"/></linearGradient><linearGradient id="paint1_linear" x1="1767.89" x2="1767.89" y1="100.641" y2="68.578" gradientUnits="userSpaceOnUse"><stop stop-color="#949AAF"/><stop offset="1" stop-color="#C6CCDA"/></linearGradient><linearGradient id="paint2_linear" x1="156.75" x2="156.75" y1="45.422" y2="31.172" gradientUnits="userSpaceOnUse"><stop stop-color="#949AAF"/><stop offset="1" stop-color="#C6CCDA"/></linearGradient><linearGradient id="paint3_linear" x1="28.5" x2="28.5" y1="50.766" y2="15.141" gradientUnits="userSpaceOnUse"><stop stop-color="#474F72"/><stop offset="1" stop-color="#878C9F"/></linearGradient><linearGradient id="paint4_linear" x1="28.5" x2="28.5" y1="47.203" y2="18.703" gradientUnits="userSpaceOnUse"><stop stop-color="#6AB891"/><stop offset="1" stop-color="#85CBA9"/></linearGradient><linearGradient id="paint5_linear" x1="28.5" x2="28.5" y1="43.641" y2="22.266" gradientUnits="userSpaceOnUse"><stop stop-color="#D4D8E1"/><stop offset="1" stop-color="#F3F4F5"/></linearGradient><linearGradient id="paint6_linear" x1="28.5" x2="28.5" y1="38.297" y2="25.321" gradientUnits="userSpaceOnUse"><stop stop-color="#8CDD79"/><stop offset="1" stop-color="#D4E6B6"/></linearGradient><linearGradient id="paint7_linear" x1="84.609" x2="84.609" y1="38.297" y2="6.234" gradientUnits="userSpaceOnUse"><stop stop-color="#474F72"/><stop offset="1" stop-color="#878C9F"/></linearGradient><linearGradient id="paint8_linear" x1="573.562" x2="573.562" y1="45.422" y2="31.172" gradientUnits="userSpaceOnUse"><stop stop-color="#949AAF"/><stop offset="1" stop-color="#C6CCDA"/></linearGradient><linearGradient id="paint9_linear" x1="309.047" x2="309.047" y1="38.297" y2="6.234" gradientUnits="userSpaceOnUse"><stop stop-color="#474F72"/><stop offset="1" stop-color="#878C9F"/></linearGradient></defs></svg>