<svg xmlns="http://www.w3.org/2000/svg" width="66" height="66" fill="none" viewBox="0 0 66 66"><path fill="#CBA07A" d="M62.5263 46.8947C62.5263 50.7314 59.4156 53.842 55.5789 53.842H10.421C6.58432 53.842 3.47363 50.7314 3.47363 46.8947V12.7015C3.47363 8.86478 13.5317 1.73678 17.3684 1.73678H53.1907C58.5645 1.73678 62.5263 5.7541 62.5263 11.0723V46.8947Z"/><path fill="#CCD6DD" d="M59.0525 53.8422C59.0525 57.6789 55.9419 60.7896 52.1052 60.7896H13.8946C10.058 60.7896 6.94727 57.6789 6.94727 53.8422V12.158C6.94727 5.00392 6.91079 5.21061 15.6315 5.21061H52.1052C55.9419 5.21061 59.0525 8.32129 59.0525 12.158V53.8422Z"/><path fill="#E1E8ED" d="M55.5789 55.579C55.5789 58.457 53.2463 60.7896 50.3684 60.7896H8.68416C5.80621 60.7896 3.47363 58.457 3.47363 55.579V13.8948C3.47363 11.0169 5.80621 8.68429 8.68416 8.68429H50.3684C53.2463 8.68429 55.5789 11.0169 55.5789 13.8948V55.579Z"/><path fill="#CBA07A" d="M55.5789 57.3158C55.5789 61.1525 52.4682 64.2632 48.6315 64.2632H12.1578C8.32113 64.2632 5.21045 61.1525 5.21045 57.3158V19.1053C5.21045 15.2686 8.32113 12.1579 12.1578 12.1579H48.6315C52.4682 12.1579 55.5789 15.2686 55.5789 19.1053V57.3158Z"/><path fill="#E2BD9C" d="M52.1052 57.3158C52.1052 61.1525 48.9945 64.2632 45.1578 64.2632H12.1578C8.32113 64.2632 5.21045 61.1525 5.21045 57.3158V22.579C5.21045 18.7423 8.32113 15.6316 12.1578 15.6316H45.7397C49.5763 15.6316 52.1052 18.1604 52.1052 21.9971V57.3158Z"/><path fill="#CBA07A" d="M12.1578 12.1579C9.22779 12.1579 9.15137 8.81971 10.421 7.38161C11.8661 5.74724 14.1118 5.21056 18.1291 5.21056H20.8421V1.73687H16.1196C9.22779 1.73687 3.47363 6.07898 3.47363 11.0724V57.3158C3.47363 61.1525 6.58432 64.2632 10.421 64.2632H13.8947V12.1579H12.1578Z"/><path fill="#2C9B5F" d="M30.6867 52.9764C30.7486 52.998 30.8174 53.0106 30.8887 53.0094C31.2049 53.0042 31.4618 52.7527 31.4632 52.4489C31.4643 52.2153 31.3143 52.0182 31.1025 51.9417C29.9704 51.5925 29.1575 50.573 29.1633 49.3591C29.1678 48.4022 29.681 47.5501 30.4524 47.043C30.4639 47.2537 30.6006 47.4454 30.8182 47.5219C31.1138 47.6254 31.4458 47.4769 31.5578 47.1898L31.9695 46.1519C32.0688 45.9022 31.9695 45.6282 31.7446 45.4945C31.7128 45.4756 31.6785 45.4592 31.6407 45.4469L30.5724 45.0725C30.2777 44.9682 29.9466 45.1175 29.8328 45.4038C29.7428 45.6324 29.8171 45.8792 30.001 46.0225C28.8211 46.7141 28.0243 47.9628 28.0176 49.3779C28.0113 51.0636 29.1258 52.4766 30.6867 52.9764Z"/><path fill="#2C9B5F" d="M35.4998 49.1891C35.492 50.1473 34.9808 51.0017 34.2128 51.5128C34.202 51.3016 34.0679 51.109 33.8514 51.0346C33.5592 50.9309 33.2294 51.0797 33.1172 51.3677L32.7043 52.4097C32.6788 52.475 32.6666 52.5416 32.6661 52.6073C32.6651 52.8291 32.8015 53.0355 33.0281 53.1154L34.0869 53.4879C34.3798 53.5909 34.7089 53.4412 34.8227 53.1532C34.9136 52.9247 34.839 52.6775 34.6572 52.5352C35.8312 51.8382 36.6253 50.5848 36.6368 49.1674C36.6505 47.477 35.5477 46.0639 34.0007 45.5671C33.9385 45.5456 33.8711 45.5331 33.8004 45.5345C33.4866 45.5405 33.2308 45.7931 33.2291 46.0985C33.2264 46.3318 33.3746 46.529 33.5845 46.6052C34.7066 46.9522 35.5097 47.9718 35.4998 49.1891Z"/><path fill="#2C9B5F" d="M30.9686 43.0813C29.9713 42.6199 29.2899 41.6323 29.2999 40.4774C29.3139 38.8554 30.6868 37.5096 32.3598 37.477C34.0319 37.4444 35.3821 38.7371 35.3681 40.3591C35.3581 41.5139 34.6595 42.5284 33.6539 43.029L34.1556 44.0152C35.5397 43.3258 36.5001 41.9295 36.5139 40.3367C36.5332 38.0986 34.6778 36.3202 32.3694 36.3652C30.0601 36.4102 28.1734 38.2616 28.154 40.4997C28.1403 42.0925 29.0769 43.4519 30.4496 44.0875L30.9686 43.0813Z"/><path fill="#2C9B5F" d="M32.1336 34.9181L32.1313 35.1849C32.1891 35.1862 32.2479 35.1867 32.3067 35.1856C34.6141 35.1406 36.5 33.29 36.5192 31.0545C36.5386 28.8165 34.684 27.0396 32.3766 27.0846C30.0683 27.1296 28.1824 28.9794 28.1631 31.2174C28.1477 33.0055 29.3319 34.5018 30.9878 35.0047L30.9981 33.8072C29.9895 33.3503 29.2993 32.3568 29.3093 31.1951C29.3228 29.6299 30.5999 28.3222 32.1915 28.2034L32.1336 34.9181L32.1336 34.9181ZM35.3739 31.0768C35.3628 32.3687 34.4882 33.4846 33.2867 33.9009L33.3347 28.3308C34.5295 28.7012 35.3851 29.7834 35.3739 31.0769L35.3739 31.0768Z"/></svg>