<svg width="64" height="64" viewBox="0 0 64 64" fill="none" xmlns="http://www.w3.org/2000/svg">
<path d="M38 1H26V8H38V1Z" fill="url(#paint0_linear)"/>
<path d="M38 6H26V8H38V6Z" fill="#C7CDD8"/>
<path d="M46 39V61C46 61.5304 45.7893 62.0391 45.4142 62.4142C45.0391 62.7893 44.5304 63 44 63H20C19.4696 63 18.9609 62.7893 18.5858 62.4142C18.2107 62.0391 18 61.5304 18 61V39C18 35 20.5 33.5 20.5 31.5C20.5 29.5 19 29 19 23C19 15 27 11 27 11V8H37V11C37 11 45 15 45 23C45 29 43.5 29.5 43.5 31.5C43.5 33.5 46 35 46 39Z" fill="url(#paint1_linear)"/>
<path d="M46 58V61C46 61.5304 45.7893 62.0391 45.4142 62.4142C45.0391 62.7893 44.5304 63 44 63H20C19.4696 63 18.9609 62.7893 18.5858 62.4142C18.2107 62.0391 18 61.5304 18 61V58C18 58.5304 18.2107 59.0391 18.5858 59.4142C18.9609 59.7893 19.4696 60 20 60H44C44.5304 60 45.0391 59.7893 45.4142 59.4142C45.7893 59.0391 46 58.5304 46 58Z" fill="#77CACB"/>
<path d="M42.2499 42.71L40.2499 39.33L41.7799 38.45C41.9538 38.3522 42.0946 38.2046 42.184 38.0262C42.2734 37.8478 42.3073 37.6468 42.2815 37.4489C42.2557 37.251 42.1713 37.0654 42.0391 36.9159C41.907 36.7664 41.7331 36.6599 41.5399 36.61L37.7499 35.61C37.6218 35.5754 37.4882 35.5667 37.3567 35.5843C37.2252 35.6019 37.0986 35.6454 36.9841 35.7124C36.8697 35.7794 36.7697 35.8685 36.69 35.9746C36.6103 36.0806 36.5524 36.2014 36.5199 36.33C35.5199 40.26 35.1699 40.62 35.8699 41.15C36.5699 41.68 36.8699 41.27 38.5099 40.34L40.5099 43.73C40.5946 43.8806 40.6388 44.0505 40.6383 44.2233C40.6378 44.396 40.5925 44.5657 40.5069 44.7157C40.4213 44.8658 40.2983 44.9911 40.1498 45.0795C40.0014 45.1679 39.8326 45.2163 39.6599 45.22H36.1399C35.8747 45.22 35.6203 45.3253 35.4328 45.5129C35.2452 45.7004 35.1399 45.9548 35.1399 46.22C35.1399 46.4852 35.2452 46.7396 35.4328 46.9271C35.6203 47.1146 35.8747 47.22 36.1399 47.22C39.2699 47.22 41.1399 47.55 42.2299 45.65C42.4853 45.2029 42.6212 44.6975 42.6247 44.1826C42.6282 43.6677 42.4992 43.1606 42.2499 42.71Z" fill="#4DA67F"/>
<path d="M32.7001 45.5599C29.8101 42.6599 29.7001 42.2399 28.8501 42.5599C28.0001 42.8799 28.2301 43.3899 28.2301 45.2499C24.1201 45.2499 23.8701 45.4199 23.4801 44.7599C23.0901 44.0999 23.3801 43.9299 25.2501 40.6499C25.3827 40.4192 25.4182 40.1452 25.3488 39.8883C25.2794 39.6314 25.1108 39.4125 24.8801 39.2799C24.6494 39.1473 24.3754 39.1118 24.1185 39.1812C23.8615 39.2506 23.6427 39.4192 23.5101 39.6499C21.9401 42.4199 20.6501 43.8499 21.7601 45.7499C22.024 46.2029 22.402 46.5789 22.8564 46.8403C23.3108 47.1018 23.8258 47.2395 24.3501 47.2399H28.2301C28.2301 49.1699 28.1001 49.6299 28.8501 49.9399C29.0332 50.0153 29.2345 50.0346 29.4285 49.9954C29.6225 49.9562 29.8006 49.8604 29.9401 49.7199L32.7101 46.9999C32.8062 46.906 32.8824 46.7936 32.9342 46.6695C32.9859 46.5455 33.0121 46.4122 33.0111 46.2778C33.0102 46.1434 32.9822 46.0105 32.9287 45.8872C32.8753 45.7638 32.7975 45.6525 32.7001 45.5599Z" fill="#4DA67F"/>
<path d="M36.3301 32.46C34.7901 29.79 34.1901 28 32.0001 28C31.4731 27.9997 30.9554 28.1381 30.499 28.4014C30.0426 28.6648 29.6635 29.0437 29.4001 29.5L27.4801 32.8L25.9401 31.91C25.7717 31.8171 25.5802 31.7747 25.3884 31.7878C25.1966 31.801 25.0126 31.8691 24.8585 31.9841C24.7045 32.0992 24.5868 32.2562 24.5197 32.4363C24.4526 32.6165 24.4388 32.8122 24.4801 33C25.4801 36.79 25.4801 37.11 25.9601 37.39C26.1924 37.516 26.4631 37.5517 26.7201 37.49C30.7201 36.43 31.1201 36.49 31.2301 35.64C31.3401 34.79 30.8301 34.64 29.2301 33.76C31.2301 30.23 31.2301 29.92 32.0201 29.92C32.8101 29.92 32.9101 30.46 34.6201 33.42C34.7706 33.5954 34.9772 33.7132 35.2048 33.7535C35.4324 33.7937 35.6669 33.7539 35.8685 33.6407C36.07 33.5276 36.2261 33.3481 36.3103 33.1329C36.3944 32.9176 36.4014 32.6798 36.3301 32.46Z" fill="#4DA67F"/>
<path d="M37 8H27V10H37V8Z" fill="#AAE0E5"/>
<defs>
<linearGradient id="paint0_linear" x1="32" y1="8" x2="32" y2="1" gradientUnits="userSpaceOnUse">
<stop stop-color="#D4D8E1"/>
<stop offset="1" stop-color="#F3F4F5"/>
</linearGradient>
<linearGradient id="paint1_linear" x1="32" y1="63" x2="32" y2="8" gradientUnits="userSpaceOnUse">
<stop stop-color="#9DD5DF"/>
<stop offset="1" stop-color="#C3E1F5"/>
</linearGradient>
</defs>
</svg>
