<svg width="50" height="41" viewBox="0 0 50 41" fill="none" xmlns="http://www.w3.org/2000/svg">
<path d="M45.922 23.967L42.4264 13.1251C42.2845 12.6651 41.9978 12.2629 41.6086 11.9779C41.2194 11.6928 40.7485 11.5401 40.2655 11.5423H31.9396V3.94509C31.9396 3.86114 31.9061 3.78062 31.8465 3.72126C31.7869 3.66189 31.7061 3.62854 31.6218 3.62854H5.56363C5.47935 3.62854 5.39852 3.66189 5.33893 3.72126C5.27933 3.78062 5.24585 3.86114 5.24585 3.94509V33.7009C5.24585 33.7849 5.27933 33.8654 5.33893 33.9248C5.39852 33.9841 5.47935 34.0175 5.56363 34.0175H9.7107C9.77586 35.0627 10.2386 36.0439 11.0047 36.7611C11.7708 37.4783 12.7826 37.8776 13.8339 37.8776C14.8853 37.8776 15.897 37.4783 16.6631 36.7611C17.4292 36.0439 17.892 35.0627 17.9572 34.0175C35.9087 34.0175 33.6969 34.0175 33.8781 34.0175C33.9686 35.0425 34.4413 35.9966 35.2031 36.6916C35.9648 37.3866 36.9604 37.7721 37.9933 37.7721C39.0263 37.7721 40.0219 37.3866 40.7836 36.6916C41.5454 35.9966 42.0181 35.0425 42.1086 34.0175H45.6042C45.6885 34.0175 45.7693 33.9841 45.8289 33.9248C45.8885 33.8654 45.922 33.7849 45.922 33.7009C45.922 23.4668 45.922 24.0429 45.922 23.967ZM22.0883 4.26164V7.8545L21.2875 7.45565C21.081 7.35435 21.0206 7.45565 19.8702 8.01594C18.669 7.41766 18.6499 7.35752 18.4561 7.45565L17.3216 8.01594L16.1966 7.45565C16.0091 7.36068 15.9424 7.43665 15.1035 7.8545V4.26164H22.0883ZM5.88141 4.26164H14.4615V8.37681C14.4615 8.46077 14.495 8.54128 14.5546 8.60065C14.6142 8.66001 14.695 8.69336 14.7793 8.69336C14.8842 8.69336 14.8397 8.69336 16.0505 8.09825C17.2549 8.69653 17.2739 8.75667 17.4678 8.65854L18.5927 8.10458L19.7177 8.66487C19.9242 8.76617 19.9846 8.66487 21.1318 8.10458C22.3616 8.71552 22.3743 8.77567 22.5745 8.65221C22.7747 8.52876 22.7239 8.67121 22.7239 4.26164H31.304V27.0533H5.88141V4.26164ZM5.88141 27.6865H31.304V33.3844H17.9572C17.8666 32.3593 17.3939 31.4053 16.6321 30.7103C15.8704 30.0153 14.8749 29.6298 13.8419 29.6298C12.8089 29.6298 11.8134 30.0153 11.0516 30.7103C10.2898 31.4053 9.8171 32.3593 9.72658 33.3844H5.88141V27.6865ZM13.826 37.183C13.1346 37.183 12.4588 36.9788 11.8839 36.5962C11.3091 36.2136 10.861 35.6697 10.5965 35.0335C10.3319 34.3972 10.2627 33.6971 10.3975 33.0216C10.5324 32.3462 10.8653 31.7257 11.3542 31.2387C11.8431 30.7518 12.4659 30.4201 13.144 30.2858C13.8221 30.1514 14.525 30.2204 15.1637 30.4839C15.8024 30.7475 16.3484 31.1938 16.7325 31.7664C17.1166 32.339 17.3216 33.0122 17.3216 33.7009C17.3216 34.6244 16.9533 35.5101 16.2977 36.1631C15.6422 36.8161 14.7531 37.183 13.826 37.183ZM37.9775 37.183C37.2861 37.183 36.6102 36.9788 36.0354 36.5962C35.4605 36.2136 35.0125 35.6697 34.7479 35.0335C34.4834 34.3972 34.4141 33.6971 34.549 33.0216C34.6839 32.3462 35.0168 31.7257 35.5057 31.2387C35.9946 30.7518 36.6174 30.4201 37.2955 30.2858C37.9736 30.1514 38.6764 30.2204 39.3152 30.4839C39.9539 30.7475 40.4998 31.1938 40.8839 31.7664C41.268 32.339 41.4731 33.0122 41.4731 33.7009C41.4731 34.6244 41.1048 35.5101 40.4492 36.1631C39.7937 36.8161 38.9045 37.183 37.9775 37.183ZM42.1086 33.3844C42.0181 32.3593 41.5454 31.4053 40.7836 30.7103C40.0219 30.0153 39.0263 29.6298 37.9933 29.6298C36.9604 29.6298 35.9648 30.0153 35.2031 30.7103C34.4413 31.4053 33.9686 32.3593 33.8781 33.3844C33.7827 33.3844 34.2435 33.3844 31.9714 33.3844V12.1754H40.3068C40.6528 12.173 40.9904 12.2812 41.2701 12.484C41.5497 12.6869 41.7568 12.9737 41.8608 13.3024L42.0769 14.0747H35.1174C35.0331 14.0747 34.9523 14.1081 34.8927 14.1675C34.8331 14.2268 34.7996 14.3073 34.7996 14.3913V23.8878C34.7996 23.9718 34.8331 24.0523 34.8927 24.1117C34.9523 24.171 35.0331 24.2044 35.1174 24.2044H45.2865V26.7368H44.3331C44.0803 26.7368 43.8378 26.8369 43.659 27.0149C43.4802 27.193 43.3798 27.4346 43.3798 27.6865V30.2189C43.3798 30.4707 43.4802 30.7123 43.659 30.8904C43.8378 31.0685 44.0803 31.1685 44.3331 31.1685H45.2865V33.3844H42.1086ZM44.8702 23.5713H35.4352V14.7078H42.0419L44.8702 23.5713ZM45.2865 30.5354H44.3331C44.2488 30.5354 44.168 30.5021 44.1084 30.4427C44.0488 30.3833 44.0153 30.3028 44.0153 30.2189V27.6865C44.0153 27.6025 44.0488 27.522 44.1084 27.4626C44.168 27.4033 44.2488 27.3699 44.3331 27.3699H45.2865V30.5354Z" fill="white" stroke="white" stroke-width="0.5"/>
<path d="M36.7063 26.1036H35.1174C35.0331 26.1036 34.9523 26.137 34.8927 26.1964C34.8331 26.2557 34.7996 26.3362 34.7996 26.4202C34.7996 26.5041 34.8331 26.5847 34.8927 26.644C34.9523 26.7034 35.0331 26.7367 35.1174 26.7367H36.7063C36.7906 26.7367 36.8714 26.7034 36.931 26.644C36.9906 26.5847 37.0241 26.5041 37.0241 26.4202C37.0241 26.3362 36.9906 26.2557 36.931 26.1964C36.8714 26.137 36.7906 26.1036 36.7063 26.1036Z" fill="white" stroke="white" stroke-width="1.4"/>
<path d="M37.9774 31.485C37.5375 31.485 37.1074 31.6149 36.7416 31.8584C36.3758 32.1019 36.0907 32.448 35.9223 32.8529C35.7539 33.2578 35.7099 33.7033 35.7957 34.1331C35.8815 34.563 36.0934 34.9578 36.4045 35.2677C36.7156 35.5776 37.112 35.7886 37.5435 35.8741C37.975 35.9596 38.4222 35.9158 38.8287 35.748C39.2352 35.5803 39.5826 35.2963 39.827 34.9319C40.0715 34.5675 40.2019 34.1391 40.2019 33.7008C40.2019 33.4099 40.1444 33.1217 40.0326 32.8529C39.9208 32.584 39.7569 32.3398 39.5504 32.134C39.3438 31.9282 39.0986 31.765 38.8287 31.6537C38.5588 31.5423 38.2696 31.485 37.9774 31.485ZM37.9774 35.2836C37.6632 35.2836 37.356 35.1908 37.0947 35.0169C36.8334 34.8429 36.6297 34.5958 36.5095 34.3065C36.3892 34.0173 36.3577 33.6991 36.4191 33.3921C36.4804 33.085 36.6317 32.803 36.8539 32.5817C37.0761 32.3603 37.3592 32.2096 37.6675 32.1485C37.9757 32.0874 38.2952 32.1188 38.5855 32.2386C38.8758 32.3584 39.124 32.5612 39.2986 32.8215C39.4732 33.0818 39.5664 33.3878 39.5664 33.7008C39.5664 34.1206 39.3989 34.5232 39.101 34.82C38.803 35.1169 38.3988 35.2836 37.9774 35.2836Z" fill="white"/>
<path d="M13.826 31.485C13.386 31.485 12.9559 31.6149 12.5901 31.8584C12.2243 32.1019 11.9392 32.448 11.7708 32.8529C11.6025 33.2578 11.5584 33.7033 11.6442 34.1331C11.7301 34.563 11.9419 34.9578 12.253 35.2677C12.5641 35.5776 12.9605 35.7886 13.392 35.8741C13.8235 35.9596 14.2708 35.9158 14.6773 35.748C15.0837 35.5803 15.4311 35.2963 15.6756 34.9319C15.92 34.5675 16.0505 34.1391 16.0505 33.7008C16.0505 33.4099 15.9929 33.1217 15.8811 32.8529C15.7693 32.584 15.6055 32.3398 15.3989 32.134C15.1924 31.9282 14.9471 31.765 14.6773 31.6537C14.4074 31.5423 14.1181 31.485 13.826 31.485ZM13.826 35.2836C13.5117 35.2836 13.2045 35.1908 12.9432 35.0169C12.6819 34.8429 12.4783 34.5958 12.358 34.3065C12.2378 34.0173 12.2063 33.6991 12.2676 33.3921C12.3289 33.085 12.4802 32.803 12.7025 32.5817C12.9247 32.3603 13.2078 32.2096 13.516 32.1485C13.8242 32.0874 14.1437 32.1188 14.434 32.2386C14.7244 32.3584 14.9725 32.5612 15.1471 32.8215C15.3217 33.0818 15.4149 33.3878 15.4149 33.7008C15.4149 34.1206 15.2475 34.5232 14.9495 34.82C14.6515 35.1169 14.2474 35.2836 13.826 35.2836Z" fill="white"/>
<path d="M27.5809 19.1162C27.5971 19.0729 27.607 19.0248 27.607 18.975C27.607 18.7542 27.4296 18.5756 27.2116 18.5756C27.0441 18.5756 26.901 18.681 26.8436 18.8292C26.5799 19.6211 25.839 20.1923 24.9684 20.1923C24.2821 20.1923 23.6769 19.8367 23.3222 19.2996C23.4735 19.2908 23.6126 19.1947 23.67 19.0425C23.7477 18.8357 23.645 18.6042 23.4404 18.527L22.7007 18.2429C22.5228 18.1743 22.3252 18.2447 22.2266 18.4022C22.2127 18.4245 22.2005 18.4485 22.1912 18.4749L21.9101 19.2223C21.8319 19.4285 21.9351 19.6593 22.1391 19.7378C22.302 19.7999 22.4799 19.7472 22.5849 19.6182C23.0672 20.4401 23.9534 20.9925 24.9684 20.9925C26.1776 20.9913 27.2041 20.2081 27.5809 19.1162Z" fill="white"/>
<path d="M24.9104 15.8002C25.5962 15.8002 26.2007 16.1552 26.5561 16.6929C26.4048 16.7017 26.2651 16.7972 26.2089 16.95C26.1306 17.1562 26.2326 17.3876 26.4372 17.4649L27.1774 17.7496C27.2238 17.7672 27.2714 17.7754 27.3183 17.7754C27.4771 17.7748 27.6267 17.6776 27.687 17.5176L27.9681 16.7702C28.0458 16.5634 27.9432 16.3326 27.7386 16.2541C27.5763 16.1915 27.3983 16.2454 27.294 16.3742C26.8111 15.5518 25.9248 15 24.9105 15C23.7007 15 22.6741 15.7844 22.2974 16.8762C22.2811 16.9201 22.2713 16.9676 22.2713 17.0174C22.2713 17.2382 22.4486 17.4169 22.6672 17.4163C22.8341 17.4169 22.9773 17.3114 23.0347 17.1632C23.2984 16.3713 24.0392 15.8002 24.9104 15.8002Z" fill="white"/>
<path d="M20.4424 18.9323C20.0999 19.6311 19.3869 20.1126 18.5643 20.1126C17.4091 20.1126 16.4695 19.1625 16.4695 17.9951C16.4695 16.8282 17.4091 15.8781 18.5643 15.8781C19.3869 15.8781 20.0999 16.3596 20.4424 17.0585L21.1519 16.7023C20.6801 15.7405 19.6987 15.0786 18.5643 15.0786C16.9703 15.0786 15.6776 16.3842 15.6776 17.9951C15.6776 19.6065 16.9703 20.9122 18.5643 20.9122C19.6987 20.9122 20.6801 20.2503 21.1519 19.2885L20.4424 18.9323Z" fill="white"/>
<path d="M14.5792 18.1134H14.7693C14.7711 18.073 14.7722 18.032 14.7722 17.991C14.7722 16.3801 13.4796 15.0745 11.8867 15.0745C10.2921 15.0745 9 16.3801 9 17.991C9 19.6024 10.292 20.908 11.8867 20.908C13.1608 20.908 14.2436 20.0721 14.625 18.9129H13.7717C13.4321 19.62 12.7145 20.1079 11.8867 20.1079C10.7715 20.1079 9.8573 19.224 9.7947 18.1134H13.9775H14.5792V18.1134ZM11.8867 15.874C12.8072 15.874 13.5903 16.4779 13.8703 17.3144H9.90135C10.1819 16.4779 10.965 15.874 11.8867 15.874Z" fill="white"/>
</svg>
