<svg width="64" height="64" viewBox="0 0 64 64" fill="none" xmlns="http://www.w3.org/2000/svg">
<path d="M46.26 37.41C44.9291 38.6301 43.864 40.1113 43.1311 41.7613C42.3982 43.4113 42.0131 45.1946 42 47H22C21.9951 45.1981 21.6156 43.4169 20.8857 41.7694C20.1558 40.122 19.0914 38.6442 17.76 37.43C3.99996 24.76 12.63 2.00001 30.87 1.00001C50.54 9.59635e-06 60.56 24.21 46.26 37.41Z" fill="url(#paint0_linear)"/>
<path d="M42.3699 44C42.1258 44.9814 42.0015 45.9887 41.9999 47H21.9999C22.001 45.9892 21.8801 44.9819 21.6399 44H42.3699Z" fill="#F6B756"/>
<path d="M18 18H21C23.9174 18 26.7153 19.1589 28.7782 21.2218C30.8411 23.2847 32 26.0826 32 29V30H29C26.0826 30 23.2847 28.8411 21.2218 26.7782C19.1589 24.7153 18 21.9174 18 19V18Z" fill="url(#paint1_linear)"/>
<path d="M35 33H32V32C32 29.0826 33.1589 26.2847 35.2218 24.2218C37.2847 22.1589 40.0826 21 43 21H46V22C46 24.9174 44.8411 27.7153 42.7782 29.7782C40.7153 31.8411 37.9174 33 35 33Z" fill="url(#paint2_linear)"/>
<path d="M32.0001 30H29.0001C26.0913 30 23.301 28.848 21.2395 26.7959C19.178 24.7438 18.0133 21.9587 18.0001 19.05C18.0001 17.92 17.9401 18 18.0001 18C18.2368 20.746 19.5012 23.3014 21.5406 25.1554C23.58 27.0094 26.244 28.0253 29.0001 28H32.0001C32.0357 28.6662 32.0357 29.3338 32.0001 30Z" fill="#7ECE67"/>
<path d="M46 22.05C46 24.9674 44.8411 27.7653 42.7782 29.8282C40.7153 31.8911 37.9174 33.05 35 33.05H32C32 32.05 32 31.58 32 31.05H35C37.764 31.0743 40.4347 30.0515 42.4753 28.1871C44.516 26.3227 45.7752 23.7549 46 21C46.06 21 46 20.92 46 22.05Z" fill="#7ECE67"/>
<path d="M31 47V30C31 29.7348 31.1054 29.4804 31.2929 29.2929C31.4804 29.1054 31.7348 29 32 29C32.2652 29 32.5196 29.1054 32.7071 29.2929C32.8946 29.4804 33 29.7348 33 30V47C33 47.2652 32.8946 47.5196 32.7071 47.7071C32.5196 47.8946 32.2652 48 32 48C31.7348 48 31.4804 47.8946 31.2929 47.7071C31.1054 47.5196 31 47.2652 31 47Z" fill="url(#paint3_linear)"/>
<path d="M32 31C31.47 31 32 31.37 23.34 23.75C23.1542 23.5715 23.0444 23.3282 23.0336 23.0707C23.0228 22.8133 23.1118 22.5616 23.282 22.3682C23.4522 22.1747 23.6905 22.0545 23.9473 22.0325C24.204 22.0105 24.4593 22.0884 24.66 22.25L32.66 29.25C32.8122 29.3843 32.92 29.5617 32.969 29.7587C33.018 29.9557 33.0059 30.163 32.9342 30.3529C32.8626 30.5428 32.7348 30.7065 32.568 30.8221C32.4011 30.9377 32.203 30.9997 32 31Z" fill="url(#paint4_linear)"/>
<path d="M32 34C31.797 33.9997 31.5989 33.9377 31.4321 33.8221C31.2652 33.7065 31.1374 33.5428 31.0658 33.3529C30.9942 33.163 30.982 32.9557 31.031 32.7587C31.08 32.5617 31.1878 32.3843 31.34 32.25L39.34 25.25C39.5407 25.0884 39.796 25.0105 40.0527 25.0325C40.3095 25.0545 40.5478 25.1747 40.718 25.3682C40.8882 25.5616 40.9772 25.8133 40.9664 26.0707C40.9556 26.3282 40.8459 26.5715 40.66 26.75C32 34.34 32.53 34 32 34Z" fill="url(#paint5_linear)"/>
<path d="M22 47H42V55C42 56.0609 41.5786 57.0783 40.8284 57.8284C40.0783 58.5786 39.0609 59 38 59H26C24.9391 59 23.9217 58.5786 23.1716 57.8284C22.4214 57.0783 22 56.0609 22 55V47Z" fill="url(#paint6_linear)"/>
<path d="M32 63C31.2044 63 30.4413 62.6839 29.8787 62.1213C29.3161 61.5587 29 60.7956 29 60V59H35V60C35 60.7956 34.6839 61.5587 34.1213 62.1213C33.5587 62.6839 32.7956 63 32 63Z" fill="#8288A1"/>
<path d="M41.9999 53.0001L21.8999 51.0001C21.6346 50.9736 21.3908 50.8428 21.222 50.6365C21.0533 50.4302 20.9733 50.1653 20.9999 49.9001C21.0264 49.6349 21.1572 49.3911 21.3635 49.2223C21.5698 49.0535 21.8346 48.9736 22.0999 49.0001L42.0999 51.0001C42.2312 51.0067 42.3599 51.039 42.4787 51.0954C42.5976 51.1517 42.7041 51.2309 42.7923 51.3284C42.8805 51.4259 42.9487 51.5398 42.9929 51.6636C43.0371 51.7875 43.0564 51.9188 43.0499 52.0501C43.0433 52.1814 43.0109 52.3102 42.9546 52.429C42.8983 52.5478 42.8191 52.6544 42.7216 52.7426C42.6241 52.8308 42.5102 52.8989 42.3864 52.9431C42.2625 52.9873 42.1312 53.0067 41.9999 53.0001Z" fill="#8288A1"/>
<path d="M41.9999 57.0001L21.8999 55.0001C21.6346 54.9736 21.3908 54.8428 21.222 54.6365C21.0533 54.4302 20.9733 54.1653 20.9999 53.9001C21.0264 53.6349 21.1572 53.3911 21.3635 53.2223C21.5698 53.0535 21.8346 52.9736 22.0999 53.0001L42.0999 55.0001C42.2312 55.0067 42.3599 55.039 42.4787 55.0954C42.5976 55.1517 42.7041 55.2309 42.7923 55.3284C42.8805 55.4259 42.9487 55.5398 42.9929 55.6636C43.0371 55.7875 43.0564 55.9188 43.0499 56.0501C43.0433 56.1814 43.0109 56.3102 42.9546 56.429C42.8983 56.5478 42.8191 56.6544 42.7216 56.7426C42.6241 56.8308 42.5102 56.8989 42.3864 56.9431C42.2625 56.9873 42.1312 57.0067 41.9999 57.0001Z" fill="#8288A1"/>
<defs>
<linearGradient id="paint0_linear" x1="32" y1="47" x2="32" y2="1.00001" gradientUnits="userSpaceOnUse">
<stop stop-color="#FBCC88"/>
<stop offset="1" stop-color="#FFE5C3"/>
</linearGradient>
<linearGradient id="paint1_linear" x1="25" y1="30" x2="25" y2="18" gradientUnits="userSpaceOnUse">
<stop stop-color="#8CDD79"/>
<stop offset="1" stop-color="#D4E6B6"/>
</linearGradient>
<linearGradient id="paint2_linear" x1="578" y1="417" x2="578" y2="273" gradientUnits="userSpaceOnUse">
<stop stop-color="#8CDD79"/>
<stop offset="1" stop-color="#D4E6B6"/>
</linearGradient>
<linearGradient id="paint3_linear" x1="32" y1="47.99" x2="32" y2="29.01" gradientUnits="userSpaceOnUse">
<stop stop-color="#6AB891"/>
<stop offset="1" stop-color="#85CBA9"/>
</linearGradient>
<linearGradient id="paint4_linear" x1="252.147" y1="259.753" x2="351.905" y2="259.753" gradientUnits="userSpaceOnUse">
<stop stop-color="#6AB891"/>
<stop offset="1" stop-color="#85CBA9"/>
</linearGradient>
<linearGradient id="paint5_linear" x1="339.942" y1="289.657" x2="439.701" y2="289.657" gradientUnits="userSpaceOnUse">
<stop stop-color="#6AB891"/>
<stop offset="1" stop-color="#85CBA9"/>
</linearGradient>
<linearGradient id="paint6_linear" x1="32" y1="59" x2="32" y2="47" gradientUnits="userSpaceOnUse">
<stop stop-color="#949AAF"/>
<stop offset="1" stop-color="#C6CCDA"/>
</linearGradient>
</defs>
</svg>
