<svg xmlns="http://www.w3.org/2000/svg" width="68" height="52" fill="none" viewBox="0 0 68 52"><path fill="url(#paint0_linear)" d="M62.4375 4.125V44.5938H41.6562L40.5625 45.6875H27.4375L26.3438 44.5938H5.5625V4.125C5.5625 3.25476 5.9082 2.42016 6.52356 1.80481C7.13891 1.18945 7.97351 0.84375 8.84375 0.84375H59.1562C60.0265 0.84375 60.8611 1.18945 61.4764 1.80481C62.0918 2.42016 62.4375 3.25476 62.4375 4.125Z"/><path fill="#8288A1" d="M62.4375 42.4062V44.5938H41.6562L40.5625 45.6875H27.4375L26.3438 44.5938H5.5625V42.4062H27.2516L28.3453 43.5H39.6547L40.7484 42.4062H62.4375Z"/><path fill="url(#paint1_linear)" d="M67.9062 44.5938V48.9688L61.3438 51.1562H6.65625L0.09375 48.9688V44.5938H26.3438L27.4375 45.6875H40.5625L41.6562 44.5938H67.9062Z"/><path fill="#8288A1" d="M67.9062 46.7812V48.9688L61.3438 51.1562H6.65625L0.09375 48.9688V46.7812L6.65625 48.9688H61.3438L67.9062 46.7812Z"/><path fill="url(#paint2_linear)" d="M58.0625 5.21875H9.9375V40.2188H58.0625V5.21875Z"/><path fill="#C7CDD8" d="M58.0625 38.0312H9.9375V40.2188H58.0625V38.0312Z"/><path fill="#DFE3EA" d="M58.0625 5.21875H9.9375V7.40625H58.0625V5.21875Z"/><path fill="url(#paint3_linear)" d="M16.5 11.7812H22.3953C25.4731 11.7812 28.4248 13.0039 30.6011 15.1802C32.7774 17.3565 34 20.3082 34 23.3859V25.5734H28.1047C25.0269 25.5734 22.0752 24.3508 19.8989 22.1745C17.7226 19.9982 16.5 17.0465 16.5 13.9687V11.7812Z"/><path fill="url(#paint4_linear)" d="M39.8953 28.1875H34V26C33.9971 24.4742 34.2951 22.9628 34.877 21.5524C35.459 20.1419 36.3133 18.86 37.3912 17.7801C38.4691 16.7002 39.7493 15.8434 41.1587 15.2589C42.5681 14.6743 44.0789 14.3734 45.6047 14.3734H51.5V16.5609C51.5029 18.0867 51.2048 19.5981 50.6229 21.0086C50.041 22.4191 49.1867 23.7009 48.1088 24.7808C47.0309 25.8607 45.7506 26.7175 44.3413 27.3021C42.9319 27.8866 41.4211 28.1875 39.8953 28.1875Z"/><path fill="#7ECE67" d="M34 23.4078V25.5953H28.1047C26.5789 25.5953 25.0681 25.2944 23.6587 24.7099C22.2494 24.1253 20.9691 23.2686 19.8912 22.1886C18.8133 21.1087 17.959 19.8269 17.3771 18.4164C16.7952 17.0059 16.4971 15.4945 16.5 13.9687V11.7812C16.4971 13.307 16.7952 14.8184 17.3771 16.2289C17.959 17.6394 18.8133 18.9212 19.8912 20.0011C20.9691 21.0811 22.2494 21.9378 23.6587 22.5224C25.0681 23.1069 26.5789 23.4078 28.1047 23.4078H34Z"/><path fill="#7ECE67" d="M51.5 14.3953V16.5828C51.5 19.6605 50.2774 22.6122 48.1011 24.7885C45.9248 26.9648 42.9731 28.1875 39.8953 28.1875H34V26H39.8953C42.9731 26 45.9248 24.7773 48.1011 22.601C50.2774 20.4247 51.5 17.473 51.5 14.3953Z"/><path fill="url(#paint5_linear)" d="M45.4297 19.5578C45.4297 19.8478 45.3145 20.126 45.1093 20.3312C44.9042 20.5363 44.626 20.6515 44.3359 20.6515C40.4422 20.6515 36.4719 26.1203 35.0937 28.4828V40.2187H32.9062C32.9062 28.3843 33.4641 26.3937 31.3859 23.6156C29.8547 21.5375 26.8141 18.0593 23.6641 18.0593C23.374 18.0593 23.0958 17.9441 22.8907 17.739C22.6855 17.5339 22.5703 17.2557 22.5703 16.9656C22.5703 16.6755 22.6855 16.3973 22.8907 16.1922C23.0958 15.9871 23.374 15.8718 23.6641 15.8718C28.2141 15.8718 33.5078 21.5046 34.6016 25.2125C39.6656 18.1906 45.4297 17.25 45.4297 19.5578Z"/><path fill="#4DA67F" d="M35.0938 38.0312H32.9062V40.2188H35.0938V38.0312Z"/><defs><linearGradient id="paint0_linear" x1="34" x2="34" y1="45.688" y2=".844" gradientUnits="userSpaceOnUse"><stop stop-color="#949AAF"/><stop offset="1" stop-color="#C6CCDA"/></linearGradient><linearGradient id="paint1_linear" x1=".094" x2=".746" y1="405.531" y2="365.073" gradientUnits="userSpaceOnUse"><stop stop-color="#949AAF"/><stop offset="1" stop-color="#C6CCDA"/></linearGradient><linearGradient id="paint2_linear" x1="34" x2="34" y1="40.219" y2="5.219" gradientUnits="userSpaceOnUse"><stop stop-color="#D4D8E1"/><stop offset="1" stop-color="#F3F4F5"/></linearGradient><linearGradient id="paint3_linear" x1="25.25" x2="25.25" y1="25.595" y2="11.781" gradientUnits="userSpaceOnUse"><stop stop-color="#8CDD79"/><stop offset="1" stop-color="#D4E6B6"/></linearGradient><linearGradient id="paint4_linear" x1="734.002" x2="734.002" y1="484.052" y2="309.58" gradientUnits="userSpaceOnUse"><stop stop-color="#8CDD79"/><stop offset="1" stop-color="#D4E6B6"/></linearGradient><linearGradient id="paint5_linear" x1="34" x2="34" y1="40.219" y2="15.872" gradientUnits="userSpaceOnUse"><stop stop-color="#6AB891"/><stop offset="1" stop-color="#85CBA9"/></linearGradient></defs></svg>