<svg xmlns="http://www.w3.org/2000/svg" width="65" height="65" fill="none" viewBox="0 0 65 65"><path fill="#FFD33A" d="M22.3438 39.6094V19.2326C22.3438 18.9349 22.2783 18.6407 22.152 18.371C22.0257 18.1014 21.8416 17.8628 21.6129 17.6721L16.25 13.2031H10.1562L4.79337 17.6719C4.56457 17.8625 4.38051 18.1012 4.2542 18.3709C4.1279 18.6406 4.06245 18.9348 4.0625 19.2326V39.6094C4.0625 40.1481 4.27651 40.6648 4.65744 41.0457C5.03837 41.4266 5.55503 41.6406 6.09375 41.6406C5.55503 41.6406 5.03837 41.8546 4.65744 42.2356C4.27651 42.6165 4.0625 43.1332 4.0625 43.6719C4.0625 44.2106 4.27651 44.7273 4.65744 45.1082C5.03837 45.4891 5.55503 45.7031 6.09375 45.7031C5.55503 45.7031 5.03837 45.9171 4.65744 46.2981C4.27651 46.679 4.0625 47.1957 4.0625 47.7344C4.0625 48.2731 4.27651 48.7898 4.65744 49.1707C5.03837 49.5516 5.55503 49.7656 6.09375 49.7656C5.55503 49.7656 5.03837 49.9796 4.65744 50.3606C4.27651 50.7415 4.0625 51.2582 4.0625 51.7969C4.0625 52.3356 4.27651 52.8523 4.65744 53.2332C5.03837 53.6141 5.55503 53.8281 6.09375 53.8281C5.55503 53.8281 5.03837 54.0421 4.65744 54.4231C4.27651 54.804 4.0625 55.3207 4.0625 55.8594V57.8906C4.0625 58.9681 4.49051 60.0014 5.25238 60.7632C6.01425 61.5251 7.04756 61.9531 8.125 61.9531H18.2812C19.3587 61.9531 20.392 61.5251 21.1539 60.7632C21.9157 60.0014 22.3438 58.9681 22.3438 57.8906V55.8594C22.3438 55.3207 22.1297 54.804 21.7488 54.4231C21.3679 54.0421 20.8512 53.8281 20.3125 53.8281C20.8512 53.8281 21.3679 53.6141 21.7488 53.2332C22.1297 52.8523 22.3438 52.3356 22.3438 51.7969C22.3438 51.2582 22.1297 50.7415 21.7488 50.3606C21.3679 49.9796 20.8512 49.7656 20.3125 49.7656C20.8512 49.7656 21.3679 49.5516 21.7488 49.1707C22.1297 48.7898 22.3438 48.2731 22.3438 47.7344C22.3438 47.1957 22.1297 46.679 21.7488 46.2981C21.3679 45.9171 20.8512 45.7031 20.3125 45.7031C20.8512 45.7031 21.3679 45.4891 21.7488 45.1082C22.1297 44.7273 22.3438 44.2106 22.3438 43.6719C22.3438 43.1332 22.1297 42.6165 21.7488 42.2356C21.3679 41.8546 20.8512 41.6406 20.3125 41.6406C20.8512 41.6406 21.3679 41.4266 21.7488 41.0457C22.1297 40.6648 22.3438 40.1481 22.3438 39.6094Z"/><path fill="#FFD33A" d="M60.9375 27.4219V21.0605C60.9375 20.7024 60.8428 20.3507 60.6631 20.041C60.4833 19.7312 60.2249 19.4745 59.914 19.2969L46.7188 13.2031H40.625L27.4297 19.2969C27.1188 19.4745 26.8604 19.7312 26.6807 20.041C26.5009 20.3507 26.4063 20.7024 26.4062 21.0605V27.4219C26.4062 27.9606 26.6203 28.4773 27.0012 28.8582C27.3821 29.2391 27.8988 29.4531 28.4375 29.4531C27.8988 29.4531 27.3821 29.6671 27.0012 30.0481C26.6203 30.429 26.4062 30.9457 26.4062 31.4844C26.4062 32.0231 26.6203 32.5398 27.0012 32.9207C27.3821 33.3016 27.8988 33.5156 28.4375 33.5156C27.8988 33.5156 27.3821 33.7296 27.0012 34.1106C26.6203 34.4915 26.4062 35.0082 26.4062 35.5469C26.4062 36.0856 26.6203 36.6023 27.0012 36.9832C27.3821 37.3641 27.8988 37.5781 28.4375 37.5781C27.8988 37.5781 27.3821 37.7921 27.0012 38.1731C26.6203 38.554 26.4062 39.0707 26.4062 39.6094C26.4062 40.1481 26.6203 40.6648 27.0012 41.0457C27.3821 41.4266 27.8988 41.6406 28.4375 41.6406C27.8988 41.6406 27.3821 41.8546 27.0012 42.2356C26.6203 42.6165 26.4062 43.1332 26.4062 43.6719C26.4062 44.2106 26.6203 44.7273 27.0012 45.1082C27.3821 45.4891 27.8988 45.7031 28.4375 45.7031C27.8988 45.7031 27.3821 45.9171 27.0012 46.2981C26.6203 46.679 26.4062 47.1957 26.4062 47.7344C26.4062 48.2731 26.6203 48.7898 27.0012 49.1707C27.3821 49.5516 27.8988 49.7656 28.4375 49.7656C27.8988 49.7656 27.3821 49.9796 27.0012 50.3606C26.6203 50.7415 26.4062 51.2582 26.4062 51.7969C26.4062 52.3356 26.6203 52.8523 27.0012 53.2332C27.3821 53.6141 27.8988 53.8281 28.4375 53.8281C27.8988 53.8281 27.3821 54.0421 27.0012 54.4231C26.6203 54.804 26.4062 55.3207 26.4062 55.8594V57.8906C26.4062 58.9681 26.8343 60.0014 27.5961 60.7632C28.358 61.5251 29.3913 61.9531 30.4688 61.9531H56.875C57.9524 61.9531 58.9858 61.5251 59.7476 60.7632C60.5095 60.0014 60.9375 58.9681 60.9375 57.8906V55.8594C60.9375 55.3207 60.7235 54.804 60.3426 54.4231C59.9616 54.0421 59.445 53.8281 58.9062 53.8281C59.445 53.8281 59.9616 53.6141 60.3426 53.2332C60.7235 52.8523 60.9375 52.3356 60.9375 51.7969C60.9375 51.2582 60.7235 50.7415 60.3426 50.3606C59.9616 49.9796 59.445 49.7656 58.9062 49.7656C59.445 49.7656 59.9616 49.5516 60.3426 49.1707C60.7235 48.7898 60.9375 48.2731 60.9375 47.7344C60.9375 47.1957 60.7235 46.679 60.3426 46.2981C59.9616 45.9171 59.445 45.7031 58.9062 45.7031C59.445 45.7031 59.9616 45.4891 60.3426 45.1082C60.7235 44.7273 60.9375 44.2106 60.9375 43.6719C60.9375 43.1332 60.7235 42.6165 60.3426 42.2356C59.9616 41.8546 59.445 41.6406 58.9062 41.6406C59.445 41.6406 59.9616 41.4266 60.3426 41.0457C60.7235 40.6648 60.9375 40.1481 60.9375 39.6094C60.9375 39.0707 60.7235 38.554 60.3426 38.1731C59.9616 37.7921 59.445 37.5781 58.9062 37.5781C59.445 37.5781 59.9616 37.3641 60.3426 36.9832C60.7235 36.6023 60.9375 36.0856 60.9375 35.5469C60.9375 35.0082 60.7235 34.4915 60.3426 34.1106C59.9616 33.7296 59.445 33.5156 58.9062 33.5156C59.445 33.5156 59.9616 33.3016 60.3426 32.9207C60.7235 32.5398 60.9375 32.0231 60.9375 31.4844C60.9375 30.9457 60.7235 30.429 60.3426 30.0481C59.9616 29.6671 59.445 29.4531 58.9062 29.4531C59.445 29.4531 59.9616 29.2391 60.3426 28.8582C60.7235 28.4773 60.9375 27.9606 60.9375 27.4219Z"/><path fill="#EA9F26" d="M11.1719 3.04688H15.2344C15.7731 3.04688 16.2898 3.26088 16.6707 3.64181C17.0516 4.02275 17.2656 4.5394 17.2656 5.07812V9.14062H9.14062V5.07812C9.14062 4.5394 9.35463 4.02275 9.73556 3.64181C10.1165 3.26088 10.6332 3.04688 11.1719 3.04688Z"/><path fill="#F2C837" d="M10.1562 9.14062H16.25V13.2031H10.1562V9.14062Z"/><path fill="#EA9F26" d="M4.0625 21.3281H22.3438V37.5781H4.0625V21.3281Z"/><path fill="#F2C837" d="M13.2031 25.3906L12.4618 26.7084C11.9556 27.6085 11.1719 28.4375 10.691 29.2779C10.4178 29.7554 10.1562 30.2391 10.1562 30.8073C10.1562 32.3474 11.4521 33.5876 13.2031 33.5125C14.9542 33.5872 16.25 32.3474 16.25 30.8073C16.25 30.2391 15.9885 29.7554 15.7153 29.2779C15.2344 28.4375 14.4507 27.6085 13.9444 26.7084L13.2031 25.3906Z"/><path fill="#EA9F26" d="M41.6406 3.04688H45.7031C46.2418 3.04688 46.7585 3.26088 47.1394 3.64181C47.5204 4.02275 47.7344 4.5394 47.7344 5.07812V9.14062H39.6094V5.07812C39.6094 4.5394 39.8234 4.02275 40.2043 3.64181C40.5852 3.26088 41.1019 3.04688 41.6406 3.04688Z"/><path fill="#F2C837" d="M40.625 9.14062H46.7188V13.2031H40.625V9.14062Z"/><path fill="#EA9F26" d="M30.4688 28.4375H56.875V46.7188H30.4688V28.4375Z"/><path fill="#F2C837" d="M43.6719 33.5156L42.9306 34.8334C42.4243 35.7335 41.6406 36.5625 41.1597 37.4029C40.8865 37.8804 40.625 38.3641 40.625 38.9323C40.625 40.4724 41.9208 41.7126 43.6719 41.6375C45.4229 41.7122 46.7188 40.4724 46.7188 38.9323C46.7188 38.3641 46.4572 37.8804 46.184 37.4029C45.7031 36.5625 44.9194 35.7335 44.4132 34.8334L43.6719 33.5156Z"/><path fill="#313031" d="M3.04688 57.8906C3.04839 59.237 3.58389 60.5277 4.5359 61.4797C5.4879 62.4317 6.77866 62.9672 8.125 62.9688H18.2813C19.6276 62.9672 20.9184 62.4317 21.8704 61.4797C22.8224 60.5277 23.3579 59.237 23.3594 57.8906V55.8594C23.3599 55.1094 23.0826 54.3857 22.581 53.8281C23.0822 53.2702 23.3594 52.5468 23.3594 51.7969C23.3594 51.047 23.0822 50.3235 22.581 49.7656C23.0822 49.2077 23.3594 48.4843 23.3594 47.7344C23.3594 46.9845 23.0822 46.261 22.581 45.7031C23.0822 45.1452 23.3594 44.4218 23.3594 43.6719C23.3594 42.922 23.0822 42.1985 22.581 41.6406C23.0826 41.083 23.3599 40.3594 23.3594 39.6094V19.2326C23.3599 18.7859 23.262 18.3445 23.0725 17.94C22.883 17.5354 22.6067 17.1776 22.2631 16.892L17.2656 12.7274V10.1562C17.535 10.1562 17.7933 10.0492 17.9838 9.85878C18.1742 9.66831 18.2813 9.40999 18.2813 9.14062V5.07812C18.2803 4.27033 17.959 3.49589 17.3878 2.9247C16.8166 2.3535 16.0422 2.03219 15.2344 2.03125H11.1719C10.3641 2.03219 9.58965 2.3535 9.01845 2.9247C8.44725 3.49589 8.12594 4.27033 8.125 5.07812V9.14062C8.125 9.40999 8.23201 9.66831 8.42247 9.85878C8.61294 10.0492 8.87127 10.1562 9.14063 10.1562V12.7274L4.14312 16.8915C3.79951 17.1771 3.52313 17.535 3.33365 17.9397C3.14416 18.3443 3.04625 18.7858 3.04688 19.2326V39.6094C3.04636 40.3594 3.32365 41.083 3.82523 41.6406C3.32409 42.1985 3.04688 42.922 3.04688 43.6719C3.04688 44.4218 3.32409 45.1452 3.82523 45.7031C3.32409 46.261 3.04688 46.9845 3.04688 47.7344C3.04688 48.4843 3.32409 49.2077 3.82523 49.7656C3.32409 50.3235 3.04688 51.047 3.04688 51.7969C3.04688 52.5468 3.32409 53.2702 3.82523 53.8281C3.32365 54.3857 3.04636 55.1094 3.04688 55.8594V57.8906ZM10.1563 5.07812C10.1566 4.80886 10.2637 4.5507 10.4541 4.3603C10.6445 4.1699 10.9026 4.0628 11.1719 4.0625H15.2344C15.5036 4.0628 15.7618 4.1699 15.9522 4.3603C16.1426 4.5507 16.2497 4.80886 16.25 5.07812V8.125H10.1563V5.07812ZM15.2344 10.1562V12.1875H11.1719V10.1562H15.2344ZM5.07813 19.2326C5.07792 19.0837 5.11056 18.9366 5.17371 18.8017C5.23687 18.6669 5.32898 18.5476 5.4435 18.4524L10.5244 14.2188H15.8818L20.9621 18.4524C21.0768 18.5475 21.169 18.6668 21.2323 18.8016C21.2955 18.9365 21.3283 19.0837 21.3281 19.2326V20.3125H5.07813V19.2326ZM5.07813 22.3438H21.3281V36.5625H5.07813V22.3438ZM5.07813 38.5938H21.3281V39.6094C21.3278 39.8786 21.2207 40.1368 21.0303 40.3272C20.8399 40.5176 20.5818 40.6247 20.3125 40.625H6.09375C5.82448 40.6247 5.56633 40.5176 5.37593 40.3272C5.18553 40.1368 5.07843 39.8786 5.07813 39.6094V38.5938ZM6.09375 42.6562H20.3125C20.5819 42.6562 20.8402 42.7633 21.0307 42.9537C21.2211 43.1442 21.3281 43.4025 21.3281 43.6719C21.3281 43.9412 21.2211 44.1996 21.0307 44.39C20.8402 44.5805 20.5819 44.6875 20.3125 44.6875H6.09375C5.82439 44.6875 5.56606 44.5805 5.3756 44.39C5.18513 44.1996 5.07813 43.9412 5.07813 43.6719C5.07813 43.4025 5.18513 43.1442 5.3756 42.9537C5.56606 42.7633 5.82439 42.6562 6.09375 42.6562ZM6.09375 46.7188H20.3125C20.5819 46.7188 20.8402 46.8258 21.0307 47.0162C21.2211 47.2067 21.3281 47.465 21.3281 47.7344C21.3281 48.0037 21.2211 48.2621 21.0307 48.4525C20.8402 48.643 20.5819 48.75 20.3125 48.75H6.09375C5.82439 48.75 5.56606 48.643 5.3756 48.4525C5.18513 48.2621 5.07813 48.0037 5.07813 47.7344C5.07813 47.465 5.18513 47.2067 5.3756 47.0162C5.56606 46.8258 5.82439 46.7188 6.09375 46.7188ZM6.09375 50.7812H20.3125C20.5819 50.7812 20.8402 50.8883 21.0307 51.0787C21.2211 51.2692 21.3281 51.5275 21.3281 51.7969C21.3281 52.0662 21.2211 52.3246 21.0307 52.515C20.8402 52.7055 20.5819 52.8125 20.3125 52.8125H6.09375C5.82439 52.8125 5.56606 52.7055 5.3756 52.515C5.18513 52.3246 5.07813 52.0662 5.07813 51.7969C5.07813 51.5275 5.18513 51.2692 5.3756 51.0787C5.56606 50.8883 5.82439 50.7812 6.09375 50.7812ZM5.07813 55.8594C5.07843 55.5901 5.18553 55.332 5.37593 55.1416C5.56633 54.9512 5.82448 54.8441 6.09375 54.8438H20.3125C20.5818 54.8441 20.8399 54.9512 21.0303 55.1416C21.2207 55.332 21.3278 55.5901 21.3281 55.8594V57.8906C21.3272 58.6984 21.0059 59.4729 20.4347 60.0441C19.8635 60.6153 19.0891 60.9366 18.2813 60.9375H8.125C7.3172 60.9366 6.54274 60.6153 5.97154 60.0441C5.40034 59.4729 5.07903 58.6984 5.07813 57.8906V55.8594Z"/><path fill="#313031" d="M15.6801 27.4438C15.3704 27.0514 15.0863 26.6395 14.8295 26.2106L14.0883 24.8928C13.9999 24.7357 13.8714 24.6049 13.7158 24.514C13.5602 24.423 13.3833 24.375 13.203 24.375C13.0228 24.375 12.8458 24.423 12.6902 24.514C12.5347 24.6049 12.4061 24.7357 12.3178 24.8928L11.5765 26.2106C11.3198 26.6395 11.0356 27.0514 10.7259 27.4438C10.3933 27.8677 10.0871 28.3119 9.80932 28.7736C9.52723 29.267 9.14065 29.9426 9.14065 30.8074C9.1387 31.3013 9.23764 31.7905 9.43143 32.2448C9.62522 32.6991 9.90976 33.1091 10.2676 33.4496C10.6596 33.817 11.1215 34.102 11.6258 34.2874C12.1301 34.4728 12.6665 34.5549 13.2032 34.5288C13.2539 34.5304 13.3044 34.5312 13.3545 34.5313C14.3879 34.5462 15.3865 34.1582 16.1387 33.4496C16.4965 33.1091 16.7811 32.6991 16.9749 32.2448C17.1687 31.7905 17.2676 31.3013 17.2656 30.8074C17.2656 29.9426 16.8791 29.267 16.5967 28.7736C16.3189 28.3119 16.0128 27.8677 15.6801 27.4438ZM14.7333 31.983C14.5336 32.1655 14.2987 32.3053 14.0431 32.3938C13.7874 32.4823 13.5164 32.5177 13.2466 32.4977C13.2321 32.4972 13.2176 32.4969 13.2032 32.4969C13.1887 32.4969 13.1742 32.4972 13.1597 32.4977C12.8899 32.5177 12.6189 32.4824 12.3632 32.3939C12.1075 32.3054 11.8727 32.1655 11.673 31.983C11.5138 31.8315 11.3873 31.6491 11.3011 31.4469C11.215 31.2448 11.171 31.0272 11.1719 30.8074C11.1719 30.5065 11.3456 30.1792 11.5726 29.7824C11.8092 29.3946 12.0687 29.0213 12.3498 28.6644C12.641 28.2771 12.9405 27.8789 13.2032 27.451C13.4658 27.8789 13.7653 28.2771 14.0565 28.6644C14.3376 29.0213 14.5971 29.3946 14.8337 29.7824C15.0607 30.1792 15.2344 30.506 15.2344 30.8074C15.2353 31.0272 15.1913 31.2448 15.1052 31.4469C15.019 31.6491 14.8925 31.8315 14.7333 31.983Z"/><path fill="#313031" d="M25.3906 57.8906C25.3921 59.237 25.9276 60.5277 26.8796 61.4797C27.8316 62.4317 29.1224 62.9672 30.4688 62.9688H56.875C58.2213 62.9672 59.5121 62.4317 60.4641 61.4797C61.4161 60.5277 61.9516 59.237 61.9531 57.8906V55.8594C61.9536 55.1094 61.6764 54.3857 61.1748 53.8281C61.6759 53.2702 61.9531 52.5468 61.9531 51.7969C61.9531 51.047 61.6759 50.3235 61.1748 49.7656C61.6759 49.2077 61.9531 48.4843 61.9531 47.7344C61.9531 46.9845 61.6759 46.261 61.1748 45.7031C61.6759 45.1452 61.9531 44.4218 61.9531 43.6719C61.9531 42.922 61.6759 42.1985 61.1748 41.6406C61.6759 41.0827 61.9531 40.3593 61.9531 39.6094C61.9531 38.8595 61.6759 38.136 61.1748 37.5781C61.6759 37.0202 61.9531 36.2968 61.9531 35.5469C61.9531 34.797 61.6759 34.0735 61.1748 33.5156C61.6759 32.9577 61.9531 32.2343 61.9531 31.4844C61.9531 30.7345 61.6759 30.011 61.1748 29.4531C61.6764 28.8955 61.9536 28.1719 61.9531 27.4219V21.0605C61.9524 20.5235 61.8102 19.9962 61.5406 19.5317C61.2711 19.0672 60.8838 18.6821 60.4179 18.4151C60.3925 18.4005 60.3671 18.3871 60.3399 18.3748L47.7344 12.5535V10.1562C48.0037 10.1562 48.2621 10.0492 48.4525 9.85878C48.643 9.66831 48.75 9.40999 48.75 9.14062V5.07812C48.7491 4.27033 48.4277 3.49589 47.8566 2.9247C47.2854 2.3535 46.5109 2.03219 45.7031 2.03125H41.6406C40.8328 2.03219 40.0584 2.3535 39.4872 2.9247C38.916 3.49589 38.5947 4.27033 38.5938 5.07812V9.14062C38.5938 9.40999 38.7008 9.66831 38.8912 9.85878C39.0817 10.0492 39.34 10.1562 39.6094 10.1562V12.5535L27.0039 18.3748C26.9774 18.3875 26.9513 18.4002 26.9259 18.4151C26.4599 18.6821 26.0727 19.0672 25.8031 19.5317C25.5336 19.9962 25.3913 20.5235 25.3906 21.0605V27.4219C25.3901 28.1719 25.6674 28.8955 26.169 29.4531C25.6678 30.011 25.3906 30.7345 25.3906 31.4844C25.3906 32.2343 25.6678 32.9577 26.169 33.5156C25.6678 34.0735 25.3906 34.797 25.3906 35.5469C25.3906 36.2968 25.6678 37.0202 26.169 37.5781C25.6678 38.136 25.3906 38.8595 25.3906 39.6094C25.3906 40.3593 25.6678 41.0827 26.169 41.6406C25.6678 42.1985 25.3906 42.922 25.3906 43.6719C25.3906 44.4218 25.6678 45.1452 26.169 45.7031C25.6678 46.261 25.3906 46.9845 25.3906 47.7344C25.3906 48.4843 25.6678 49.2077 26.169 49.7656C25.6678 50.3235 25.3906 51.047 25.3906 51.7969C25.3906 52.5468 25.6678 53.2702 26.169 53.8281C25.6674 54.3857 25.3901 55.1094 25.3906 55.8594V57.8906ZM58.9062 40.625H57.8906V38.5938H58.9062C59.1756 38.5938 59.4339 38.7008 59.6244 38.8912C59.8149 39.0817 59.9219 39.34 59.9219 39.6094C59.9219 39.8787 59.8149 40.1371 59.6244 40.3275C59.4339 40.518 59.1756 40.625 58.9062 40.625ZM59.9219 43.6719C59.9216 43.9411 59.8145 44.1993 59.6241 44.3897C59.4337 44.5801 59.1755 44.6872 58.9062 44.6875H57.8906V42.6562H58.9062C59.1755 42.6566 59.4337 42.7637 59.6241 42.9541C59.8145 43.1445 59.9216 43.4026 59.9219 43.6719ZM58.9062 36.5625H57.8906V34.5312H58.9062C59.1756 34.5312 59.4339 34.6383 59.6244 34.8287C59.8149 35.0192 59.9219 35.2775 59.9219 35.5469C59.9219 35.8162 59.8149 36.0746 59.6244 36.265C59.4339 36.4555 59.1756 36.5625 58.9062 36.5625ZM58.9062 32.5H57.8906V30.4688H58.9062C59.1756 30.4688 59.4339 30.5758 59.6244 30.7662C59.8149 30.9567 59.9219 31.215 59.9219 31.4844C59.9219 31.7537 59.8149 32.0121 59.6244 32.2025C59.4339 32.393 59.1756 32.5 58.9062 32.5ZM40.625 5.07812C40.6253 4.80886 40.7324 4.5507 40.9228 4.3603C41.1132 4.1699 41.3714 4.0628 41.6406 4.0625H45.7031C45.9724 4.0628 46.2305 4.1699 46.4209 4.3603C46.6113 4.5507 46.7184 4.80886 46.7188 5.07812V8.125H40.625V5.07812ZM45.7031 10.1562V12.1875H41.6406V10.1562H45.7031ZM27.4219 22.3438H48.75C49.0194 22.3438 49.2777 22.2367 49.4682 22.0463C49.6586 21.8558 49.7656 21.5975 49.7656 21.3281C49.7656 21.0588 49.6586 20.8004 49.4682 20.61C49.2777 20.4195 49.0194 20.3125 48.75 20.3125H27.7537C27.7996 20.2695 27.8493 20.231 27.9024 20.1974L40.8482 14.2188H46.4956L59.4415 20.1974C59.4945 20.231 59.5443 20.2696 59.5901 20.3125H52.8125C52.5431 20.3125 52.2848 20.4195 52.0943 20.61C51.9039 20.8004 51.7969 21.0588 51.7969 21.3281C51.7969 21.5975 51.9039 21.8558 52.0943 22.0463C52.2848 22.2367 52.5431 22.3438 52.8125 22.3438H59.9219V27.4219C59.9216 27.6911 59.8145 27.9493 59.6241 28.1397C59.4337 28.3301 59.1755 28.4372 58.9062 28.4375H28.4375C28.1682 28.4372 27.9101 28.3301 27.7197 28.1397C27.5293 27.9493 27.4222 27.6911 27.4219 27.4219V22.3438ZM55.8594 30.4688V44.6875H31.4844V30.4688H55.8594ZM28.4375 30.4688H29.4531V32.5H28.4375C28.1681 32.5 27.9098 32.393 27.7193 32.2025C27.5289 32.0121 27.4219 31.7537 27.4219 31.4844C27.4219 31.215 27.5289 30.9567 27.7193 30.7662C27.9098 30.5758 28.1681 30.4688 28.4375 30.4688ZM28.4375 34.5312H29.4531V36.5625H28.4375C28.1681 36.5625 27.9098 36.4555 27.7193 36.265C27.5289 36.0746 27.4219 35.8162 27.4219 35.5469C27.4219 35.2775 27.5289 35.0192 27.7193 34.8287C27.9098 34.6383 28.1681 34.5312 28.4375 34.5312ZM28.4375 38.5938H29.4531V40.625H28.4375C28.1681 40.625 27.9098 40.518 27.7193 40.3275C27.5289 40.1371 27.4219 39.8787 27.4219 39.6094C27.4219 39.34 27.5289 39.0817 27.7193 38.8912C27.9098 38.7008 28.1681 38.5938 28.4375 38.5938ZM28.4375 42.6562H29.4531V44.6875H28.4375C28.1681 44.6875 27.9098 44.5805 27.7193 44.39C27.5289 44.1996 27.4219 43.9412 27.4219 43.6719C27.4219 43.4025 27.5289 43.1442 27.7193 42.9537C27.9098 42.7633 28.1681 42.6562 28.4375 42.6562ZM28.4375 46.7188H58.9062C59.1756 46.7188 59.4339 46.8258 59.6244 47.0162C59.8149 47.2067 59.9219 47.465 59.9219 47.7344C59.9219 48.0037 59.8149 48.2621 59.6244 48.4525C59.4339 48.643 59.1756 48.75 58.9062 48.75H28.4375C28.1681 48.75 27.9098 48.643 27.7193 48.4525C27.5289 48.2621 27.4219 48.0037 27.4219 47.7344C27.4219 47.465 27.5289 47.2067 27.7193 47.0162C27.9098 46.8258 28.1681 46.7188 28.4375 46.7188ZM28.4375 50.7812H58.9062C59.1756 50.7812 59.4339 50.8883 59.6244 51.0787C59.8149 51.2692 59.9219 51.5275 59.9219 51.7969C59.9219 52.0662 59.8149 52.3246 59.6244 52.515C59.4339 52.7055 59.1756 52.8125 58.9062 52.8125H28.4375C28.1681 52.8125 27.9098 52.7055 27.7193 52.515C27.5289 52.3246 27.4219 52.0662 27.4219 51.7969C27.4219 51.5275 27.5289 51.2692 27.7193 51.0787C27.9098 50.8883 28.1681 50.7812 28.4375 50.7812ZM27.4219 55.8594C27.4222 55.5901 27.5293 55.332 27.7197 55.1416C27.9101 54.9512 28.1682 54.8441 28.4375 54.8438H58.9062C59.1755 54.8441 59.4337 54.9512 59.6241 55.1416C59.8145 55.332 59.9216 55.5901 59.9219 55.8594V57.8906C59.9209 58.6984 59.5996 59.4729 59.0284 60.0441C58.4572 60.6152 57.6828 60.9366 56.875 60.9375H30.4688C29.661 60.9366 28.8865 60.6152 28.3153 60.0441C27.7441 59.4729 27.4228 58.6984 27.4219 57.8906V55.8594Z"/><path fill="#313031" d="M43.6719 42.6538C43.7227 42.6554 43.7731 42.6562 43.8232 42.6563C44.8566 42.6712 45.8552 42.2832 46.6075 41.5746C46.9653 41.2341 47.2499 40.8242 47.4437 40.3698C47.6375 39.9155 47.7364 39.4264 47.7344 38.9324C47.7344 38.0675 47.3477 37.3918 47.0655 36.8986C46.7876 36.4368 46.4815 35.9926 46.1488 35.5685C45.839 35.1763 45.5549 34.7644 45.2982 34.3356L44.5569 33.0178C44.4686 32.8607 44.34 32.7299 44.1844 32.639C44.0289 32.548 43.8519 32.5 43.6717 32.5C43.4914 32.5 43.3145 32.548 43.1589 32.639C43.0033 32.7299 42.8748 32.8607 42.7864 33.0178L42.0451 34.3356C41.7884 34.7644 41.5043 35.1763 41.1946 35.5685C40.8619 35.9925 40.5558 36.4367 40.278 36.8985C39.9956 37.3918 39.6089 38.0675 39.6089 38.9324C39.6069 39.4264 39.7059 39.9155 39.8997 40.3698C40.0934 40.8242 40.378 41.2341 40.7359 41.5746C41.1276 41.9426 41.5895 42.2278 42.094 42.4132C42.5984 42.5987 43.1351 42.6805 43.6719 42.6538ZM42.0415 37.9074C42.2781 37.5195 42.5376 37.1461 42.8187 36.7892C43.1098 36.402 43.4093 36.0037 43.6719 35.5759C43.9346 36.0037 44.2341 36.402 44.5252 36.7892C44.8063 37.1462 45.0658 37.5196 45.3025 37.9075C45.5295 38.3043 45.7032 38.6312 45.7032 38.9324C45.7041 39.1522 45.6602 39.3698 45.574 39.5719C45.4878 39.7741 45.3613 39.9565 45.2021 40.108C45.0024 40.2905 44.7675 40.4303 44.5118 40.5188C44.2562 40.6073 43.9851 40.6426 43.7153 40.6227C43.7009 40.6222 43.6864 40.6219 43.6719 40.6219C43.6575 40.6219 43.643 40.6222 43.6285 40.6227C43.3587 40.6426 43.0877 40.6072 42.832 40.5187C42.5764 40.4302 42.3415 40.2905 42.1418 40.108C41.9826 39.9565 41.856 39.7741 41.7699 39.5719C41.6837 39.3698 41.6397 39.1522 41.6407 38.9324C41.6407 38.6319 41.8143 38.3042 42.0415 37.9074Z"/></svg>