<svg xmlns="http://www.w3.org/2000/svg" width="67" height="70" fill="none" viewBox="0 0 67 70"><path fill="url(#paint0_linear)" d="M13.375 0.125H20.5678C23.9048 0.125 27.1051 1.52243 29.4648 4.00986C31.8244 6.4973 33.15 9.87098 33.15 13.3887V15.2787H25.9571C22.6201 15.2787 19.4198 13.8813 17.0602 11.3939C14.7006 8.90645 13.375 5.53276 13.375 2.015V0.125Z"/><path fill="url(#paint1_linear)" d="M40.3427 18.125L33.1498 18.125V16.235C33.1498 12.7172 34.4754 9.34355 36.835 6.85611C38.0034 5.62446 39.3904 4.64746 40.917 3.98089C42.4435 3.31433 44.0797 2.97125 45.732 2.97125L52.9248 2.97125V4.86125C52.9248 8.37901 51.5992 11.7527 49.2396 14.2401C46.88 16.7276 43.6797 18.125 40.3427 18.125Z"/><path fill="#7ECE67" d="M33.15 15.2788H25.9571C22.6201 15.2788 19.4198 13.8814 17.0602 11.3939C14.7006 8.90651 13.375 5.53282 13.375 2.01506C13.375 -0.144942 13.375 0.125058 13.4497 0.125058C13.7961 3.36599 15.263 6.35877 17.5703 8.53159C19.8775 10.7044 22.8633 11.905 25.9571 11.9038H33.0646C33.1636 13.0256 33.1921 14.1531 33.15 15.2788Z"/><path fill="#7ECE67" d="M52.925 4.86138C52.925 8.37914 51.5994 11.7528 49.2398 14.2403C48.0715 15.4719 46.6844 16.4489 45.1579 17.1155C43.6313 17.7821 41.9952 18.1251 40.3429 18.1251H33.1501C33.1159 16.9995 33.1409 15.8728 33.2248 14.7501H40.3429C43.4356 14.751 46.42 13.5501 48.7255 11.377C51.031 9.204 52.4957 6.21135 52.8397 2.97138C52.957 2.97138 52.925 2.69013 52.925 4.86138Z"/><path fill="url(#paint2_linear)" d="M44.889 7.52765C40.1294 7.52765 35.9887 12.2076 33.8436 15.1776C32.6164 10.9251 26.6935 4.6814 21.5176 4.6814C21.2346 4.6814 20.9631 4.79992 20.763 5.0109C20.5629 5.22188 20.4504 5.50803 20.4504 5.8064C20.4504 6.10477 20.5629 6.39091 20.763 6.60189C20.9631 6.81287 21.2346 6.9314 21.5176 6.9314C25.2314 6.9314 28.7532 10.8914 30.5247 13.2426C32.6164 16.1001 32.0828 18.5639 32.0828 27.1251C32.0828 27.4235 32.1952 27.7097 32.3954 27.9206C32.5955 28.1316 32.8669 28.2502 33.15 28.2502C33.433 28.2502 33.7044 28.1316 33.9046 27.9206C34.1047 27.7097 34.2172 27.4235 34.2172 27.1251V18.4514C35.0709 17.0451 39.7452 9.77765 44.889 9.77765C45.1721 9.77765 45.4435 9.65912 45.6436 9.44814C45.8438 9.23716 45.9562 8.95101 45.9562 8.65265C45.9562 8.35428 45.8438 8.06813 45.6436 7.85715C45.4435 7.64617 45.1721 7.52765 44.889 7.52765Z"/><path fill="#4DA67F" d="M34.2171 24.875H32.0828V28.25H34.2171V24.875Z"/><path fill="url(#paint3_linear)" d="M33.1498 27.125V69.875L7.53735 64.25V28.25L33.1498 27.125Z"/><path fill="#CBA07A" d="M33.1498 27.125V32.165L25.8076 47.6338L7.53735 44.2813V28.25L33.1498 27.125Z"/><path fill="url(#paint4_linear)" d="M7.53745 28.25L0.0671387 40.625L24.6124 45.125L33.1499 27.125L7.53745 28.25Z"/><path fill="url(#paint5_linear)" d="M58.7624 28.25V64.25L33.1499 69.875V27.125L58.7624 28.25Z"/><path fill="#CBA07A" d="M33.1498 66.2524V69.8749L7.53735 64.2499V60.6274L33.1498 66.2524Z"/><path fill="#CBA07A" d="M58.7624 60.6274V64.2499L33.1499 69.8749V66.2524L58.7624 60.6274Z"/><path fill="#CBA07A" d="M58.7624 28.25V44.2813L40.4922 47.6338L33.1499 32.165V27.125L58.7624 28.25Z"/><path fill="url(#paint6_linear)" d="M58.7624 28.25L66.2327 40.625L41.6874 45.125L33.1499 27.125L58.7624 28.25Z"/><defs><linearGradient id="paint0_linear" x1="23.268" x2="23.268" y1="15.279" y2=".125" gradientUnits="userSpaceOnUse"><stop stop-color="#8CDD79"/><stop offset="1" stop-color="#D4E6B6"/></linearGradient><linearGradient id="paint1_linear" x1="849.065" x2="849.065" y1="260.585" y2="56.464" gradientUnits="userSpaceOnUse"><stop stop-color="#8CDD79"/><stop offset="1" stop-color="#D4E6B6"/></linearGradient><linearGradient id="paint2_linear" x1="33.15" x2="33.15" y1="28.239" y2="4.681" gradientUnits="userSpaceOnUse"><stop stop-color="#6AB891"/><stop offset="1" stop-color="#85CBA9"/></linearGradient><linearGradient id="paint3_linear" x1="6.737" x2="38.755" y1="63.406" y2="33.034" gradientUnits="userSpaceOnUse"><stop stop-color="#DEB895"/><stop offset="1" stop-color="#F2D3B8"/></linearGradient><linearGradient id="paint4_linear" x1="545.933" x2="545.933" y1="765.125" y2="477.125" gradientUnits="userSpaceOnUse"><stop stop-color="#DEB895"/><stop offset="1" stop-color="#F2D3B8"/></linearGradient><linearGradient id="paint5_linear" x1="731.09" x2="1880.78" y1="2517.31" y2="1828.51" gradientUnits="userSpaceOnUse"><stop stop-color="#DEB895"/><stop offset="1" stop-color="#F2D3B8"/></linearGradient><linearGradient id="paint6_linear" x1="1604.58" x2="1604.58" y1="765.125" y2="477.125" gradientUnits="userSpaceOnUse"><stop stop-color="#DEB895"/><stop offset="1" stop-color="#F2D3B8"/></linearGradient></defs></svg>