<svg width="60" height="73" viewBox="0 0 60 73" fill="none" xmlns="http://www.w3.org/2000/svg">
<g clip-path="url(#clip0)">
<path d="M22.0159 -0.200195H23.6746C24.4733 -0.200195 25.2642 -0.040829 26.0021 0.268805C26.7401 0.578439 27.4105 1.03228 27.9753 1.60441C28.5401 2.17654 28.9881 2.85575 29.2938 3.60327C29.5994 4.3508 29.7567 5.15199 29.7567 5.9611V6.52122H28.098C27.2993 6.52122 26.5084 6.36185 25.7705 6.05222C25.0325 5.74258 24.3621 5.28875 23.7973 4.71662C23.2325 4.14449 22.7845 3.46527 22.4788 2.71775C22.1732 1.97023 22.0159 1.16904 22.0159 0.359923V-0.200195Z" fill="url(#paint0_linear)"/>
<path d="M31.4146 8.2014H29.7559V7.64128C29.7559 6.83216 29.9132 6.03097 30.2188 5.28345C30.5245 4.53593 30.9725 3.85671 31.5373 3.28458C32.102 2.71245 32.7725 2.25862 33.5104 1.94898C34.2484 1.63935 35.0392 1.47998 35.838 1.47998H37.4967V2.0401C37.4967 2.84921 37.3394 3.6504 37.0337 4.39793C36.7281 5.14545 36.2801 5.82467 35.7153 6.39679C35.1505 6.96892 34.48 7.42276 33.7421 7.7324C33.0042 8.04203 32.2133 8.2014 31.4146 8.2014Z" fill="url(#paint1_linear)"/>
<path d="M29.7558 6.52118H28.0971C26.4888 6.52119 24.946 5.8759 23.8061 4.72649C22.6663 3.57707 22.0223 2.01711 22.015 0.387885C22.015 -0.245048 21.9818 -0.200238 22.015 -0.200238C22.1459 1.33783 22.845 2.76918 23.9726 3.80763C25.1002 4.84609 26.5732 5.41511 28.0971 5.40094H29.7558C29.7755 5.77409 29.7755 6.14803 29.7558 6.52118Z" fill="#7ECE67"/>
<path d="M37.4967 2.06831C37.4967 3.70238 36.8559 5.26953 35.7153 6.425C34.5747 7.58047 33.0277 8.2296 31.4146 8.2296H29.7559C29.7559 7.66949 29.7559 7.40623 29.7559 7.10937H31.4146C32.9429 7.12298 34.4196 6.55007 35.5479 5.50579C36.6762 4.4615 37.3724 3.02327 37.4967 1.48018C37.5299 1.48018 37.4967 1.43537 37.4967 2.06831Z" fill="#7ECE67"/>
<path d="M29.2029 16.0433V6.5213C29.2029 6.37275 29.2611 6.23028 29.3648 6.12524C29.4685 6.02019 29.6092 5.96118 29.7558 5.96118C29.9024 5.96118 30.0431 6.02019 30.1468 6.12524C30.2505 6.23028 30.3087 6.37275 30.3087 6.5213V16.0433C30.3087 16.1919 30.2505 16.3343 30.1468 16.4394C30.0431 16.5444 29.9024 16.6034 29.7558 16.6034C29.6092 16.6034 29.4685 16.5444 29.3648 16.4394C29.2611 16.3343 29.2029 16.1919 29.2029 16.0433Z" fill="url(#paint2_linear)"/>
<path d="M29.7558 7.08132C29.4627 7.08132 29.7558 7.28856 24.9675 3.02046C24.8648 2.92048 24.8041 2.78419 24.7981 2.63999C24.7921 2.4958 24.8413 2.35483 24.9354 2.24649C25.0296 2.13814 25.1613 2.07078 25.3033 2.05845C25.4452 2.04611 25.5864 2.08976 25.6973 2.18029L30.1207 6.10111C30.2049 6.17632 30.2645 6.2757 30.2915 6.38604C30.3186 6.49639 30.3119 6.61247 30.2723 6.71885C30.2327 6.82524 30.1621 6.9169 30.0698 6.98164C29.9775 7.04639 29.868 7.08115 29.7558 7.08132Z" fill="url(#paint3_linear)"/>
<path d="M29.7557 8.76151C29.6435 8.76135 29.534 8.72658 29.4417 8.66184C29.3494 8.59709 29.2788 8.50544 29.2392 8.39905C29.1996 8.29266 29.1929 8.17658 29.22 8.06623C29.247 7.95589 29.3066 7.85651 29.3908 7.7813L33.8142 3.86048C33.9251 3.76995 34.0663 3.72629 34.2082 3.73862C34.3502 3.75095 34.482 3.81831 34.5761 3.92666C34.6702 4.03501 34.7194 4.17598 34.7134 4.32018C34.7074 4.46438 34.6468 4.60068 34.544 4.70066C29.7557 8.95195 30.0488 8.76151 29.7557 8.76151Z" fill="url(#paint4_linear)"/>
<path d="M10.0806 49.9676V23.2663C10.0806 17.4164 14.7687 12.6672 20.5433 12.6672H39.5172C45.2918 12.6672 49.98 17.4164 49.98 23.2663V49.9676H10.0806Z" fill="#E2BD9C"/>
<path d="M55.4628 67.9043H49.0242V71.9809H55.4628V67.9043Z" stroke="#313031" stroke-width="3" stroke-miterlimit="10" stroke-linecap="round" stroke-linejoin="round"/>
<path d="M55.4628 67.9043H49.0242V71.9809H55.4628V67.9043Z" fill="#313031"/>
<path d="M10.0806 49.9676V23.2663C10.0806 17.4164 14.7687 12.6672 20.5433 12.6672H39.5172C45.2918 12.6672 49.98 17.4164 49.98 23.2663V49.9676H10.0806Z" stroke="#313031" stroke-miterlimit="10" stroke-linecap="round" stroke-linejoin="round"/>
<path d="M58.9941 68.0267H48.1289V38.6755C48.1289 36.8819 49.5776 35.4143 51.3482 35.4143H55.7748C57.5454 35.4143 58.9941 36.8819 58.9941 38.6755V68.0267Z" fill="#E6C3A3"/>
<path opacity="0.6" d="M55.7748 35.292H51.3482C49.5776 35.292 48.1289 36.7595 48.1289 38.5532V40.5915C48.1289 38.7978 49.5776 37.3303 51.3482 37.3303H55.7748C57.5454 37.3303 58.9941 38.7978 58.9941 40.5915V38.5532C58.9941 36.7595 57.5655 35.292 55.7748 35.292Z" fill="#CBA07A"/>
<path d="M58.9941 67.9043H48.1289V38.5532C48.1289 36.7595 49.5776 35.292 51.3482 35.292H55.7748C57.5454 35.292 58.9941 36.7595 58.9941 38.5532V67.9043Z" stroke="#313031" stroke-miterlimit="10" stroke-linecap="round" stroke-linejoin="round"/>
<path d="M10.9757 67.9043H4.53711V71.9809H10.9757V67.9043Z" fill="#313031"/>
<path d="M10.9757 67.9043H4.53711V71.9809H10.9757V67.9043Z" stroke="#313031" stroke-width="3" stroke-miterlimit="10" stroke-linecap="round" stroke-linejoin="round"/>
<path d="M11.8713 67.9043H1.0061V38.5532C1.0061 36.7595 2.4548 35.292 4.22542 35.292H8.65198C10.4226 35.292 11.8713 36.7595 11.8713 38.5532V67.9043Z" fill="#E6C3A3"/>
<path opacity="0.6" d="M8.65198 35.292H4.22542C2.4548 35.292 1.0061 36.7595 1.0061 38.5532V40.5915C1.0061 38.7978 2.4548 37.3303 4.22542 37.3303H8.65198C10.4226 37.3303 11.8713 38.7978 11.8713 40.5915V38.5532C11.8713 36.7595 10.4226 35.292 8.65198 35.292Z" fill="#CBA07A"/>
<path d="M11.8713 67.9043H1.0061V38.5532C1.0061 36.7595 2.4548 35.292 4.22542 35.292H8.65198C10.4226 35.292 11.8713 36.7595 11.8713 38.5532V67.9043Z" stroke="#313031" stroke-miterlimit="10" stroke-linecap="round" stroke-linejoin="round"/>
<path d="M11.9116 59.1398V49.2746C11.9116 47.1752 13.5816 45.4834 15.6541 45.4834H44.3865C46.4589 45.4834 48.1289 47.1752 48.1289 49.2746V59.1398H11.9116Z" fill="#E4C09F"/>
<path opacity="0.6" d="M44.3865 45.4834H15.6541C13.5816 45.4834 11.9116 47.1752 11.9116 49.2746V51.7205C11.9116 49.6211 13.5816 47.9293 15.6541 47.9293H44.3865C46.4589 47.9293 48.1289 49.6211 48.1289 51.7205V49.2746C48.1289 47.1752 46.4589 45.4834 44.3865 45.4834Z" fill="#CBA07A"/>
<path d="M11.9116 59.1398V49.2746C11.9116 47.1752 13.5816 45.4834 15.6541 45.4834H44.3865C46.4589 45.4834 48.1289 47.1752 48.1289 49.2746V59.1398H11.9116Z" stroke="#313031" stroke-miterlimit="10" stroke-linecap="round" stroke-linejoin="round"/>
<path d="M48.1355 66.8783V59.1328H11.9182V66.8783H48.1355Z" fill="#FFC857"/>
<path d="M48.1355 66.8783V59.1328H11.9182V66.8783H48.1355Z" fill="#E6C3A3"/>
<path d="M48.1355 61.5787V59.1328H11.9182V61.5787H48.1355Z" fill="#CBA07A"/>
<path d="M48.1355 66.8783V59.1328H11.9182V66.8783H48.1355Z" stroke="#313031" stroke-miterlimit="10" stroke-linecap="round" stroke-linejoin="round"/>
<path opacity="0.69" d="M30.1005 31.3174C31.3229 31.3174 32.3138 30.3136 32.3138 29.0754C32.3138 27.8371 31.3229 26.8333 30.1005 26.8333C28.8781 26.8333 27.8872 27.8371 27.8872 29.0754C27.8872 30.3136 28.8781 31.3174 30.1005 31.3174Z" fill="white"/>
<path d="M30.1005 31.3174C31.3229 31.3174 32.3138 30.3136 32.3138 29.0754C32.3138 27.8371 31.3229 26.8333 30.1005 26.8333C28.8781 26.8333 27.8872 27.8371 27.8872 29.0754C27.8872 30.3136 28.8781 31.3174 30.1005 31.3174Z" stroke="#313031" stroke-miterlimit="10" stroke-linecap="round" stroke-linejoin="round"/>
</g>
<defs>
<linearGradient id="paint0_linear" x1="25.8863" y1="6.52122" x2="25.8863" y2="-0.200195" gradientUnits="userSpaceOnUse">
<stop stop-color="#8CDD79"/>
<stop offset="1" stop-color="#D4E6B6"/>
</linearGradient>
<linearGradient id="paint1_linear" x1="5035.69" y1="3394.86" x2="5035.69" y2="2168.18" gradientUnits="userSpaceOnUse">
<stop stop-color="#8CDD79"/>
<stop offset="1" stop-color="#D4E6B6"/>
</linearGradient>
<linearGradient id="paint2_linear" x1="29.7558" y1="16.5978" x2="29.7558" y2="5.96678" gradientUnits="userSpaceOnUse">
<stop stop-color="#6AB891"/>
<stop offset="1" stop-color="#85CBA9"/>
</linearGradient>
<linearGradient id="paint3_linear" x1="2295.57" y1="2055.33" x2="3134.44" y2="2055.33" gradientUnits="userSpaceOnUse">
<stop stop-color="#6AB891"/>
<stop offset="1" stop-color="#85CBA9"/>
</linearGradient>
<linearGradient id="paint4_linear" x1="3033.85" y1="2310.08" x2="3872.73" y2="2310.08" gradientUnits="userSpaceOnUse">
<stop stop-color="#6AB891"/>
<stop offset="1" stop-color="#85CBA9"/>
</linearGradient>
<clipPath id="clip0">
<rect width="60" height="73" fill="white"/>
</clipPath>
</defs>
</svg>
