<svg xmlns="http://www.w3.org/2000/svg" width="516" height="358" fill="none" viewBox="0 0 516 358"><g clip-path="url(#clip0)"><path fill="#34CB79" d="M368.939 244.794C368.939 277.192 349.713 288.504 325.996 288.504C302.28 288.504 283.054 277.192 283.054 244.794C283.054 212.395 325.996 171.179 325.996 171.179C325.996 171.179 368.939 212.395 368.939 244.794Z"/><path fill="#3F3D56" d="M324.871 256.433L343.175 222.889L324.94 252.18L325.138 239.988L337.753 215.719L325.19 236.762L325.546 214.834L339.054 195.513L325.602 211.386L325.824 171.179L324.488 222.126L310.809 201.151L324.322 226.426L323.042 250.915L323.005 250.265L307.172 228.103L322.956 252.561L322.796 255.624L322.768 255.67L322.781 255.921L319.534 288.601H323.872L324.393 285.961L340.138 261.563L324.432 283.548L324.871 256.433Z"/><path fill="#F2F2F2" d="M516 140.622C516 202.511 479.273 224.12 433.969 224.12C388.664 224.12 351.938 202.511 351.938 140.622C351.938 78.7326 433.969 0 433.969 0C433.969 0 516 78.7326 516 140.622Z"/><path fill="#3F3D56" d="M430.981 214.653L431.821 162.857L466.785 98.779L431.952 154.732L432.33 131.443L456.427 85.0827L432.43 125.28V125.28L433.11 83.3927L458.913 46.4843L433.216 76.8061L433.641 0L430.974 101.677L431.193 97.4829L404.958 57.2549L430.772 105.535L428.328 152.315L428.255 151.074L398.011 108.74L428.163 155.46L427.858 161.311L427.803 161.399L427.828 161.879L421.626 280.565H429.912L430.906 219.261L460.984 172.656L430.981 214.653Z"/><path fill="#3F3D56" d="M512.632 270.202C512.632 288.675 393.017 358 253.186 358C113.355 358 0 322.121 0 303.649C0 285.177 110.573 307.133 250.404 307.133C390.235 307.133 512.632 251.73 512.632 270.202Z"/><path fill="#000" d="M512.632 270.202C512.632 288.675 393.017 358 253.186 358C113.355 358 0 322.121 0 303.649C0 285.177 110.573 307.133 250.404 307.133C390.235 307.133 512.632 251.73 512.632 270.202Z" opacity=".1"/><path fill="#3F3D56" d="M512.632 270.202C512.632 288.674 393.017 337.096 253.186 337.096C113.355 337.096 0 322.121 0 303.649C0 285.177 110.573 286.229 250.404 286.229C390.235 286.229 512.632 251.73 512.632 270.202Z"/><path fill="#000" d="M256.019 315.489C315.399 315.489 363.536 311.759 363.536 307.158C363.536 302.557 315.399 298.827 256.019 298.827C196.64 298.827 148.503 302.557 148.503 307.158C148.503 311.759 196.64 315.489 256.019 315.489Z" opacity=".1"/><path fill="#A0616A" d="M170.845 140.216C170.845 140.216 202.321 140.8 196.492 146.347C190.663 151.894 168.804 146.347 168.804 146.347L170.845 140.216Z"/><path fill="#34CB79" d="M105.263 72.836C105.263 72.836 117.972 70.5624 122.391 80.84C126.809 91.1176 135.884 120.429 135.884 120.429C135.884 120.429 160.17 136.533 164.587 136.004C169.005 135.474 176.556 136.554 175.171 141.382C173.786 146.209 174.401 151.684 171.212 152.355C168.023 153.026 162.951 146.621 159.07 149.706C155.188 152.791 120.596 141.523 118.375 139.189C116.154 136.854 97.6982 86.302 97.6982 86.302C97.6982 86.302 98.4365 72.6713 105.263 72.836Z"/><path fill="#A0616A" d="M132.519 289.848L133.977 302.111L121.736 305.323L114.741 302.111V291.308L132.519 289.848Z"/><path fill="#A0616A" d="M99.5859 297.732L101.043 309.994L88.8024 313.206L81.8076 309.994V299.191L99.5859 297.732Z"/><path fill="#2F2E41" d="M133.685 155.836L139.223 175.982L147.383 216.857C147.383 216.857 149.715 226.784 145.052 238.754C140.389 250.725 131.937 289.848 133.685 292.184C135.434 294.52 113.867 296.272 114.158 293.936C114.45 291.6 117.364 259.484 117.364 259.484C117.364 259.484 121.445 231.163 123.485 227.66C125.525 224.156 114.158 215.397 114.158 215.397C114.158 215.397 111.244 248.973 106.872 251.893C102.501 254.812 103.083 300.067 101.043 300.651C99.0031 301.235 84.1394 303.571 82.3907 300.651C80.642 297.731 82.3907 248.973 82.3907 248.973C82.3907 248.973 92.2999 211.893 90.2598 206.638C88.2196 201.383 89.3854 178.901 89.3854 178.901C89.3854 178.901 81.8078 161.675 85.8881 152.624L133.685 155.836Z"/><path fill="#A0616A" d="M132.811 43.7208C132.811 43.7208 120.57 58.9031 121.153 65.6183C121.736 72.3335 101.917 53.3557 101.917 53.3557C101.917 53.3557 116.198 34.086 116.198 29.9984C116.198 25.9109 132.811 43.7208 132.811 43.7208Z"/><path fill="#A0616A" d="M132.665 49.4143C143.289 49.4143 151.901 40.7869 151.901 30.1445C151.901 19.5021 143.289 10.8748 132.665 10.8748C122.042 10.8748 113.43 19.5021 113.43 30.1445C113.43 40.7869 122.042 49.4143 132.665 49.4143Z"/><path fill="#34CB79" d="M84.189 144.914C83.3176 148.166 82.2363 151.854 82.3908 154.96C82.4899 156.972 87.8205 158.291 95.1911 159.156C102.026 159.959 110.615 160.367 118.422 160.578C126.621 160.799 133.951 160.799 137.474 160.799C147.966 160.799 139.514 154.084 135.434 150.873C131.354 147.661 132.228 102.114 132.52 96.2749C132.811 90.4355 129.897 73.5015 129.897 70.2899C129.897 67.0782 123.039 58.6959 123.039 58.6959C123.039 58.6959 121.445 63.2827 115.033 57.1514C108.621 51.0201 100.169 49.2683 100.169 49.2683C93.7572 51.604 82.9737 77.2971 82.3908 81.6766C82.1547 83.4546 82.35 92.5611 82.7464 102.958C83.3205 118.155 84.3231 136.12 85.0138 138.026C85.5588 139.53 84.9556 142.052 84.189 144.914Z"/><path fill="#A0616A" d="M115.324 161.967L117.364 169.267L109.495 177.442L106.872 166.055L115.324 161.967Z"/><path fill="#2F2E41" d="M117.947 298.899C117.947 298.899 124.067 305.907 128.73 301.235C133.394 296.564 133.102 293.644 133.977 293.644C134.851 293.644 147.966 305.323 147.966 305.323C147.966 305.323 170.407 310.578 158.167 314.374C145.926 318.169 111.244 315.542 111.244 314.374C111.244 313.206 110.369 297.732 113.575 297.732L117.947 298.899Z"/><path fill="#2F2E41" d="M85.0138 306.783C85.0138 306.783 91.1342 313.79 95.7974 309.118C100.461 304.447 100.169 301.527 101.043 301.527C101.918 301.527 115.033 313.206 115.033 313.206C115.033 313.206 137.474 318.461 125.233 322.257C112.993 326.052 78.3106 323.425 78.3106 322.257C78.3106 321.089 77.4362 305.615 80.6421 305.615L85.0138 306.783Z"/><path fill="#2F2E41" d="M111.069 45.5266C110.448 45.9287 109.639 46.3362 109.017 45.9353C106.703 40.1559 104.974 34.1587 103.855 28.0338C103.463 25.8824 103.19 23.4907 104.383 21.659C104.853 20.9366 105.531 20.3458 105.876 19.5554C106.397 18.3583 106.054 16.9726 106.227 15.6779C106.591 12.9654 109.15 11.0735 111.724 10.156C114.298 9.23848 117.093 8.95386 119.546 7.74989C121.876 6.60668 123.742 4.71073 125.902 3.27198C128.062 1.83323 130.829 0.849503 133.234 1.82171C135.363 2.68177 136.688 4.85481 138.7 5.96125C140.065 6.71209 141.649 6.92103 143.172 7.24333C147.407 8.1434 151.383 9.99386 154.801 12.6555C155.632 13.2497 156.349 13.9902 156.917 14.841C159.498 19.0984 154.877 24.8864 156.916 29.4295L152.508 25.945C151.33 24.9135 150.003 24.0682 148.571 23.4385C147.111 22.8845 145.381 22.8176 144.055 23.6429C142.194 24.8011 141.689 27.2208 141.039 29.3171C140.388 31.4133 138.951 33.7379 136.76 33.6842C133.781 33.6111 132.739 29.4463 130.066 28.1276C128.323 27.2681 126.129 27.8341 124.643 29.0878C123.158 30.3414 122.266 32.1603 121.612 33.9927C121.204 35.1378 120.82 36.4286 120.095 37.4212C119.294 38.5159 118.27 38.604 117.416 39.4215C115.19 41.5496 113.822 43.7449 111.069 45.5266Z"/><path fill="#000" d="M84.1887 144.913C87.8114 150.178 91.8946 155.608 95.1908 159.156C102.025 159.958 110.614 160.367 118.422 160.577C117.027 158.683 115.283 157.073 113.284 155.836C109.495 153.5 100.46 125.763 100.46 125.763C100.46 125.763 111.535 97.1506 114.45 86.3479C117.364 75.5451 105.998 69.4138 105.998 69.4138C100.752 65.0343 91.7168 75.2532 91.7168 75.2532C91.7168 75.2532 87.1061 89.1858 82.7461 102.958C83.3202 118.155 84.3228 136.119 85.0136 138.026C85.5586 139.53 84.9553 142.052 84.1887 144.913Z" opacity=".1"/><path fill="#34CB79" d="M105.123 67.0781C105.123 67.0781 116.49 73.2094 113.575 84.0122C110.661 94.8149 99.5859 123.428 99.5859 123.428C99.5859 123.428 108.621 151.164 112.41 153.5C116.198 155.836 121.444 161.383 117.364 164.303C113.284 167.223 110.369 171.894 107.455 170.434C104.54 168.974 104.54 160.799 99.5859 160.799C94.6313 160.799 74.5215 130.435 74.23 127.223C73.9386 124.012 90.8425 72.9175 90.8425 72.9175C90.8425 72.9175 99.8773 62.6987 105.123 67.0781Z"/><path fill="#FF6584" d="M341.474 146.881L338.196 143.596C336.283 141.681 333.689 140.604 330.985 140.604C328.28 140.604 325.686 141.681 323.774 143.596L260.177 207.306L196.581 143.596C194.668 141.681 192.075 140.604 189.37 140.604C186.665 140.604 184.072 141.681 182.159 143.596L178.88 146.881C177.933 147.83 177.182 148.956 176.67 150.195C176.157 151.435 175.894 152.763 175.894 154.105C175.894 155.446 176.157 156.775 176.67 158.014C177.182 159.254 177.933 160.38 178.88 161.328L242.477 225.038L178.88 288.748C177.933 289.697 177.182 290.823 176.67 292.063C176.157 293.302 175.894 294.63 175.894 295.972C175.894 297.314 176.157 298.642 176.67 299.881C177.182 301.121 177.933 302.247 178.88 303.196L182.159 306.48C184.072 308.396 186.665 309.472 189.37 309.472C192.075 309.472 194.668 308.396 196.581 306.48L260.177 242.77L323.774 306.48C325.686 308.396 328.28 309.472 330.985 309.472C333.689 309.472 336.283 308.396 338.196 306.48L341.474 303.196C343.387 301.28 344.461 298.681 344.461 295.972C344.461 293.263 343.387 290.664 341.474 288.748L277.878 225.038L341.474 161.328C343.387 159.412 344.461 156.814 344.461 154.105C344.461 151.395 343.387 148.797 341.474 146.881Z"/><path fill="#000" d="M176.611 292.212L238.319 230.394L237.725 229.799L178.88 288.748C177.895 289.735 177.122 290.914 176.611 292.212Z" opacity=".1"/><path fill="#000" d="M178.001 148.952C179.913 147.036 182.507 145.96 185.212 145.96C187.916 145.96 190.51 147.036 192.423 148.952L256.019 212.662L319.616 148.952C321.528 147.036 324.122 145.96 326.827 145.96C329.531 145.96 332.125 147.036 334.038 148.952L337.316 152.237C338.723 153.646 339.687 155.437 340.09 157.389C340.494 159.34 340.318 161.367 339.586 163.22L341.474 161.329C342.421 160.38 343.172 159.254 343.685 158.014C344.197 156.775 344.461 155.446 344.461 154.105C344.461 152.763 344.197 151.435 343.685 150.195C343.172 148.956 342.421 147.83 341.474 146.881L338.196 143.597C336.283 141.681 333.689 140.605 330.985 140.605C328.28 140.605 325.686 141.681 323.774 143.597L260.177 207.307L196.581 143.597C194.668 141.681 192.075 140.604 189.37 140.604C186.665 140.604 184.072 141.681 182.159 143.597L178.88 146.881C177.895 147.868 177.122 149.047 176.611 150.345L178.001 148.952Z" opacity=".1"/><path fill="#000" d="M278.472 225.634L273.72 230.394L337.316 294.104C338.723 295.513 339.687 297.304 340.09 299.256C340.494 301.207 340.318 303.235 339.586 305.088L341.474 303.196C342.421 302.247 343.172 301.121 343.685 299.881C344.197 298.642 344.461 297.314 344.461 295.972C344.461 294.631 344.197 293.302 343.685 292.063C343.172 290.823 342.421 289.697 341.474 288.748L278.472 225.634Z" opacity=".1"/><path fill="#34CB79" d="M74.0521 268.113C74.0521 295.021 58.0841 304.416 38.3867 304.416C18.6892 304.416 2.72119 295.021 2.72119 268.113C2.72119 241.205 38.3867 206.973 38.3867 206.973C38.3867 206.973 74.0521 241.205 74.0521 268.113Z"/><path fill="#3F3D56" d="M37.4528 277.78L52.6545 249.92L37.5101 274.248L37.6745 264.122L48.1512 243.965L37.7179 261.442L38.0132 243.231L49.2319 227.183L38.0595 240.367L38.2439 206.973L37.1341 249.287L25.7735 231.867L36.9965 252.857L35.934 273.197L35.9025 272.657L22.7532 254.251L35.8623 274.564L35.7295 277.108L35.7056 277.146L35.7166 277.355L33.0202 304.496H36.6229L37.0553 302.304L50.1324 282.04L37.0878 300.3L37.4528 277.78Z"/></g><defs><clipPath id="clip0"><rect width="516" height="358" fill="#fff"/></clipPath></defs></svg>