<svg xmlns="http://www.w3.org/2000/svg" width="738" height="669" fill="none" viewBox="0 0 738 669"><path fill="#fff" fill-opacity=".61" d="M409.883 661.248C492.005 660.267 577.447 658.484 650.703 621.891C669.753 612.356 687.85 600.416 702.081 584.69C728.218 555.794 739.423 515.511 736.818 476.9C735.366 453.488 728.852 430.654 717.712 409.932C708.132 392.409 695.091 376.766 687.065 358.497C658.001 292.497 700.904 212.359 674.165 145.419C659.262 108.107 624.315 81.3391 586.272 67.3127C548.229 53.2862 506.993 50.4532 466.401 49.1819C431.818 48.0901 395.876 47.717 364.837 32.5988C350.676 25.6892 338.042 16.0158 323.628 9.63131C269.688 -14.1239 208.072 14.3022 156.176 42.1617C144.438 48.4495 132.532 54.8754 123.05 64.1619C113.077 73.9321 106.241 86.3693 98.4255 97.8531C64.0386 148.044 4.71938 187.609 0.377246 248.04C-3.48866 301.686 38.8682 347.925 48.0007 400.936C58.0857 459.308 27.1724 515.898 13.4457 573.482C6.44223 602.821 5.18161 647.153 38.1959 662.658C63.7024 674.625 109.533 664.855 136.566 664.537L409.883 661.248Z" opacity=".18"/><path fill="#34CB79" d="M588.849 252.435C587.448 235.492 585.88 218.205 579.044 202.686C566.9 175.227 539.531 156.861 510.859 147.008C491.921 140.499 472.129 137.086 452.268 134.032C428.26 130.328 405.401 146.179 401.493 169.824C401.493 169.976 401.493 170.128 401.423 170.293C397.025 197.932 407.488 228.721 393.467 253.112C379.67 277.102 347.09 284.274 319.524 279.686C306.05 277.434 292.211 272.5 283.709 261.942C276.089 252.49 273.778 239.832 266.9 229.854C260.527 220.678 250.736 214.473 241.184 208.573C232.598 203.266 223.801 197.918 213.982 195.486C204.164 193.054 192.972 193.952 185.058 200.212C169.524 212.539 174.231 236.474 169.651 255.599C161.723 288.42 123.694 311.498 125.669 345.162C126.747 363.665 139.998 378.922 151.918 393.239C170.393 415.432 187.86 440.528 190.143 469.161C191.123 481.46 189.218 493.953 191.445 506.1C193.91 519.505 203.379 533.31 217.974 533.047C219.931 533.002 221.877 533.354 223.689 534.084C231.281 537.193 228.956 543.495 228.802 549.009C228.55 557.494 234.054 565.357 241.1 570.235C248.145 575.113 256.619 577.518 264.911 579.701C307.955 591.047 352.763 598.951 396.982 593.52C441.202 588.089 485.114 568.065 511.167 532.412C528.493 508.698 536.925 479.899 545.035 451.832L559.561 401.074C563.104 388.816 566.746 376.49 571.873 364.757C577.167 352.652 587.182 343.324 592.561 331.826C596.875 322.595 593.961 312.631 593.079 302.806C591.65 285.932 590.25 269.184 588.849 252.435Z" opacity=".18"/><path fill="url(#paint0_linear)" d="M25.4076 619.874C17.0034 622.14 6.008 629.243 10.8544 636.387C12.6333 638.999 15.9949 640.008 19.1185 640.533C31.5286 642.661 44.2048 640.285 56.6429 638.35C136.398 625.982 217.722 632.38 298.402 635.904C393.789 640.096 489.237 640.22 584.745 636.277C602.212 635.558 619.874 634.674 636.571 629.644C654.147 624.315 670.033 614.606 682.695 601.453C664.248 592.166 642.692 591.779 621.989 591.544L479.385 590.093C477.382 597.307 486.249 602.42 493.602 604.216C500.956 606.013 510.06 609.108 510.298 616.515C478.811 617.704 446.889 618.865 416.158 611.983C404.07 609.219 392.22 605.35 379.936 603.788C367.022 602.143 353.939 603.166 340.969 604.189L237.528 612.328C238.21 608.481 239.862 604.865 242.331 601.812C244.801 598.76 248.009 596.369 251.661 594.861C210.173 593.728 168.67 593.751 127.154 594.93C109.757 595.427 89.9093 593.686 73.7174 599.615C57.2312 605.598 42.7901 615.175 25.4076 619.874Z"/><path fill="#34CB79" d="M398.691 386.744L312.731 385.79L293.261 385.569C293.261 385.569 293.261 385.431 293.261 385.168C293.051 381.326 291.595 351.035 293.261 317.675C293.255 317.569 293.255 317.463 293.261 317.357C293.868 302.925 295.271 288.537 297.464 274.255C300.797 254.024 306.176 236.681 314.748 228.389C316.457 226.745 332.117 207.661 357.287 212.442C382.457 217.223 395.862 216.961 399.812 276.273C400.806 289.982 398.691 386.744 398.691 386.744Z"/><path fill="url(#paint1_linear)" d="M347.832 216.864C348.399 217.459 349.087 217.929 349.849 218.246C350.65 218.498 351.49 218.605 352.329 218.564C354.062 218.642 355.791 218.33 357.385 217.652C359.188 216.691 360.572 215.113 361.279 213.216C361.975 211.333 362.266 209.328 362.133 207.329C362.158 206.914 362.061 206.502 361.853 206.14C361.629 205.895 361.354 205.7 361.047 205.566C360.741 205.433 360.409 205.365 360.074 205.367C357.273 205.007 354.42 204.745 351.516 204.579C349.793 204.468 345.787 203.542 344.513 204.966C341.921 207.868 345.717 214.791 347.832 216.864Z"/><path fill="url(#paint2_linear)" d="M334.204 184.651C334.432 188.109 335.356 191.486 336.921 194.587C339.82 199.576 345.745 202.312 351.572 202.658C356.143 203.04 360.695 201.735 364.346 198.996C366.323 197.27 368.027 195.262 369.403 193.04C370.533 191.452 371.473 189.741 372.204 187.94C372.923 185.83 373.365 183.638 373.521 181.418C374.053 176.332 374.347 171.205 374.389 166.092C374.469 163.957 374.338 161.818 373.997 159.708C373.325 156.083 371.563 152.741 368.941 150.117C368.026 149.136 366.888 148.383 365.621 147.92C364.35 147.6 363.029 147.52 361.727 147.685C359.458 147.823 357.203 148.031 354.948 148.307C353.331 148.453 351.735 148.768 350.185 149.247C347.852 150.108 345.718 151.424 343.91 153.116C339.707 156.872 336.553 161.631 334.75 166.935C333.84 169.301 333.302 171.789 333.153 174.315C333.296 177.778 333.647 181.229 334.204 184.651Z"/><path fill="#3F3D56" d="M327.592 166.963C326.89 164.706 326.384 162.395 326.08 160.053C325.785 155.277 326.669 150.502 328.657 146.137C329.099 145.005 329.678 143.928 330.38 142.931C331.393 141.706 332.622 140.671 334.008 139.877C343.35 134.073 355.34 133.41 366.013 136.243C372.176 137.86 378.619 140.596 384.684 138.827C384.352 139.985 383.78 141.063 383.004 141.992C384.928 141.93 386.791 141.304 388.354 140.195C388.181 141.506 387.702 142.76 386.954 143.857L388.915 143.263C386.889 146.704 384.609 149.993 382.093 153.102C381.402 153.885 380.818 154.754 380.356 155.686C379.904 157.166 379.668 158.702 379.656 160.247C379.288 162.623 378.62 164.944 377.667 167.156L375.076 173.942C374.039 168.303 375.538 161.96 372.358 157.165C371.786 156.24 370.973 155.481 370.005 154.968C367.904 153.945 365.439 154.719 363.156 155.203C357.175 156.447 350.998 155.576 344.947 155.355C343.845 155.242 342.731 155.389 341.697 155.783C340.949 156.199 340.292 156.758 339.764 157.428C338.301 159.027 337.104 160.846 336.221 162.817C335.42 164.825 334.851 166.916 334.526 169.05C334.26 170.432 334.19 174.577 333.125 175.476C330.562 177.521 328.013 168.455 327.592 166.963Z"/><path fill="#3F3D56" d="M373.675 186.752C373.325 192.169 372.793 198.015 369.137 202.064C366.344 204.9 362.61 206.651 358.618 206.997C354.656 207.326 350.669 207.191 346.74 206.596C345.128 206.513 343.546 206.134 342.075 205.477C340.227 204.512 338.597 203.187 337.285 201.581C335.972 199.975 335.005 198.122 334.442 196.135L332.733 187.996C331.878 183.919 333.293 179.386 333.181 175.227C334.024 178.019 335.315 180.659 337.005 183.048C337.734 184.197 338.686 185.193 339.806 185.978C341.527 186.902 343.45 187.4 345.409 187.429C348.446 187.691 351.494 187.788 354.542 187.719C357.36 187.756 360.168 187.383 362.876 186.614C365.601 185.825 367.97 184.138 369.585 181.832C370.383 180.603 372.681 173.03 374.137 173.928C375.594 174.826 373.787 185.038 373.675 186.752Z"/><path fill="url(#paint3_linear)" d="M360.887 192.197C361.106 192.198 361.324 192.235 361.531 192.307C361.751 192.427 361.937 192.598 362.074 192.805C362.211 193.012 362.294 193.249 362.315 193.496C362.419 194.587 362.167 195.683 361.595 196.623C361.023 197.562 360.161 198.297 359.136 198.719C357.064 199.509 354.822 199.761 352.623 199.452C351.798 199.425 350.984 199.261 350.213 198.968C349.389 198.553 348.655 197.979 348.056 197.282C347.717 196.949 347.437 196.561 347.23 196.135C347.084 195.746 347.044 195.326 347.113 194.916C347.181 194.507 347.357 194.122 347.622 193.8C348.939 192.155 351.166 192.211 353.071 192.142C355.676 192.045 358.281 192.072 360.887 192.197Z"/><path fill="#3F3D56" d="M293.303 385.569L304.509 568.59L303.711 596.961C303.711 596.961 281.3 608.79 280.543 615.092C279.787 621.394 316.485 618.243 316.485 618.243L334.862 454.333C334.862 454.333 348.435 436.202 355.634 452.744C362.834 469.286 356.433 619.818 356.433 619.818C356.433 619.818 387.374 622.582 389.769 619.03C392.164 615.479 376.603 601.3 376.603 601.3C376.603 601.3 396.366 449.994 396.366 438.234C396.366 426.474 398.761 386.813 398.761 386.813L293.303 385.569Z"/><path fill="#34CB79" d="M391.646 223.857L427.938 255.033C427.938 255.033 476.962 223.511 485.758 225.874C494.554 228.237 505.732 251.094 477.774 263.697C469.37 267.47 456.246 275.831 444.27 282.588C437.858 286.195 430.434 287.655 423.111 286.748C415.787 285.841 408.959 282.616 403.65 277.558L384.04 258.847C378.115 251.937 370.033 248.33 369.809 239.251L369.025 234.636C368.787 223.553 366.279 209.222 391.646 223.857Z"/><path fill="#34CB79" d="M295.068 233.309C289.466 235.921 283.863 238.56 277.756 239.555C271.649 240.55 265.472 239.873 259.379 238.975C246.043 237.008 232.887 234 220.033 229.979C215.299 228.5 210.467 226.855 205.494 227.007C200.522 227.159 195.269 229.55 193.294 234.041C189.835 241.891 197.678 249.961 205.13 254.328C222.148 264.305 241.45 269.709 260.499 275.057C266.69 276.701 272.909 278.442 279.297 278.083C285.88 277.71 292.099 275.112 298.15 272.556C308.333 268.189 319.076 263.214 324.917 253.9C328.573 248.068 335.058 225.736 327.718 220.734C321.864 216.643 301.077 230.49 295.068 233.309Z"/><path fill="url(#paint4_linear)" d="M499.681 221.535C502.987 217.859 505.634 213.603 509.374 210.355C513.431 206.863 518.529 204.767 523.899 204.385C525.521 204.215 527.161 204.375 528.717 204.855C532.919 206.306 535.063 210.922 535.595 215.261C536.007 218.018 535.664 220.833 534.6 223.414C532.583 227.809 527.933 230.462 523.297 231.996C518.66 233.53 513.716 234.276 509.29 236.335C504.626 238.505 500.353 242.181 495.199 242.222C491.067 242.222 483.195 237.676 485.534 232.659C486.613 230.365 490.451 229.205 492.454 227.837C495.104 226.022 497.53 223.907 499.681 221.535Z"/><path fill="url(#paint5_linear)" d="M195.255 220.664C191.95 216.988 189.302 212.732 185.563 209.485C181.517 205.975 176.423 203.86 171.051 203.459C169.434 203.288 167.799 203.448 166.247 203.929C162.045 205.38 159.888 209.996 159.37 214.335C158.945 217.09 159.284 219.908 160.35 222.488C162.367 226.883 167.017 229.536 171.668 231.07C176.318 232.604 181.234 233.35 185.675 235.409C190.339 237.579 194.611 241.241 199.78 241.296C203.898 241.296 211.783 236.75 209.43 231.734C208.366 229.44 204.514 228.279 202.511 226.911C199.854 225.115 197.419 223.019 195.255 220.664Z"/><path fill="#F9D04F" d="M198.407 273.744C198.447 273.987 198.435 274.235 198.372 274.473C198.31 274.711 198.197 274.933 198.043 275.126C194.821 280.515 186.417 280.156 181.094 276.743C178.037 274.701 175.521 271.964 173.759 268.764C171.997 265.563 171.039 261.991 170.967 258.349C170.939 257.199 171.009 256.047 171.177 254.908C171.177 254.563 171.289 254.231 171.345 253.9L171.177 254.756C170.575 257.838 169.987 260.933 169.412 264.001C168.32 269.529 167.213 275.264 164.58 280.349C161.947 285.435 157.577 289.857 151.974 291.198C148.962 291.916 145.377 291.488 143.5 289.083C142.83 288.168 142.397 287.106 142.239 285.988C141.483 281.234 144.55 276.784 146.889 272.542C150.856 265.356 153.117 257.375 153.501 249.201C151.748 251.749 149.471 253.906 146.819 255.53C138.989 260.381 128.218 260.864 120.43 255.793C117.417 253.946 115.088 251.188 113.791 247.93C113.179 246.311 113.017 244.56 113.322 242.859C113.628 241.158 114.389 239.569 115.528 238.256C116.72 236.978 118.343 236.172 120.093 235.989C121.843 235.806 123.602 236.258 125.039 237.261C126.243 238.256 127.028 239.652 128.162 240.744C131.146 243.632 136.09 243.715 139.816 241.835C143.425 239.744 146.343 236.668 148.22 232.977C149.887 230.131 151.316 227.035 153.697 224.686C154.565 223.781 155.609 223.058 156.766 222.559C157.924 222.06 159.171 221.797 160.434 221.784C162.731 221.894 165.112 224.548 167.241 223.995C171.443 222.834 169.104 215.302 173.376 214.1C175.603 213.492 177.775 215.869 177.845 218.149C177.915 220.429 176.542 222.544 175.267 224.451C180.87 226.593 183.265 233.212 183.461 239.141C183.657 245.069 182.369 251.067 183.559 256.871C184.307 260.336 185.899 263.568 188.198 266.289C190.497 269.01 193.434 271.137 196.754 272.486C197.282 272.66 197.762 272.953 198.155 273.343C198.261 273.461 198.347 273.597 198.407 273.744Z"/><path fill="#F5C24A" d="M160.406 221.701C153.795 222.35 153.403 249.146 153.403 249.146L146.721 255.475C138.891 260.326 128.12 260.809 120.332 255.738C117.319 253.89 114.99 251.132 113.693 247.874C113.081 246.256 112.919 244.505 113.224 242.804C113.53 241.103 114.291 239.513 115.43 238.201C116.622 236.923 118.245 236.117 119.995 235.934C121.745 235.751 123.504 236.203 124.941 237.206C126.145 238.201 126.93 239.597 128.064 240.688C131.048 243.577 135.992 243.66 139.718 241.78C143.327 239.689 146.245 236.613 148.122 232.922C149.789 230.075 151.217 226.98 153.599 224.63C154.473 223.712 155.527 222.979 156.697 222.475C157.867 221.972 159.129 221.708 160.406 221.701Z"/><path fill="#F5C24A" d="M198.407 273.744C198.447 273.987 198.435 274.235 198.372 274.473C198.31 274.711 198.197 274.933 198.043 275.126C194.821 280.515 186.417 280.156 181.094 276.743C178.037 274.701 175.521 271.964 173.759 268.764C171.997 265.563 171.039 261.991 170.967 258.349C170.953 258.119 170.953 257.889 170.967 257.658C170.967 256.733 171.093 255.834 171.135 254.895V254.743C171.178 250.8 171.691 246.876 172.662 243.052C173.051 241.709 173.552 240.401 174.161 239.141C174.511 238.394 176.29 236.446 176.29 235.7C176.452 241.408 176.953 247.102 177.789 252.753C178.069 254.978 178.349 257.175 178.811 259.358C179.065 261.294 179.713 263.158 180.717 264.84C181.721 266.521 183.059 267.985 184.652 269.142C186.11 270.423 187.809 271.409 189.652 272.044C192.076 272.777 194.709 272.542 197.202 273.053C197.522 273.108 197.836 273.192 198.141 273.302C198.257 273.431 198.347 273.581 198.407 273.744Z"/><path fill="#EEE" d="M566.928 254.508L559.617 258.184C556.16 259.926 552.147 260.258 548.444 259.107C544.742 257.957 541.646 255.416 539.825 252.034L517.414 210.576C517.268 210.301 517.186 209.997 517.174 209.686C517.162 209.375 517.22 209.066 517.344 208.78L518.576 206.016C518.72 205.694 518.778 205.342 518.745 204.991C518.712 204.641 518.588 204.305 518.386 204.016C518.184 203.726 517.91 203.493 517.59 203.337C517.27 203.182 516.915 203.11 516.559 203.128H514.963C514.568 203.149 514.174 203.061 513.828 202.873C513.481 202.685 513.195 202.404 513.002 202.064L503.407 184.582C503.255 184.312 503.166 184.012 503.146 183.704C503.127 183.395 503.178 183.086 503.295 182.8L507.497 172.836C507.523 172.762 507.561 172.692 507.609 172.629L501.824 163.633L511.923 157.303L518.38 167.308L531.183 168.262C531.533 168.289 531.871 168.404 532.165 168.595C532.459 168.786 532.699 169.047 532.863 169.354L544.265 190.207C544.433 190.513 544.524 190.854 544.531 191.202C544.526 191.656 544.374 192.097 544.097 192.459C543.891 192.733 543.756 193.053 543.705 193.39C543.654 193.728 543.688 194.072 543.805 194.394C543.921 194.715 544.116 195.003 544.372 195.232C544.628 195.461 544.938 195.624 545.274 195.707L550.638 197.089C551.187 197.248 551.656 197.603 551.955 198.084L573.077 234.221C574.073 235.94 574.704 237.841 574.933 239.808C575.162 241.775 574.984 243.767 574.409 245.664C573.834 247.561 572.874 249.323 571.588 250.843C570.302 252.363 568.717 253.61 566.928 254.508Z" opacity=".54"/><path fill="#EEE" d="M569.729 252.145L562.404 255.82C558.949 257.562 554.939 257.894 551.238 256.743C547.538 255.592 544.445 253.052 542.626 249.671L520.215 208.213C520.081 207.932 520.011 207.626 520.011 207.315C520.011 207.004 520.081 206.698 520.215 206.417L521.448 203.653C521.592 203.331 521.65 202.979 521.617 202.628C521.583 202.278 521.46 201.942 521.257 201.653C521.055 201.363 520.781 201.13 520.461 200.974C520.142 200.819 519.787 200.747 519.431 200.765H517.834C517.439 200.788 517.045 200.7 516.698 200.512C516.351 200.323 516.065 200.042 515.873 199.701L506.208 182.219C506.058 181.948 505.972 181.647 505.955 181.339C505.938 181.031 505.991 180.722 506.11 180.437L510.312 170.473C510.339 170.41 510.372 170.35 510.41 170.293L504.612 161.311L514.725 154.982L521.168 164.987L533.984 165.926C534.333 165.961 534.668 166.079 534.96 166.269C535.253 166.459 535.495 166.716 535.665 167.018L547.066 187.885C547.257 188.238 547.342 188.637 547.313 189.035C547.283 189.434 547.139 189.816 546.898 190.138C546.688 190.41 546.55 190.729 546.497 191.066C546.443 191.404 546.475 191.749 546.591 192.071C546.706 192.393 546.901 192.682 547.157 192.912C547.414 193.141 547.725 193.304 548.061 193.385L553.425 194.767C553.978 194.918 554.451 195.275 554.742 195.762L575.878 231.899C576.863 233.618 577.486 235.515 577.709 237.476C577.932 239.438 577.751 241.424 577.177 243.315C576.603 245.206 575.647 246.963 574.367 248.48C573.087 249.997 571.51 251.244 569.729 252.145Z" opacity=".54"/><path fill="#3F3D56" d="M465.742 345.148L480.66 598.108H654.303L667.862 346.488L465.742 345.148Z"/><path fill="url(#paint6_linear)" d="M465.742 345.148L480.66 598.108H654.303L667.862 346.488L465.742 345.148Z"/><path fill="#3F3D56" d="M677.695 318.38H457.59V347.152H677.695V318.38Z"/><path fill="#4A9575" d="M62.9881 345.148L77.9054 598.108H251.549L265.122 346.488L62.9881 345.148Z"/><path fill="#3B7F59" d="M274.954 318.38H54.8501V347.152H274.954V318.38Z"/><path fill="#EEE" d="M196.474 418.072L207.357 411.964C207.34 412.235 207.293 412.504 207.217 412.765C202.679 420.518 198.155 428.284 193.574 436.023C193.424 436.273 193.221 436.489 192.98 436.656C192.738 436.822 192.463 436.936 192.174 436.99C182.761 436.99 173.348 436.99 163.824 436.645L174.623 430.481L168.852 420.684L155.027 444.176L133.835 432.126C134.129 431.518 134.381 430.924 134.703 430.385C138.653 423.641 142.659 416.925 146.525 410.139C147.433 408.373 148.846 406.909 150.588 405.926C152.331 404.944 154.327 404.487 156.33 404.612C164.631 404.667 172.947 404.667 181.276 404.612C183.524 404.467 185.764 404.982 187.716 406.091C189.667 407.2 191.243 408.854 192.244 410.844C193.546 413.235 194.961 415.515 196.474 418.072ZM153.767 440.293C154.047 440.1 154.215 440.044 154.271 439.948C158.473 432.872 162.675 425.797 166.765 418.694C166.872 418.461 166.928 418.209 166.928 417.954C166.928 417.699 166.872 417.447 166.765 417.215C165.711 415.118 164.489 413.108 163.109 411.204C158.739 405.676 152.03 406.256 148.556 412.212L139.648 427.413C138.961 428.588 138.247 429.777 137.561 431.089L153.767 440.293Z"/><path fill="#EEE" d="M124.114 448.391L112.909 441.965C113.749 441.965 114.169 441.827 114.589 441.827C123.26 441.827 131.916 441.827 140.572 441.827C141.022 441.835 141.466 441.936 141.874 442.124C142.281 442.312 142.645 442.583 142.939 442.919C147.548 450.547 152.044 458.244 156.554 465.914C156.735 466.287 156.894 466.67 157.03 467.061L145.825 460.759L140.096 470.626H167.662V494.796C166.989 494.796 166.261 494.92 165.659 494.92C157.829 494.92 150.013 494.92 142.183 494.92C140.18 495.043 138.185 494.586 136.443 493.604C134.7 492.621 133.287 491.158 132.378 489.393C128.176 482.013 123.82 474.717 119.534 467.392C118.489 465.705 117.937 463.766 117.937 461.789C117.937 459.811 118.489 457.873 119.534 456.185C121.019 453.587 122.517 451.127 124.114 448.391ZM152.394 492.281C156.036 492.281 159.664 492.281 163.291 492.281C164.524 492.281 165.07 491.894 165.056 490.623C165.056 485.454 165.056 480.286 165.056 475.117C165.056 473.887 164.636 473.431 163.361 473.445C155.532 473.445 147.716 473.445 139.886 473.445C139.56 473.443 139.237 473.509 138.937 473.637C138.638 473.766 138.37 473.954 138.149 474.192C136.809 476.121 135.656 478.171 134.703 480.313C132.154 486.781 135.992 492.198 142.967 492.198L152.394 492.281Z"/><path fill="#EEE" d="M186.739 457.733V469.825H198.155L184.498 446.443L205.718 434.24C206.139 434.904 206.531 435.443 206.867 436.023C210.789 442.698 214.655 449.414 218.633 456.047C219.722 457.661 220.31 459.554 220.325 461.493C220.34 463.432 219.781 465.334 218.717 466.964C214.347 474.261 210.074 481.599 205.788 488.95C204.856 490.74 203.424 492.228 201.662 493.239C199.9 494.251 197.881 494.743 195.843 494.658C192.93 494.658 190.003 494.658 186.893 494.658V507.62C186.249 506.75 185.927 506.39 185.688 505.976C181.388 498.652 177.116 491.3 172.76 483.989C172.435 483.527 172.26 482.977 172.26 482.414C172.26 481.851 172.435 481.301 172.76 480.839C177.34 473.114 181.823 465.333 186.347 457.581L186.739 457.733ZM188.294 447.438L198.337 464.601C201.586 470.129 201.6 470.129 208.142 470.004H208.772C215.859 469.521 219.445 463.095 215.943 457.028C212.647 451.362 209.337 445.701 206.012 440.044C205.634 439.422 205.214 438.828 204.752 438.123L188.294 447.438Z"/><path fill="#EEE" d="M591.412 418.072L602.295 411.964C602.285 412.236 602.238 412.505 602.155 412.765C597.626 420.522 593.084 428.275 588.527 436.023C588.377 436.274 588.175 436.49 587.933 436.657C587.691 436.824 587.416 436.937 587.126 436.99C577.713 436.99 568.315 436.99 558.776 436.645L569.575 430.481L563.819 420.684C559.112 428.685 554.588 436.368 549.994 444.176L528.787 432.126C529.096 431.518 529.348 430.924 529.67 430.385C533.606 423.641 537.626 416.925 541.478 410.14C542.387 408.375 543.8 406.911 545.542 405.929C547.284 404.946 549.28 404.489 551.282 404.612C559.602 404.667 567.918 404.667 576.229 404.612C578.477 404.47 580.719 404.986 582.672 406.094C584.625 407.203 586.204 408.855 587.21 410.844C588.485 413.235 589.913 415.515 591.412 418.072ZM548.719 440.293C548.999 440.1 549.153 440.044 549.209 439.948C553.402 432.872 557.567 425.787 561.703 418.694C561.811 418.462 561.866 418.209 561.866 417.954C561.866 417.699 561.811 417.447 561.703 417.215C560.649 415.121 559.432 413.111 558.062 411.204C553.678 405.676 546.982 406.256 543.495 412.212C540.539 417.284 537.556 422.342 534.6 427.414C533.914 428.588 533.2 429.777 532.499 431.089L548.719 440.293Z"/><path fill="#EEE" d="M519.053 448.391L507.847 441.965C508.701 441.965 509.122 441.827 509.542 441.827C518.198 441.827 526.854 441.827 535.525 441.827C535.973 441.836 536.414 441.938 536.819 442.126C537.224 442.314 537.585 442.584 537.878 442.919C542.486 450.547 546.982 458.244 551.507 465.914C551.619 466.121 551.689 466.37 551.983 467.061L540.777 460.759L535.048 470.626H562.544V494.796C561.858 494.796 561.143 494.92 560.527 494.92C552.711 494.92 544.881 494.92 537.065 494.92C535.063 495.044 533.067 494.586 531.325 493.604C529.583 492.621 528.17 491.158 527.261 489.393C523.059 482.013 518.702 474.717 514.416 467.393C513.372 465.705 512.819 463.766 512.819 461.789C512.819 459.812 513.372 457.873 514.416 456.185C515.915 453.587 517.414 451.127 519.053 448.391ZM547.346 492.281C550.974 492.281 554.602 492.281 558.244 492.281C559.476 492.281 560.009 491.894 559.995 490.623C559.995 485.454 559.995 480.286 559.995 475.117C559.995 473.888 559.574 473.432 558.3 473.445C550.47 473.445 542.654 473.445 534.824 473.445C534.498 473.443 534.175 473.509 533.876 473.637C533.577 473.766 533.308 473.955 533.087 474.192C531.752 476.122 530.603 478.171 529.656 480.313C527.092 486.781 530.944 492.198 537.92 492.198L547.346 492.281Z"/><path fill="#EEE" d="M581.677 457.733V469.825H593.051L579.394 446.443L600.657 434.24C601.077 434.904 601.469 435.443 601.805 436.023C605.727 442.698 609.593 449.414 613.571 456.047C614.662 457.661 615.251 459.554 615.266 461.493C615.281 463.433 614.721 465.334 613.655 466.964C609.304 474.261 604.999 481.589 600.741 488.95C599.806 490.737 598.374 492.224 596.612 493.235C594.85 494.246 592.832 494.74 590.796 494.658C587.868 494.658 584.941 494.658 581.831 494.658V507.62C581.187 506.75 580.865 506.39 580.627 505.976C576.327 498.652 572.055 491.3 567.713 483.989C567.375 483.531 567.194 482.98 567.194 482.414C567.194 481.848 567.375 481.297 567.713 480.839C572.279 473.114 576.775 465.333 581.285 457.581L581.677 457.733ZM583.232 447.438L593.275 464.601C596.539 470.129 596.539 470.129 603.08 470.004H603.696C610.798 469.521 614.383 463.095 610.882 457.028C607.576 451.362 604.261 445.701 600.937 440.044C600.573 439.422 600.138 438.828 599.676 438.123L583.232 447.438Z"/><path fill="url(#paint7_linear)" d="M312.731 385.79L293.261 385.569C293.261 385.569 293.261 385.431 293.261 385.168C293.149 381.022 292.309 347.607 293.261 317.675C293.254 317.569 293.254 317.463 293.261 317.357C293.822 299.213 295.068 282.408 297.464 274.255C297.646 273.647 297.842 273.08 298.052 272.569C298.052 272.569 305.588 266.765 306.106 269.805C306.652 272.555 308.851 365.904 312.731 385.79Z"/><path fill="url(#paint8_linear)" d="M378.914 386.813L398.383 386.605C398.383 386.605 398.383 386.467 398.383 386.191C398.495 382.045 401.759 281.8 399.308 273.647C399.308 273.647 395.932 270.565 393.327 283.403C392.752 286.181 382.793 366.941 378.914 386.813Z"/><path fill="#34CB79" d="M518.282 201.041L544.055 188.645L544.447 194.104L550.582 197.075L558.454 209.471L529.068 224.257L520.271 208.241L522.036 202.976L518.282 201.041Z" opacity=".18"/><defs><linearGradient id="paint0_linear" x1="346.18" x2="346.18" y1="551.123" y2="688.196" gradientUnits="userSpaceOnUse"><stop offset=".01"/><stop offset=".13" stop-opacity=".69"/><stop offset="1" stop-opacity="0"/></linearGradient><linearGradient id="paint1_linear" x1="343.63" x2="362.147" y1="211.392" y2="211.392" gradientUnits="userSpaceOnUse"><stop stop-color="#ECC4D7"/><stop offset=".42" stop-color="#EFD4D1"/><stop offset=".6" stop-color="#F0DCCE"/><stop offset="1" stop-color="#F2EAC9"/></linearGradient><linearGradient id="paint2_linear" x1="11324.9" x2="12542.9" y1="7176.73" y2="7176.73" gradientUnits="userSpaceOnUse"><stop stop-color="#ECC4D7"/><stop offset=".42" stop-color="#EFD4D1"/><stop offset=".6" stop-color="#F0DCCE"/><stop offset="1" stop-color="#F2EAC9"/></linearGradient><linearGradient id="paint3_linear" x1="4564.32" x2="4731.09" y1="1260.17" y2="1260.17" gradientUnits="userSpaceOnUse"><stop stop-color="#ECC4D7"/><stop offset=".42" stop-color="#EFD4D1"/><stop offset=".6" stop-color="#F0DCCE"/><stop offset="1" stop-color="#F2EAC9"/></linearGradient><linearGradient id="paint4_linear" x1="19478" x2="21309.2" y1="6357.52" y2="6357.52" gradientUnits="userSpaceOnUse"><stop stop-color="#ECC4D7"/><stop offset=".42" stop-color="#EFD4D1"/><stop offset=".6" stop-color="#F0DCCE"/><stop offset="1" stop-color="#F2EAC9"/></linearGradient><linearGradient id="paint5_linear" x1="250587" x2="248756" y1="6332.8" y2="6332.8" gradientUnits="userSpaceOnUse"><stop stop-color="#ECC4D7"/><stop offset=".42" stop-color="#EFD4D1"/><stop offset=".6" stop-color="#F0DCCE"/><stop offset="1" stop-color="#F2EAC9"/></linearGradient><linearGradient id="paint6_linear" x1="82239.3" x2="82239.3" y1="64637.6" y2="95083.9" gradientUnits="userSpaceOnUse"><stop offset=".01"/><stop offset=".13" stop-opacity=".69"/><stop offset="1" stop-opacity="0"/></linearGradient><linearGradient id="paint7_linear" x1="3584.22" x2="10212.8" y1="38971.3" y2="37691.6" gradientUnits="userSpaceOnUse"><stop offset=".01"/><stop offset=".13" stop-opacity=".69"/><stop offset="1" stop-opacity="0"/></linearGradient><linearGradient id="paint8_linear" x1="96462.3" x2="90174.3" y1="37044" y2="35707" gradientUnits="userSpaceOnUse"><stop offset=".01"/><stop offset=".13" stop-opacity=".69"/><stop offset="1" stop-opacity="0"/></linearGradient></defs></svg>