<svg xmlns="http://www.w3.org/2000/svg" width="552" height="363" fill="none" viewBox="0 0 552 363"><g clip-path="url(#clip0)"><path fill="#000" d="M511.888 297.863C510.165 299.378 508.403 300.85 506.604 302.279C506.301 302.524 505.989 302.759 505.681 303.009C499.262 307.99 492.522 312.543 485.506 316.64L484.194 317.404C483.877 317.596 483.565 317.774 483.234 317.952C475.903 322.185 468.299 326.081 460.604 329.771L460.522 329.814L459.941 330.088C453.734 333.064 447.435 335.912 441.043 338.631L440.889 338.689C438.007 339.903 435.125 341.085 432.243 342.235C431.066 342.715 429.884 343.162 428.702 343.618C426.478 344.469 424.249 345.305 422.001 346.107L421.723 346.213L421.242 346.381L420.642 346.602C414.778 348.697 408.836 350.632 402.815 352.406L402.71 352.435C398.511 353.659 394.286 354.791 390.033 355.832L389.452 355.976C383.207 357.485 376.861 358.782 370.477 359.82L369.007 360.055C364.338 360.789 359.637 361.388 354.904 361.852C328.296 364.423 301.371 362.333 274.927 358.748C221.529 351.503 168.838 337.92 120.782 316.63C111.559 312.546 102.515 308.174 93.6508 303.513C93.5787 303.475 93.5163 303.437 93.4442 303.403C88.1378 300.613 82.9034 297.706 77.741 294.682C76.2278 293.808 74.7243 292.914 73.2304 292.016C71.3922 290.908 69.562 289.786 67.7398 288.653C65.3379 287.154 62.9361 285.616 60.5342 284.045L59.4102 283.295L58.9778 283.002C58.3678 282.594 57.7673 282.185 57.1621 281.772C34.5848 266.397 14.4526 247.765 4.9413 224.447C-6.04951 197.541 0.98307 163.428 28.2055 147.524C37.5631 142.047 48.4386 139.073 59.4294 136.617L60.5535 136.368C62.4125 135.959 64.2715 135.565 66.1209 135.171C72.6011 133.797 79.1149 132.433 85.5662 130.909C88.9288 130.117 92.2577 129.285 95.5674 128.387L96.9221 128.012C104.904 125.87 112.71 123.12 120.273 119.787H120.321C121.133 119.426 121.935 119.051 122.723 118.667C123.232 118.427 123.741 118.187 124.25 117.922C132.416 113.858 141.063 108.222 147.716 101.505C148.249 100.967 148.768 100.419 149.273 99.8711C149.662 99.4434 150.046 99.011 150.416 98.5786C155.08 93.1397 158.308 87.1002 158.923 80.6907C159.13 78.5369 159.033 76.3647 158.635 74.238C157.881 70.2068 157.151 66.2622 156.613 62.4136C155.609 55.1825 155.268 48.2686 156.661 41.6045C158.078 34.8106 161.291 28.2714 167.426 21.9292C168.351 20.9683 169.349 20.0073 170.418 19.0464C175.379 14.6931 180.993 11.1457 187.053 8.53369C187.803 8.21338 188.557 7.89307 189.316 7.57275C206.167 0.750077 226.415 -0.672113 245.332 0.269608C263.005 1.17932 280.566 3.62288 297.817 7.57275C299.186 7.88025 300.555 8.20217 301.914 8.53369C316.589 12.0892 331.028 16.555 345.147 21.9052C381.838 35.7091 416.467 54.875 448.82 76.0253C449.137 76.2319 449.454 76.4385 449.781 76.6499C451.132 77.5308 452.476 78.4149 453.811 79.3021C456.396 81.0158 458.957 82.7407 461.497 84.4768L463.212 85.6443C464.057 86.2209 464.898 86.7991 465.734 87.3788L468.309 89.1614C468.43 89.2343 468.546 89.3162 468.655 89.4064L470.845 90.9247C472.113 91.8088 473.372 92.6976 474.635 93.5913L477.344 95.5132C477.906 95.9168 478.473 96.3156 479.035 96.724L481.918 98.8284L482.561 99.3089C482.696 99.405 482.83 99.5011 482.96 99.6068L483.042 99.6597C490.852 105.392 498.476 111.335 505.619 117.634L506.541 118.451L506.637 118.537C507.415 119.229 508.194 119.931 508.957 120.637C518.286 129.132 526.644 138.261 533.475 148.35C564.853 194.956 555.539 259.488 511.888 297.863Z" opacity=".1"/><path fill="#65617D" d="M389.847 169.971C389.847 169.971 392.643 155.317 401.626 155.24L408.197 168.76L403.778 171.763C403.778 171.763 394.286 172.066 389.847 169.971Z"/><path fill="#000" d="M408.178 168.741L403.778 171.763C403.778 171.763 397.082 171.975 392.297 170.802C391.455 170.607 390.634 170.328 389.847 169.971C389.847 169.971 389.847 169.889 389.895 169.736C389.894 169.716 389.894 169.697 389.895 169.678C390.309 167.839 390.878 166.039 391.596 164.297C391.87 163.638 392.187 162.961 392.523 162.284C393.839 159.751 395.688 157.267 398.22 156.037C399.155 155.579 400.173 155.313 401.213 155.254H401.482H401.611L401.76 155.552L403.98 160.121L408.178 168.741Z" opacity=".1"/><path fill="#65617D" d="M482.789 229.622C482.789 229.622 492.228 228.718 493.059 229.396C493.89 230.073 499.251 233.552 502.426 231.361C505.601 229.17 503.483 221.54 503.483 221.237C503.483 220.935 503.18 210.134 503.18 210.134L497.517 202.504L490.417 189.137L475.919 187.696L476.294 208.923L476.222 219.801L482.789 229.622Z"/><path fill="#000" d="M482.789 229.622C482.789 229.622 492.228 228.718 493.059 229.396C493.89 230.073 499.251 233.552 502.426 231.361C505.601 229.17 503.483 221.54 503.483 221.237C503.483 220.935 503.18 210.134 503.18 210.134L497.517 202.504L490.417 189.137L475.919 187.696L476.294 208.923L476.222 219.801L482.789 229.622Z" opacity=".1"/><path fill="#A5636D" d="M399.718 154.846C399.718 154.846 398.974 164.061 393.209 164.205C393.209 164.205 391.586 163.245 389.395 161.587C384.351 157.815 376.353 150.56 378.563 143.81C381.733 134.142 397.139 151.978 397.139 151.978L398.325 153.304L399.718 154.846Z"/><path fill="#000" d="M399.719 154.846C399.719 154.846 398.974 164.061 393.21 164.205C393.21 164.205 391.586 163.244 389.395 161.587L388.915 160.957C389.889 161.468 390.963 161.758 392.061 161.808C393.503 161.837 395.126 161.327 396.169 159.218C396.771 158.032 397.302 156.811 397.759 155.562C398.031 154.828 398.224 154.068 398.335 153.294L399.719 154.846Z" opacity=".1"/><path fill="#E7EFFD" d="M397.226 171.537L395.933 169.875L391.61 164.278L389.367 161.419C390.339 161.927 391.412 162.216 392.508 162.264C393.949 162.298 395.573 161.784 396.615 159.675C397.22 158.49 397.751 157.269 398.206 156.018C398.921 153.981 398.907 152.934 398.652 152.578C398.398 152.223 400.257 153.947 401.15 154.798L401.184 154.827L401.597 155.221L401.755 155.528L403.941 159.905C403.941 159.905 403.941 159.968 403.941 160.088C404.143 161.476 404.878 170.288 397.226 171.537Z"/><path fill="#A5636D" d="M480.675 111.637L469.497 123.577C469.497 123.577 455.153 117.811 456.661 115.889C457.247 115.13 457.142 112.733 456.815 110.085C456.286 105.9 455.153 101.081 455.153 101.081C455.153 101.081 480.223 97.0021 478.105 101.235C477.336 102.777 477.466 104.598 477.946 106.251C478.563 108.18 479.484 109.999 480.675 111.637Z"/><path fill="#000" d="M478.105 101.216C477.336 102.758 476.966 102.907 477.447 104.579C474.171 108.096 470.001 111.945 464.818 111.945C462.041 111.95 459.301 111.308 456.815 110.071C456.286 105.886 455.153 101.067 455.153 101.067C455.153 101.067 480.223 96.9829 478.105 101.216Z" opacity=".1"/><path fill="#A5636D" d="M482.793 93.5091C482.793 98.2775 480.9 102.851 477.529 106.222C474.158 109.594 469.585 111.488 464.818 111.488C460.051 111.488 455.479 109.594 452.108 106.222C448.737 102.851 446.843 98.2775 446.843 93.5091C446.843 93.4227 446.843 93.3362 446.843 93.2497C446.946 88.5281 448.903 84.0368 452.29 80.7463C455.677 77.4558 460.222 75.6303 464.944 75.6644C469.665 75.6985 474.184 77.5894 477.523 80.9284C480.862 84.2675 482.753 88.7866 482.789 93.5091H482.793Z"/><path fill="#000" d="M485.392 212.108C482.99 212.108 475.083 212.195 466.226 212.334H466.115L463.19 212.382H463.098C452.593 212.55 442.241 210.499 438.086 210.888C429.247 211.719 441.256 202.72 441.256 202.72C447.84 204.318 454.613 205.003 461.383 204.757L463.925 204.623C471.951 204.171 480.022 203.417 484.239 202.148C484.532 204.493 484.96 207.89 485.392 212.108Z" opacity=".1"/><path fill="#5F5D7E" d="M485.392 211.657C482.99 211.657 475.083 211.738 466.226 211.883H466.115L463.19 211.931H463.098C452.593 212.099 442.241 210.047 438.086 210.436C429.247 211.263 441.256 202.268 441.256 202.268C447.84 203.866 454.613 204.55 461.383 204.301L463.925 204.171C471.951 203.719 480.022 202.96 484.239 201.697C484.532 204.041 484.96 207.448 485.392 211.657Z"/><path fill="#000" d="M459.981 116.639L446.084 123.135L435.367 206.054C435.367 206.054 441.708 203.172 445.334 204.997C448.961 206.823 460.134 205.151 460.134 205.151C460.134 205.151 468.301 204.671 469.497 205.603C470.693 206.535 484.907 201.826 484.907 201.826C484.907 201.826 487.472 196.085 485.508 195.181C483.543 194.278 486.113 185.346 486.113 185.346L484.907 125.523L482.505 117.835L476.011 113.91L469.367 119.195L466.197 119.652L459.981 116.639Z" opacity=".1"/><path fill="#E7EFFD" d="M459.981 115.716L446.089 122.212L435.367 205.151C435.367 205.151 441.708 202.268 445.334 204.094C448.961 205.92 460.134 204.243 460.134 204.243C460.134 204.243 468.301 203.791 469.497 204.695C470.693 205.598 484.907 200.918 484.907 200.918C484.907 200.918 487.472 195.181 485.508 194.273C483.543 193.365 486.113 184.452 486.113 184.452L484.907 124.629L482.505 116.942L476.011 113.011L469.367 118.297L466.197 118.748L459.981 115.716Z"/><path fill="#000" d="M459.755 119.57C459.755 119.57 463.761 124.326 463.685 125.311C463.608 126.296 463.459 128.631 463.459 128.631L460.461 134.753C460.461 134.753 458.799 142.383 458.799 143.968C458.799 145.554 456.157 159.3 456.157 159.3L452.987 180.441L448.98 208.164L453.059 215.188L457.891 211.109L464.304 161.717L465.664 151.973C465.664 151.973 467.105 134.45 467.105 132.639C467.105 130.827 466.274 126.066 466.274 126.066C466.274 126.066 467.258 121.535 471.337 120.478C475.415 119.421 471.034 120.247 471.034 120.247L468.695 118.359L466.653 119.19C466.653 119.19 460.966 117.456 459.755 119.57Z" opacity=".1"/><path fill="#34CB79" d="M459.303 119.118C459.303 119.118 463.305 123.875 463.233 124.855C463.161 125.835 463.002 128.18 463.002 128.18L459.981 134.301C459.981 134.301 458.319 141.926 458.319 143.512C458.319 145.097 455.677 158.848 455.677 158.848L452.501 179.989L448.5 207.707L452.578 214.732L457.411 210.653L463.824 161.265L465.183 151.521C465.183 151.521 466.624 133.998 466.624 132.182C466.624 130.366 465.793 125.614 465.793 125.614C465.793 125.614 466.754 121.079 470.852 120.022C474.949 118.965 470.554 119.796 470.554 119.796L468.209 117.907L466.173 118.739C466.173 118.739 460.514 116.999 459.303 119.118Z"/><path fill="#000" d="M456.662 111.186C456.662 111.186 456.056 111.637 455.907 114.659C455.759 117.682 453.64 124.48 453.64 124.48C453.64 124.48 461.494 119.041 465.424 119.647L456.662 111.186Z" opacity=".1"/><path fill="#E7EFFD" d="M456.662 110.278C456.662 110.278 456.056 110.734 455.907 113.751C455.759 116.769 453.64 123.572 453.64 123.572C453.64 123.572 461.494 118.133 465.424 118.739L456.662 110.278Z"/><path fill="#000" d="M478.11 108.769L465.745 119.647C465.745 119.647 476.169 125.84 477.529 127.334C478.888 128.828 480.247 112.531 480.247 112.531L478.11 108.769Z" opacity=".1"/><path fill="#E7EFFD" d="M478.561 107.861L466.177 118.739C466.177 118.739 476.596 124.932 477.956 126.426C479.315 127.92 480.675 111.618 480.675 111.618L478.561 107.861Z"/><path fill="#000" d="M457.098 111.186C457.098 111.186 455.739 110.503 454.456 112.468C453.174 114.433 450.758 115.351 450.758 115.351C450.758 115.351 437.009 117.542 436.481 119.353L430.063 119.728C430.063 119.728 427.796 120.002 427.585 124.807C427.373 129.612 426.143 130.015 426.143 130.015C426.143 130.015 423.497 134.7 423.742 137.116C423.987 139.533 421.7 140.744 421.7 140.744L431.159 165.267C431.159 165.267 431.461 175.391 429.717 179.09C427.974 182.79 424.731 199.184 424.731 199.184C424.731 199.184 426.091 198.881 426.014 199.789C425.937 200.697 424.352 210.59 424.352 210.59C424.352 210.59 423.9 214.515 423.146 215.875C422.392 217.235 422.315 224.336 422.315 224.336L421.071 229.472C421.071 229.472 423.953 235.892 428.324 234.983C432.696 234.075 440.631 216.932 440.631 216.932L445.69 198.429L449.619 180.147L450.753 167.761L452.564 140.34L455.206 122.212C455.206 122.212 458.17 112.468 457.098 111.186Z" opacity=".1"/><path fill="#65617D" d="M456.662 110.278C456.662 110.278 455.302 109.6 454.02 111.565C452.737 113.53 450.316 114.448 450.316 114.448C450.316 114.448 436.572 116.639 436.044 118.45L429.626 118.83C429.626 118.83 427.359 119.133 427.133 123.889C426.907 128.646 425.692 129.102 425.692 129.102C425.692 129.102 423.05 133.787 423.29 136.204C423.53 138.62 421.254 139.826 421.254 139.826L430.678 164.359C430.678 164.359 430.981 174.483 429.237 178.182C427.494 181.882 424.256 198.276 424.256 198.276C424.256 198.276 425.615 197.973 425.538 198.881C425.462 199.789 423.876 209.682 423.876 209.682C423.876 209.682 423.425 213.607 422.671 214.967C421.916 216.327 421.84 223.428 421.84 223.428L420.639 228.588C420.639 228.588 423.521 235.008 427.887 234.104C432.254 233.201 440.199 216.048 440.199 216.048L445.258 197.545L449.187 179.287L450.316 166.901L452.132 139.485L454.774 121.357C454.774 121.357 457.718 111.565 456.662 110.278Z"/><path fill="#000" d="M408.178 168.741L403.778 171.763C403.778 171.763 397.082 171.975 392.297 170.802L389.857 169.721L389.376 169.505L389.881 169.664C392.408 170.413 394.382 170.399 395.924 169.88C402.125 167.795 401.439 157.556 401.208 155.24C401.208 155.009 401.169 154.86 401.16 154.803C401.159 154.793 401.159 154.783 401.16 154.774L401.198 154.831C401.281 154.973 401.376 155.106 401.482 155.23C401.568 155.334 401.661 155.432 401.76 155.523L403.946 159.9C403.946 159.9 403.946 159.963 403.946 160.083L408.178 168.741Z" opacity=".1"/><path fill="#65617D" d="M423.357 139.221L421.244 139.826L420.941 144.151C420.941 144.151 418.448 143.776 417.771 146.721C417.093 149.666 415.883 151.045 415.883 151.045C415.883 151.045 411.728 154.519 411.502 157.465L408.932 159.05C408.932 159.05 402.966 157.69 401.606 155.274C401.606 155.274 404.325 174.761 389.828 170.005C389.828 170.005 406.064 177.106 406.818 178.086C407.572 179.066 412.559 181.93 417.089 179.528C421.618 177.125 422.603 173.334 422.603 173.334C422.603 173.334 426.984 167.218 427.133 166.31C427.282 165.402 430.683 164.345 430.683 164.345L437.178 148.638L423.357 139.221Z"/><path fill="#000" d="M476.371 117.83L478.561 107.861C478.561 107.861 479.522 111.109 480.526 111.863C481.53 112.617 483.773 114.357 483.773 114.357C483.773 114.357 487.021 115.87 488.149 115.87C489.278 115.87 495.403 117.456 496.157 118.273C496.911 119.089 499.933 118.498 499.933 118.498C499.933 118.498 502.426 119.33 504.616 119.858C506.807 120.387 507.864 124.014 507.407 125.446C507.225 126.16 507.227 126.908 507.411 127.621C507.596 128.335 507.958 128.99 508.464 129.525C509.372 130.433 509.824 133.369 509.824 133.369C510.936 133.731 511.86 134.519 512.393 135.56C513.148 137.222 512.922 140.845 512.922 140.845L501.672 156.701C501.672 156.701 501.821 162.817 501.369 164.177C500.918 165.536 502.954 188.652 502.954 188.652L505.294 228.382C505.294 228.382 502.2 231.024 501.518 231.327C500.836 231.63 500.159 217.278 500.159 216.75C500.159 216.221 482.716 190.612 482.716 190.612C482.716 190.612 480.372 186.836 480.372 186.004C480.372 185.173 478.182 177.548 478.182 177.548L474.872 162.851L476.371 117.83Z" opacity=".1"/><path fill="#65617D" d="M513.859 140.004C513.859 140.523 513.83 140.869 513.83 140.869L502.585 156.725C502.585 156.725 502.738 162.846 502.287 164.205C502.023 164.993 502.599 173.123 503.132 179.797C503.512 184.601 503.872 188.676 503.872 188.676L504.862 205.531L506.207 228.411C506.207 228.411 503.113 231.053 502.436 231.356C501.758 231.659 501.076 217.307 501.076 216.774C501.076 216.24 483.62 190.631 483.62 190.631C483.62 190.631 481.28 186.85 481.28 186.019C481.28 185.188 479.09 177.558 479.09 177.558L475.771 162.831L477.279 117.811L478.561 107.842C478.561 107.842 480.449 111.094 481.444 111.844C482.438 112.593 484.686 114.338 484.686 114.338C484.686 114.338 487.933 115.851 489.067 115.851C490.201 115.851 496.316 117.437 497.075 118.253C497.834 119.07 500.851 118.479 500.851 118.479C500.851 118.479 503.339 119.31 505.529 119.839C507.72 120.367 508.777 123.995 508.325 125.427C508.142 126.141 508.142 126.889 508.327 127.603C508.512 128.316 508.875 128.971 509.382 129.506C510.285 130.409 510.741 133.35 510.741 133.35C511.853 133.713 512.776 134.501 513.311 135.541C513.825 136.732 513.873 138.827 513.859 140.004Z"/><path fill="#000" d="M432.249 342.234C431.072 342.715 429.89 343.161 428.709 343.618C425.005 342.537 421.546 341.264 421.546 341.264C425.129 341.392 428.702 341.716 432.249 342.234Z" opacity=".1"/><path fill="#000" d="M467.989 301.908C467.989 301.908 476.976 304.022 477.505 305.459L467.989 301.908Z" opacity=".1"/><path fill="#000" d="M433.325 308.404C433.325 308.404 428.642 309.764 433.176 312.483C437.711 315.203 433.325 308.404 433.325 308.404Z" opacity=".1"/><path fill="#000" d="M454.091 235.796C454.62 235.796 462.853 233.076 465.721 234.287C468.589 235.498 472.144 235.493 472.144 235.493L454.091 235.796Z" opacity=".1"/><path fill="#000" d="M455.177 244.444L455.095 245.193L448.053 263.615C448.053 263.615 446.92 269.203 445.935 272.374C445.317 274.529 444.826 276.719 444.465 278.932L450.71 240.273L455.177 244.444Z" opacity=".1"/><path fill="#3F3D56" d="M466.115 211.882L463.189 211.931H463.098L461.383 204.315C462.224 204.277 463.074 204.233 463.924 204.181L466.115 211.882Z"/><path fill="#A5636D" d="M501.744 202.643L499.866 204.195L493.607 209.37C493.607 209.37 476.616 218.436 471.937 209.821C467.811 202.235 487.074 196.82 491.714 195.638C492.343 195.479 492.703 195.398 492.703 195.398L501.744 202.643Z"/><path fill="#000" d="M429.175 128.406C429.175 128.406 432.494 129.919 433.248 132.033C434.003 134.147 429.175 128.406 429.175 128.406Z" opacity=".1"/><path fill="#000" d="M418.9 151.069C418.9 151.069 414.067 156.96 416.017 159.237C417.968 161.515 418.9 151.069 418.9 151.069Z" opacity=".1"/><path fill="#000" d="M505.294 131.731C505.294 131.731 500.764 132.182 500.61 136.112L505.294 131.731Z" opacity=".1"/><path fill="#000" d="M463.305 193.668C463.786 193.216 474.181 177.812 476.597 179.167L463.305 193.668Z" opacity=".1"/><path fill="#000" d="M482.793 93.5091C482.796 96.4699 482.065 99.3852 480.665 101.994H480.531C479.392 101.754 478.802 100.428 477.932 99.5919C477.397 99.083 476.716 98.7544 475.985 98.6518C475.253 98.5493 474.508 98.6781 473.854 99.0201C473.192 99.4154 472.653 99.9879 472.299 100.673C471.945 101.358 471.79 102.129 471.851 102.897C471.274 100.495 471.457 97.9054 470.89 95.4838C470.323 93.0623 468.637 90.6071 466.322 90.5638C465.323 90.5638 464.16 90.9338 463.439 90.1842C463.002 89.7326 462.916 89.0215 462.589 88.4738C460.932 85.7976 455.898 87.1525 453.842 88.5266C451.786 89.9008 449.398 92.0917 446.843 93.2689C446.946 88.5473 448.903 84.056 452.29 80.7655C455.677 77.475 460.222 75.6495 464.944 75.6836C469.665 75.7177 474.184 77.6085 477.523 80.9476C480.862 84.2867 482.753 88.8057 482.789 93.5283L482.793 93.5091Z" opacity=".1"/><path fill="#4C3E42" d="M462.594 88.0029C462.921 88.5507 463.007 89.2618 463.444 89.7134C464.165 90.4581 465.327 90.0738 466.326 90.093C468.642 90.1314 470.333 92.5866 470.895 95.0082C471.457 97.4298 471.274 100.005 471.855 102.422C471.796 101.654 471.952 100.884 472.306 100.2C472.659 99.516 473.197 98.9442 473.859 98.5493C474.512 98.2069 475.257 98.078 475.987 98.1805C476.718 98.2831 477.398 98.612 477.932 99.121C478.802 99.9474 479.373 101.274 480.536 101.523C481.698 101.773 482.774 100.668 483.187 99.467C483.6 98.2658 483.567 96.9493 483.836 95.7049C484.35 93.3458 485.887 91.4143 486.718 89.1753C487.731 86.4493 487.704 83.4454 486.641 80.7382C486.074 79.2968 485.234 78.0428 484.657 76.6254C483.793 74.4729 483.562 72.0465 482.505 69.9949C480.728 66.5596 476.539 64.8443 473.1 66.1512C471.457 66.771 470.03 67.9673 468.363 68.5007C466.134 69.2166 463.747 68.6784 461.436 68.3565C459.126 68.0346 456.57 68.0058 454.711 69.5241C452.574 71.273 451.987 74.5594 449.98 76.4813C449.134 77.2885 448.087 77.8026 447.198 78.5473C446.31 79.292 445.541 80.4019 445.642 81.6127C445.776 83.179 447.309 84.6012 446.742 86.0474C446.538 86.4682 446.252 86.844 445.901 87.1525C444.221 88.9179 442.97 91.0471 442.246 93.3746C446.29 94.6382 450.662 90.1795 453.827 88.0894C455.907 86.6817 460.941 85.3219 462.594 88.0029Z"/><path fill="#000" d="M501.744 202.643L499.865 204.195C498.208 201.432 491.401 195.917 491.401 195.917L491.694 195.633C492.324 195.475 492.684 195.393 492.684 195.393L501.744 202.643Z" opacity=".1"/><path fill="#E7EFFD" d="M503.56 199.861C503.56 199.861 502.882 201.543 502.186 202.999C501.489 204.454 500.745 205.771 500.687 204.699C500.61 202.581 491.853 195.479 491.853 195.479L493.04 194.326L494.418 192.986L503.56 199.861Z"/><path fill="#000" d="M503.862 188.681L504.852 205.536C502.508 201.889 496.066 192.534 491.925 192.837L501.97 181.305C502.389 180.841 502.775 180.346 503.123 179.826C503.502 184.621 503.862 188.681 503.862 188.681Z" opacity=".1"/><path fill="#000" d="M503.56 199.861C503.56 199.861 502.883 201.543 502.186 202.999C499.554 199.385 495.941 195.124 493.059 194.326L494.438 192.986L503.56 199.861Z" opacity=".1"/><path fill="#65617D" d="M511.111 138.741L513.83 140.855C513.83 140.855 518.36 140.932 518.812 144.698C519.263 148.465 523.418 150.214 523.418 150.214C523.418 150.214 526.517 153.308 526.517 154.745C526.517 156.182 528.856 158.747 528.856 158.973C528.856 159.199 531.123 163.807 530.821 164.638C530.518 165.469 533.223 169.097 532.406 170.456C531.724 171.676 531.119 172.937 530.595 174.233C530.595 174.233 527.045 181.032 525.229 182.314C523.414 183.597 515.113 194.398 515.113 194.398C515.113 194.398 506.202 204.671 506.202 207.851C506.202 207.851 497.517 193.346 492.382 193.726L502.426 182.17C502.426 182.17 504.16 180.282 504.237 179.148C504.314 178.014 509.07 172.801 511.337 172.575C511.337 172.575 511.712 169.476 510.732 169.404C509.752 169.332 508.921 166.911 508.921 166.911C508.921 166.911 502.273 159.055 502.196 154.068C502.119 149.08 511.111 138.741 511.111 138.741Z"/><path fill="#000" d="M515.113 145.948C515.113 145.948 508.767 150.627 510.126 152.141C511.486 153.654 515.113 145.948 515.113 145.948Z" opacity=".1"/><path fill="#000" d="M515.416 165.267C515.416 165.267 527.194 161.491 528.385 165.267H515.416Z" opacity=".1"/><path fill="#000" d="M432.307 145.025C432.307 145.025 432.307 162.245 430.832 163.946C429.357 165.647 432.307 145.025 432.307 145.025Z" opacity=".1"/><path fill="#000" d="M500.385 150.574L502.575 156.729C502.575 156.729 503.445 150.69 500.385 150.574Z" opacity=".1"/><g opacity=".1"><path fill="#000" d="M447.011 84.5531C447.563 83.1357 446.117 81.7472 445.925 80.2289C445.735 80.6574 445.653 81.1258 445.685 81.5934C445.781 82.7417 446.646 83.8084 446.852 84.8702C446.915 84.7696 446.968 84.6635 447.011 84.5531Z" opacity=".1"/><path fill="#000" d="M472.052 100.822C471.509 98.4194 471.668 95.9162 471.12 93.5379C470.573 91.1596 468.867 88.6563 466.552 88.6179C465.553 88.6179 464.39 88.983 463.67 88.2383C463.233 87.7866 463.146 87.0755 462.82 86.5278C461.167 83.8516 456.133 85.2065 454.072 86.5807C450.983 88.6323 446.742 92.9277 442.779 91.9571C442.591 92.4136 442.414 92.8748 442.265 93.3505C446.309 94.6141 450.681 90.1554 453.846 88.0653C455.907 86.696 460.937 85.3362 462.594 88.0173C462.92 88.565 463.007 89.2761 463.444 89.7277C464.165 90.4725 465.327 90.0881 466.326 90.1073C468.642 90.1458 470.333 92.601 470.895 95.0225C471.457 97.4441 471.274 100.019 471.855 102.436C471.813 101.89 471.88 101.341 472.052 100.822Z" opacity=".1"/><path fill="#000" d="M483.408 97.987C482.995 99.1882 481.919 100.288 480.756 100.043C479.594 99.7984 479.027 98.4771 478.158 97.6411C477.621 97.1336 476.94 96.8063 476.209 96.7047C475.478 96.603 474.734 96.7322 474.079 97.0741C473.45 97.4493 472.932 97.9863 472.58 98.6292C472.227 99.2722 472.053 99.9977 472.076 100.73C472.379 99.8078 473.012 99.0293 473.854 98.5443C474.507 98.202 475.252 98.0731 475.982 98.1756C476.713 98.2782 477.393 98.607 477.927 99.1161C478.797 99.9425 479.368 101.269 480.531 101.518C481.693 101.768 482.769 100.663 483.182 99.462C483.396 98.7546 483.534 98.0267 483.595 97.2903C483.545 97.5257 483.483 97.7583 483.408 97.987Z" opacity=".1"/><path fill="#000" d="M486.958 87.7001C486.108 89.9391 484.556 91.8706 484.076 94.2249C483.97 94.7054 483.913 95.1859 483.855 95.6663C484.369 93.3216 485.901 91.3949 486.737 89.1607C487.116 88.1546 487.35 87.0999 487.434 86.0281C487.32 86.5972 487.161 87.1563 486.958 87.7001Z" opacity=".1"/></g><path fill="#E6E8EC" d="M377.823 142.392C377.927 142.392 378.01 142.308 378.01 142.205C378.01 142.101 377.927 142.017 377.823 142.017C377.72 142.017 377.636 142.101 377.636 142.205C377.636 142.308 377.72 142.392 377.823 142.392Z"/><path fill="#34CB79" d="M226.858 247.63C226.858 247.63 232.142 243.839 237.633 246.188C237.633 246.188 236.096 249.446 229.275 249.402L226.858 247.63Z"/><path fill="#34CB79" d="M226.2 247.851C226.2 247.851 224.788 254.207 229.083 258.33C229.083 258.33 231.484 255.639 228.761 249.378L226.2 247.851Z"/><path fill="#34CB79" d="M219.197 242.066C219.197 242.066 219.393 236.699 231.542 238.01C231.542 238.01 231.734 241.465 227.555 243.262C223.376 245.059 221.382 243.757 219.197 242.066Z"/><path fill="#34CB79" d="M218.452 242.042C218.452 242.042 213.408 243.877 218.394 255.038C218.394 255.038 221.757 254.154 222.16 249.623C222.564 245.093 220.729 243.618 218.452 242.042Z"/><path fill="#34CB79" d="M211.323 234.729C211.323 234.729 210.295 225.951 222.679 226.378C222.679 226.378 223.861 234.316 213.586 236.761L211.323 234.729Z"/><path fill="#34CB79" d="M202.782 225.1C202.782 225.1 204.094 215.054 216.55 217.557C216.55 217.557 216.924 226.205 204.886 227.402L202.782 225.1Z"/><path fill="#34CB79" d="M196.427 215.049C196.427 215.049 198.886 205.199 211.227 207.664C211.227 207.664 208.652 216.514 197.296 216.793L196.427 215.049Z"/><path fill="#34CB79" d="M190.379 205.228C190.379 205.228 192.781 195.033 204.68 197.613C204.68 197.613 201.106 207.347 191.23 206.919L190.379 205.228Z"/><path fill="#34CB79" d="M186.359 195.835C186.359 195.835 188.016 183.424 199.141 185.721C199.141 185.721 196.374 197.07 187.247 197.598L186.359 195.835Z"/><path fill="#34CB79" d="M182.497 184.443C182.497 184.443 184.577 171.907 195.841 175.098C195.841 175.098 191.926 187.018 183.352 186.149L182.497 184.443Z"/><path fill="#34CB79" d="M179.965 173.815C179.965 173.815 183.548 161.222 192.176 161.227C192.176 161.227 188.525 174.521 180.781 176.28L179.965 173.815Z"/><path fill="#34CB79" d="M178.221 163.394C178.221 163.394 182.064 148.254 189.116 149.138C189.116 149.138 186.498 160.698 178.548 165.714L178.221 163.394Z"/><path fill="#34CB79" d="M176.977 150.925C176.977 150.925 180.637 138.289 187.545 137.53C187.545 137.53 185.196 149.911 177.26 154.159L176.977 150.925Z"/><path fill="#34CB79" d="M175.694 139.322C175.694 139.322 180.378 126.637 184.941 126.181C184.941 126.181 183.169 138.563 176.228 141.354L175.694 139.322Z"/><path fill="#34CB79" d="M174.705 128.511C174.705 128.511 177.361 114.823 181.882 113.525C181.882 113.525 181.685 124.643 175.204 129.506L174.705 128.511Z"/><path fill="#34CB79" d="M172.442 114.4C172.442 114.4 175.368 103.46 179.004 101.672C179.004 101.672 178.759 114.443 173.403 117.009L172.442 114.4Z"/><path fill="#34CB79" d="M170.66 105.141L169.258 86.1002C169.258 86.1002 176.708 100.226 171.28 108.471L170.66 105.141Z"/><path fill="#34CB79" d="M164.593 86.3981C164.593 86.3981 159.088 72.6711 157.868 71.9408C157.868 71.9408 167.956 80.5893 167.475 92.2503L164.593 86.3981Z"/><path fill="#34CB79" d="M210.982 234.676C210.982 234.676 202.182 233.869 202.917 246.236C202.917 246.236 210.881 247.197 213.072 236.886L210.982 234.676Z"/><path fill="#34CB79" d="M202.355 224.783C202.355 224.783 192.234 225.139 193.545 237.756C193.545 237.756 202.096 238.947 204.445 227.08L202.355 224.783Z"/><path fill="#34CB79" d="M196.36 215.875C196.36 215.875 187.007 211.916 181.555 223.26C181.555 223.26 190.178 226.527 197.239 217.639L196.36 215.875Z"/><path fill="#34CB79" d="M190.177 205.329C190.177 205.329 180.594 201.106 175.488 212.18C175.488 212.18 185.417 215.179 191.018 207.02L190.177 205.329Z"/><path fill="#34CB79" d="M186.488 196.099C186.488 196.099 177.107 187.797 170.218 196.82C170.218 196.82 179.739 203.58 186.978 198.007L186.488 196.099Z"/><path fill="#34CB79" d="M183.001 184.131C183.001 184.131 173.552 175.631 166.74 185.159C166.74 185.159 177.241 192.025 183.395 185.971L183.001 184.131Z"/><path fill="#34CB79" d="M180.887 173.416C180.887 173.416 173.446 162.644 165.285 165.421C165.285 165.421 173.009 176.837 180.906 175.991L180.887 173.416Z"/><path fill="#34CB79" d="M178.423 163.317C178.423 163.317 170.819 149.671 164.228 152.343C164.228 152.343 169.733 162.841 178.697 165.647L178.423 163.317Z"/><path fill="#34CB79" d="M177.434 150.195C177.434 150.195 169.748 139.524 162.994 141.124C162.994 141.124 169.354 151.997 178.26 153.337L177.434 150.195Z"/><path fill="#34CB79" d="M176.453 139.048C176.453 139.048 170.353 126.979 165.765 127.036C165.765 127.036 168.94 139.135 176.151 141.119L176.453 139.048Z"/><path fill="#34CB79" d="M174.921 128.233C174.921 128.233 168.196 116.029 163.479 116.187C163.479 116.187 167.091 126.705 174.753 129.338L174.921 128.233Z"/><path fill="#34CB79" d="M173.475 115.121C173.475 115.121 168.398 105.002 164.478 103.988C164.478 103.988 167.298 116.447 173.067 117.874L173.475 115.121Z"/><path fill="#34CB79" d="M170.089 104.8L159.011 89.2521C159.011 89.2521 162.297 104.877 171.731 107.774L170.089 104.8Z"/><path fill="#34CB79" d="M162.244 87.7723C162.244 87.7723 149.755 79.8397 149.274 78.504C149.274 78.504 155.932 90.0353 167.48 91.6641L162.244 87.7723Z"/><path fill="#34CB79" d="M161.37 84.0246C161.37 84.0246 146.891 71.1336 143.327 71.2825C143.327 71.2825 154.856 71.369 161.677 83.2943L161.37 84.0246Z"/><path fill="#444053" d="M173.417 117.119L172.908 117.206C169.498 96.7619 165.222 84.7645 160.827 83.4288L160.976 82.9484C165.621 84.3513 169.92 96.1757 173.417 117.119Z"/><path fill="#444053" d="M179.153 166.098L178.389 166.195C178.154 164.273 177.957 162.322 177.794 160.371C176.41 143.391 174.676 127.819 172.735 116.168L173.158 115.601C175.08 127.272 177.179 143.305 178.567 160.285C178.721 162.25 178.922 164.205 179.153 166.098Z"/><path fill="#444053" d="M241.577 256.864C241.437 256.807 227.675 251.286 213.077 237.405C204.529 229.283 197.323 219.858 191.724 209.48C184.725 196.508 180.143 180.402 178.211 164.662L179.028 165.008C183.351 200.332 200.424 223.942 213.754 236.627C228.208 250.383 241.817 255.846 241.951 255.908L241.577 256.864Z"/><g opacity=".7"><path fill="#34CB79" d="M251.141 241.191C251.141 241.191 257.319 239.149 261.853 243.012C261.853 243.012 259.418 245.669 252.918 243.593L251.141 241.191Z" opacity=".7"/><path fill="#34CB79" d="M250.444 241.201C250.444 241.201 247.207 246.851 250.089 252.069C250.089 252.069 253.178 250.21 252.443 243.421L250.444 241.201Z" opacity=".7"/><path fill="#34CB79" d="M245.478 233.6C245.478 233.6 247.265 228.531 258.447 233.403C258.447 233.403 257.602 236.766 253.077 237.247C248.552 237.727 247.063 235.863 245.478 233.6Z" opacity=".7"/><path fill="#34CB79" d="M244.776 233.393C244.776 233.393 239.411 233.648 240.856 245.784C240.856 245.784 244.305 245.938 246.059 241.739C247.812 237.54 246.482 235.536 244.776 233.393Z" opacity=".7"/><path fill="#34CB79" d="M240.141 224.264C240.141 224.264 241.774 215.577 253.466 219.671C253.466 219.671 252.232 227.599 241.697 226.878L240.141 224.264Z" opacity=".7"/><path fill="#34CB79" d="M234.852 212.517C234.852 212.517 239.093 203.316 250.224 209.413C250.224 209.413 248.019 217.758 236.163 215.337L234.852 212.517Z" opacity=".7"/><path fill="#34CB79" d="M231.773 201.029C231.773 201.029 237.057 192.356 248.105 198.381C248.105 198.381 243.013 206.069 232.09 202.975L231.773 201.029Z" opacity=".7"/><path fill="#34CB79" d="M228.924 189.853C228.924 189.853 234.237 180.83 244.848 186.836C244.848 186.836 238.541 195.066 229.227 191.717L228.924 189.853Z" opacity=".7"/><path fill="#34CB79" d="M227.882 179.686C227.882 179.686 233.166 168.323 243.08 173.834C243.08 173.834 237.061 183.842 228.189 181.632L227.882 179.686Z" opacity=".7"/><path fill="#34CB79" d="M227.579 167.665C227.579 167.665 233.295 156.316 243.1 162.716C243.1 162.716 235.813 172.931 227.882 169.524L227.579 167.665Z" opacity=".7"/><path fill="#34CB79" d="M228.329 156.753C228.329 156.753 235.496 145.799 243.729 148.369C243.729 148.369 236.288 159.977 228.357 159.353L228.329 156.753Z" opacity=".7"/><path fill="#34CB79" d="M229.76 146.293C229.76 146.293 237.926 132.98 244.401 135.93C244.401 135.93 238.459 146.183 229.39 148.609L229.76 146.293Z" opacity=".7"/><path fill="#34CB79" d="M232.287 134.017C232.287 134.017 239.54 123.048 246.352 124.374C246.352 124.374 240.429 135.497 231.585 137.193L232.287 134.017Z" opacity=".7"/><path fill="#34CB79" d="M234.506 122.563C234.506 122.563 242.754 111.844 247.245 112.766C247.245 112.766 241.87 124.057 234.415 124.663L234.506 122.563Z" opacity=".7"/><path fill="#34CB79" d="M236.778 111.945C236.778 111.945 243.383 99.6687 248.091 99.7744C248.091 99.7744 244.594 110.345 236.956 113.045L236.778 111.945Z" opacity=".7"/><path fill="#34CB79" d="M238.82 97.7996C238.82 97.7996 244.863 88.2287 248.869 87.5992C248.869 87.5992 244.834 99.7215 238.959 100.572L238.82 97.7996Z" opacity=".7"/><path fill="#34CB79" d="M239.867 88.4257L244.19 69.8363C244.19 69.8363 247.106 85.5333 239.482 91.8082L239.867 88.4257Z" opacity=".7"/><path fill="#34CB79" d="M239.651 68.7312C239.651 68.7312 238.479 53.9855 237.523 52.9237C237.523 52.9237 244.599 64.1955 240.645 75.1695L239.651 68.7312Z" opacity=".7"/><path fill="#34CB79" d="M239.833 224.101C239.833 224.101 231.667 220.704 228.698 232.749C228.698 232.749 236.005 236.06 241.188 226.844L239.833 224.101Z" opacity=".7"/><path fill="#34CB79" d="M234.54 212.084C234.54 212.084 224.774 209.413 222.266 221.867C222.266 221.867 230.072 225.552 235.851 214.919L234.54 212.084Z" opacity=".7"/><path fill="#34CB79" d="M231.465 201.797C231.465 201.797 223.717 195.234 215.133 204.445C215.133 204.445 222.391 210.129 231.778 203.743L231.465 201.797Z" opacity=".7"/><path fill="#34CB79" d="M228.698 189.891C228.698 189.891 220.81 183.006 212.639 192.073C212.639 192.073 221.223 197.886 229 191.76L228.698 189.891Z" opacity=".7"/><path fill="#34CB79" d="M227.925 179.979C227.925 179.979 221.435 169.26 212.178 175.823C212.178 175.823 219.254 185.116 227.824 181.944L227.925 179.979Z" opacity=".7"/><path fill="#34CB79" d="M228.155 167.511C228.155 167.511 221.661 156.59 212.303 163.667C212.303 163.667 220.287 173.349 227.963 169.399L228.155 167.511Z" opacity=".7"/><path fill="#34CB79" d="M229.318 156.652C229.318 156.652 225.422 144.16 216.8 144.376C216.8 144.376 220.782 157.58 228.569 159.141L229.318 156.652Z" opacity=".7"/><path fill="#34CB79" d="M229.976 146.279C229.976 146.279 226.772 130.991 219.687 131.582C219.687 131.582 221.819 143.243 229.544 148.585L229.976 146.279Z" opacity=".7"/><path fill="#34CB79" d="M232.935 133.455C232.935 133.455 228.77 120.963 221.844 120.483C221.844 120.483 224.687 132.763 232.786 136.689L232.935 133.455Z" opacity=".7"/><path fill="#34CB79" d="M235.313 122.525C235.313 122.525 233.079 109.187 228.679 107.885C228.679 107.885 228.112 120.377 234.41 124.423L235.313 122.525Z" opacity=".7"/><path fill="#34CB79" d="M237.09 111.743C237.09 111.743 234.29 98.0879 229.75 96.8483C229.75 96.8483 230.067 107.962 236.605 112.757L237.09 111.743Z" opacity=".7"/><path fill="#34CB79" d="M239.588 98.799C239.588 98.799 237.748 87.6281 234.304 85.4852C234.304 85.4852 233.29 98.2225 238.373 101.302L239.588 98.799Z" opacity=".7"/><path fill="#34CB79" d="M239.425 87.9356L233.473 69.7979C233.473 69.7979 231.96 85.6966 240.107 91.2701L239.425 87.9356Z" opacity=".7"/><path fill="#34CB79" d="M236.999 69.3463C236.999 69.3463 227.435 58.0552 227.392 56.6331C227.392 56.6331 230.317 69.6057 240.842 74.6122L236.999 69.3463Z" opacity=".7"/><path fill="#34CB79" d="M237.278 65.5073C237.278 65.5073 227.291 48.8878 223.827 47.9701C223.827 47.9701 234.818 51.4871 237.758 64.9019L237.278 65.5073Z" opacity=".7"/><path fill="#444053" d="M238.935 100.687L238.426 100.615C241.25 80.0846 240.722 67.3522 236.937 64.7721L237.23 64.3492C241.241 67.0831 241.831 79.6426 238.935 100.687Z" opacity=".7"/><path fill="#444053" d="M229.846 149.157L229.087 149.018C229.433 147.12 229.822 145.174 230.255 143.281C233.982 126.661 236.98 111.277 238.57 99.5581L239.142 99.1449C237.528 110.864 234.741 126.791 231.004 143.43C230.581 145.352 230.187 147.269 229.846 149.157Z" opacity=".7"/><path fill="#444053" d="M262.444 254.385C262.329 254.294 250.829 244.92 241.025 227.33C235.271 217.033 231.186 205.889 228.924 194.312C226.1 179.84 226.522 163.081 229.352 147.504L230.029 148.076C223.664 183.093 232.911 210.71 241.88 226.787C251.588 244.218 262.954 253.491 263.069 253.583L262.444 254.385Z" opacity=".7"/></g><path fill="url(#paint0_linear)" d="M147.646 210.124C146.516 210.589 145.343 210.94 144.144 211.171C142.048 211.564 139.921 211.765 137.789 211.772C137.851 212.334 137.899 212.858 137.947 213.333C138.062 214.64 138.13 215.539 138.13 215.539L135.877 215.385L117.296 214.117L106.43 212.507C106.955 213.211 107.524 213.88 108.136 214.511C108.769 215.181 109.501 215.75 110.307 216.197C110.307 216.197 120.111 224.139 121.807 224.211C122.047 224.211 122.124 224.452 122.085 224.831C126.212 224.831 139.042 225.432 135.483 232.576C134.894 233.85 133.856 234.861 132.567 235.416C128.45 237.16 122.239 234.022 119.04 232.096C118.728 232.706 118.43 233.273 118.166 233.758C117.623 234.782 117.243 235.459 117.243 235.459L116.921 235.228L100.435 223.486L96.8229 220.42C95.7618 220.372 94.7111 220.19 93.6957 219.877L93.2153 219.724C93.1945 219.766 93.1768 219.809 93.1625 219.853C93.031 220.228 92.9329 220.614 92.8695 221.007C92.8695 221.064 92.8695 221.122 92.8695 221.18C92.802 221.627 92.7572 222.078 92.735 222.53C92.735 222.837 92.7109 223.164 92.7109 223.491C92.6821 230.035 95.3049 240.552 95.3049 240.552C95.3049 240.552 102.102 257.892 99.6907 261.895C99.5664 262.098 99.4031 262.274 99.2103 262.413C98.3601 263.029 97.8509 264.124 97.5867 265.426C96.6884 269.673 98.264 276.155 98.264 276.155C98.264 276.155 98.1199 276.395 97.8749 276.77C97.3448 277.618 96.7472 278.421 96.0879 279.172C95.987 279.288 95.8814 279.408 95.7709 279.518C95.4734 279.831 95.1522 280.12 94.8101 280.383C94.8726 280.57 94.9398 280.763 95.0071 280.969C95.0743 281.176 95.1608 281.498 95.2281 281.786C95.763 284.147 95.5532 286.617 94.6276 288.854C93.998 290.485 93.5909 292.193 93.4171 293.932C93.1047 297.117 93.187 300.329 93.6621 303.494C93.59 303.455 93.5276 303.417 93.4555 303.383C88.1426 300.606 82.905 297.706 77.7427 294.682C76.2295 293.807 74.726 292.914 73.232 292.015C71.3938 290.907 69.5636 289.786 67.7414 288.652C65.3396 287.153 62.9378 285.615 60.5359 284.044L59.4119 283.295L58.9795 283.002C58.3695 282.593 57.769 282.185 57.1637 281.772C54.6802 278.561 52.4112 275.191 50.3713 271.682C50.0303 271.072 49.7228 270.49 49.4682 269.957V269.928L49.3049 269.577L48.6276 269.337C47.3546 268.89 46.5476 268.578 46.5476 268.578C47.1351 266.434 47.4165 264.218 47.3835 261.995C47.345 257.671 46.1489 251.906 41.2203 247.283C33.938 240.398 32.934 233.6 32.8283 230.991C32.8283 230.808 32.8283 230.645 32.8283 230.51C32.8259 230.29 32.8355 230.071 32.8571 229.852L33.4144 229.319C32.0021 229.035 30.6763 228.905 30.6763 228.905C30.6763 228.905 35.5088 211.416 43.6462 205.579C47.6813 202.696 51.0391 197.891 53.4121 193.769C57.741 186.318 62.6021 179.191 67.9576 172.441L69.4227 170.591L69.8503 170.048L69.9415 169.937L70.0568 169.784C69.8582 169.483 69.6565 169.185 69.4515 168.89L69.317 168.693C68.6782 167.732 68.1305 166.771 68.217 165.623C68.217 165.623 68.217 165.599 68.217 165.589C68.217 165.507 68.217 165.431 68.217 165.344C68.2374 165.153 68.2727 164.963 68.3227 164.777C68.3391 164.808 68.3584 164.837 68.3803 164.864C69.0672 162.865 71.7141 161.981 73.6644 160.876C78.2615 158.291 80.2214 152.636 81.2061 147.375C81.9699 143.281 82.604 138.692 85.7744 136.064C87.8208 134.373 90.5781 133.816 92.6485 132.139C93.8464 131.08 94.8368 129.808 95.5691 128.386C96.0495 127.57 96.4626 126.724 96.9093 125.907C98.9557 122.208 101.646 118.767 105.205 116.552C108.765 114.337 113.28 113.477 117.181 114.967C118.684 115.539 120.063 116.408 121.504 117.047C122.394 117.41 123.313 117.696 124.252 117.902C127.187 118.59 130.276 118.767 133.033 119.993C137.515 121.982 140.431 126.383 143.092 130.563C144.471 132.725 146.637 135.886 147.867 139.067C147.867 138.952 147.867 138.846 147.867 138.736C148.46 140.136 148.786 141.636 148.827 143.156C148.852 143.803 148.782 144.451 148.621 145.078C148.179 146.711 147.05 147.744 145.633 148.504L145.407 148.614C145.104 148.77 144.793 148.909 144.475 149.032C144.427 149.296 144.374 149.565 144.317 149.825C144.293 149.935 144.264 150.051 144.235 150.161C144.173 150.43 144.101 150.695 144.024 150.959C142.997 154.393 140.994 157.454 138.259 159.771C136.365 161.391 134.177 162.631 131.813 163.422C131.645 163.48 131.467 163.523 131.299 163.576C131.156 163.978 130.952 164.356 130.694 164.695C130.507 164.935 130.287 165.147 130.04 165.325C129.887 165.429 129.726 165.522 129.56 165.604C129.519 165.629 129.476 165.65 129.43 165.666C127.701 166.444 125.333 165.834 123.666 164.671C123.579 164.614 123.498 164.547 123.416 164.484C123.416 164.758 123.373 165.046 123.325 165.344C123.277 165.642 123.243 165.825 123.19 166.074C123.137 166.324 123.118 166.444 123.085 166.622C123.051 166.8 123.027 166.92 122.998 167.059L122.94 167.304C121.989 171.942 120.174 176.359 117.589 180.325C117.214 180.893 116.809 181.44 116.374 181.964L115.183 183.78V184.025C115.408 188.205 114.034 192.101 112.094 195.455C111.444 196.567 110.73 197.64 109.956 198.67L110.225 198.828C112.915 200.361 118.218 203.085 121.571 202.854C121.571 202.854 134.253 204.493 135.723 203.671C135.925 203.556 136.122 203.714 136.304 204.056C138.355 202.806 143.073 200.159 146.796 199.808C149.399 199.558 151.518 200.428 151.911 203.652C152.305 206.876 150.365 208.956 147.646 210.124Z"/><path fill="#FBBEBE" d="M78.2278 276.193C79.0398 277.579 79.5242 279.132 79.6441 280.733C79.764 282.334 79.5162 283.942 78.9196 285.433C77.7523 288.359 77.6226 292.006 77.7427 294.682C76.2295 293.807 74.726 292.914 73.232 292.015C71.3938 290.907 69.5636 289.786 67.7414 288.652C65.3396 287.153 62.9378 285.615 60.5359 284.044L59.4118 283.295L58.9795 283.002C58.9417 282.932 58.8949 282.867 58.8402 282.809C58.1965 282.127 54.4449 276.746 52.2159 272.662C51.8124 271.912 51.4618 271.221 51.1832 270.586V270.553C50.7028 269.486 50.477 268.631 50.6211 268.242C50.7958 267.629 51.0921 267.058 51.4924 266.563C51.8927 266.068 52.3888 265.658 52.9509 265.359C55.7178 263.917 60.1564 265.248 64.547 267.367C68.3246 269.277 71.945 271.483 75.3745 273.964L75.7636 274.248L75.802 274.276C77.2431 275.3 78.0789 275.977 78.0789 275.977C78.0789 275.977 78.1414 276.054 78.2278 276.193Z"/><path fill="#000" d="M77.4978 275.554C78.3112 276.941 78.7965 278.495 78.9164 280.099C79.0363 281.702 78.7876 283.311 78.1895 284.803C77.0222 287.729 76.8925 291.376 77.0126 294.057C75.501 293.176 73.9975 292.286 72.5019 291.386C70.6605 290.278 68.8303 289.156 67.0114 288.023C64.6095 286.519 62.2077 284.981 59.8299 283.41L58.7058 282.66L58.2735 282.367C58.2345 282.298 58.1878 282.234 58.1342 282.175C57.4905 281.498 53.7388 276.116 51.5099 272.028C51.1064 271.278 50.7557 270.586 50.4771 269.952V269.923C49.9967 268.852 49.771 268.001 49.9151 267.607C50.0905 266.995 50.3871 266.425 50.7873 265.929C51.1875 265.434 51.6832 265.024 52.2449 264.725C55.0118 263.283 59.4504 264.614 63.8409 266.733C67.6185 268.643 71.239 270.848 74.6684 273.33L75.0575 273.613L75.0959 273.642C76.537 274.665 77.3729 275.343 77.3729 275.343C77.3729 275.343 77.4113 275.415 77.4978 275.554Z" opacity=".05"/><path fill="#FBBEBE" d="M95.1849 287.206C95.0452 288.028 94.8181 288.834 94.5076 289.608C93.9757 291.002 93.6097 292.453 93.4172 293.932C93.0389 297.072 93.0518 300.247 93.4556 303.383C88.1427 300.606 82.9051 297.706 77.7428 294.682C76.2296 293.808 74.7261 292.914 73.2321 292.015C72.8959 289.459 72.4155 287.211 71.8727 286.658C71.1617 285.909 67.1026 280.105 64.5807 275.526C64.2541 274.949 63.9706 274.392 63.7064 273.863V273.839C63.6056 273.628 63.5095 273.426 63.4182 273.224C62.7697 271.831 62.4238 270.745 62.5968 270.221C62.9339 269.083 63.6276 268.082 64.5759 267.367C68.8368 264.254 77.6947 268.468 84.4967 272.652L84.6649 272.753C85.9523 273.556 87.1724 274.349 88.2676 275.088L88.9065 275.521C91.7215 277.443 93.5901 278.937 93.5901 278.937C94.0543 279.653 94.4271 280.425 94.6998 281.234C94.8602 281.69 94.9933 282.155 95.0985 282.627C95.4309 284.132 95.4603 285.689 95.1849 287.206Z"/><path fill="#000" d="M52.2398 272.662C55.7321 273.882 60.8865 275.502 63.6918 275.545C63.9823 275.554 64.2731 275.539 64.5613 275.502C66.5356 275.233 72.6218 275.665 78.2085 276.169C80.447 276.366 82.6039 276.573 84.386 276.756L88.8631 277.236V275.506C87.6189 274.651 86.173 273.7 84.6262 272.739C77.8002 268.52 68.8317 264.211 64.5372 267.348C58.4894 264.427 52.3503 263.024 50.6066 268.222C50.4048 268.9 51.1398 270.62 52.2398 272.662Z" opacity=".1"/><path fill="#5C5C8E" d="M35.4608 232.394C35.5569 234.984 36.5272 241.705 43.4781 248.494C52.3457 257.143 48.5652 269.577 48.5652 269.577C48.5652 269.577 59.1333 273.729 63.692 273.839C63.9825 273.848 64.2733 273.834 64.5615 273.796C67.2947 273.416 78.1607 274.421 84.4054 275.05L88.8825 275.53V238.765L39.9138 226.868L35.48 231.289C35.45 231.656 35.4436 232.025 35.4608 232.394Z"/><g opacity=".1"><path fill="#000" d="M88.0802 275.074L88.8824 275.156V275.55L84.4053 275.069C79.9235 274.618 73.0735 273.974 68.5532 273.786C71.6804 273.508 82.0323 274.464 88.0802 275.074Z" opacity=".1"/><path fill="#000" d="M35.4799 231.313L39.9137 226.892L42.8728 227.608L39.1788 231.313C39.1552 231.681 39.1552 232.05 39.1788 232.418C39.2748 235.007 40.2452 241.724 47.1961 248.518C56.0637 257.167 52.2832 269.597 52.2832 269.597C52.2832 269.597 61.0259 273.032 66.0361 273.738C65.5545 273.736 65.0733 273.763 64.595 273.82C64.3068 273.858 64.0161 273.872 63.7255 273.863C59.1669 273.748 48.5988 269.597 48.5988 269.597C48.5988 269.597 52.3793 257.167 43.5117 248.518C36.5271 241.724 35.5568 235.007 35.4607 232.432C35.4429 232.059 35.4494 231.685 35.4799 231.313Z" opacity=".1"/></g><path fill="#FBBEBE" d="M133.331 206.429C133.331 206.429 148.141 196.157 149.221 205.401C150.302 214.645 133.331 213.348 133.331 213.348V206.429Z"/><path fill="#F7CDDD" d="M107.794 199.616C107.794 199.616 115.802 204.901 120.236 204.589C120.236 204.589 132.341 206.213 133.749 205.401C135.156 204.589 136.021 217.134 136.021 217.134L116.129 215.726L103.37 213.78C103.37 213.78 96.991 209.889 96.991 206.535C96.991 203.181 107.794 199.616 107.794 199.616Z"/><path fill="#34CB79" d="M107.794 199.616C107.794 199.616 115.802 204.901 120.236 204.589C120.236 204.589 132.341 206.213 133.749 205.401C135.156 204.589 136.021 217.134 136.021 217.134L116.129 215.726L103.37 213.78C103.37 213.78 96.991 209.889 96.991 206.535C96.991 203.181 107.794 199.616 107.794 199.616Z"/><path fill="#FBBEBE" d="M119.535 226.349C119.535 226.349 137.544 225.605 133.509 233.994C129.473 242.383 115.831 232.197 115.831 232.197L119.535 226.349Z"/><path fill="#5C5C8E" d="M101.425 208.481C101.425 208.481 116.018 197.56 113.967 184.26C111.916 170.961 101.425 194.427 101.425 194.427V208.481Z"/><path fill="#FBBEBE" d="M105.469 148.187C105.472 152.971 107.332 157.567 110.657 161.006C112.451 162.858 114.61 164.316 116.998 165.287C117.768 165.609 118.562 165.872 119.371 166.075C120.232 166.297 121.106 166.457 121.989 166.555C122.623 166.617 123.262 166.651 123.911 166.651C125.975 166.647 128.023 166.291 129.968 165.599C133.168 164.487 135.999 162.516 138.153 159.902C140.306 157.287 141.698 154.13 142.177 150.777C142.655 147.423 142.201 144.003 140.865 140.89C139.528 137.777 137.361 135.093 134.6 133.131C131.84 131.168 128.592 130.004 125.214 129.766C121.835 129.528 118.456 130.224 115.448 131.779C112.439 133.334 109.916 135.688 108.156 138.582C106.396 141.476 105.466 144.799 105.469 148.187Z"/><path fill="#000" d="M35.4608 232.394C37.1132 232.697 39.1548 233.254 39.1548 234.109C39.1548 235.551 62.2125 243.339 62.2125 243.339C62.2125 243.339 61.3478 245.352 63.6536 248.816C65.9593 252.28 84.7081 272.172 84.7081 272.172L84.6456 272.758L84.4054 275.05L83.2622 286.009C83.2622 286.009 90.4677 283.415 92.7734 283.703C93.518 283.794 94.3298 283.319 95.0744 282.627C94.8003 281.318 94.2909 280.069 93.5708 278.942C93.5708 278.942 91.7022 277.472 88.8825 275.526V238.765L39.9138 226.868L35.48 231.289C35.45 231.656 35.4436 232.025 35.4608 232.394Z" opacity=".1"/><path fill="#34CB79" d="M33.3855 230.361C33.3855 230.361 39.1499 230.933 39.1499 232.379C39.1499 233.826 62.2076 241.609 62.2076 241.609C62.2076 241.609 61.3429 243.622 63.6487 247.087C65.9544 250.551 84.7032 270.442 84.7032 270.442L83.2621 284.28C83.2621 284.28 90.4676 281.685 92.7733 281.973C93.8061 282.103 94.9446 281.147 95.8861 280.052C96.6671 279.128 97.3633 278.136 97.9661 277.087C97.9661 277.087 95.3673 266.123 98.8308 263.528C102.294 260.934 95.0839 241.907 95.0839 241.907C95.0839 241.907 91.8222 228.377 92.7829 222.573C92.8441 222.186 92.9373 221.805 93.0616 221.434C93.0616 221.391 93.0856 221.348 93.1048 221.305C95.1608 215.76 117.277 169.246 117.277 169.246C117.263 167.926 117.17 166.609 116.998 165.301C116.955 164.936 116.897 164.556 116.825 164.177C116.714 163.485 116.565 162.8 116.379 162.125C116.254 161.683 116.119 161.26 115.961 160.857C115.279 159.098 114.231 157.748 112.665 157.714C112.665 157.714 110.936 155.792 106.901 155.283C103.923 154.894 99.6954 155.283 93.931 157.714C80.3847 163.48 77.2142 163.768 77.2142 163.768L70.4026 172.691L69 174.526C63.8733 181.215 59.2323 188.262 55.1125 195.614C52.8452 199.688 49.6363 204.44 45.7886 207.294C38.0018 213.064 33.3855 230.361 33.3855 230.361Z"/><path fill="#000" d="M83.9107 197.022C83.9107 197.022 64.6671 201.778 57.207 213.78L83.9107 197.022Z" opacity=".1"/><path fill="#000" d="M77.9636 218.105C77.9636 218.105 74.3272 242.541 75.336 244.382C76.3448 246.222 77.9636 218.105 77.9636 218.105Z" opacity=".1"/><path fill="#000" d="M79.2655 230.65C80.6682 232.485 86.3509 246.654 86.3509 246.654L84.7081 270.442L83.267 284.28C83.267 284.28 90.4725 281.685 92.7831 281.974C93.8111 282.103 94.9543 281.152 95.8959 280.052C94.3971 271.946 91.1979 254.99 90.6118 254.664C89.848 254.231 85.957 240.605 85.7505 236.819C85.5439 233.033 80.1254 224.5 80.1254 224.5C80.1254 224.5 77.858 228.814 79.2655 230.65Z" opacity=".1"/><path fill="#000" d="M84.7079 207.294C85.0586 208.375 85.6158 214.645 85.6158 214.645C86.0097 220.175 90.1889 221.982 92.7829 222.559C92.844 222.172 92.9372 221.791 93.0615 221.42C94.7908 216.524 117.277 169.231 117.277 169.231C117.254 166.831 116.952 164.441 116.379 162.111C111.484 160.669 103.73 162.889 103.73 162.889C101.492 162.596 94.1856 177.13 94.1856 177.13C94.1856 177.13 89.3146 188.263 88.7814 189.776C88.2482 191.29 88.7814 193.783 88.5653 194.648C88.3491 195.513 86.0722 196.262 85.7503 197.459C85.4285 198.655 85.6398 201.019 85.4237 201.452C85.2075 201.884 84.3332 206.213 84.7079 207.294Z" opacity=".1"/><path fill="#34CB79" d="M86.4374 206.429C86.7929 207.51 87.3453 213.78 87.3453 213.78C87.672 218.383 90.631 220.406 93.1097 221.29C94.2229 221.688 95.388 221.921 96.5684 221.982L100.046 224.999L116.095 236.843C116.095 236.843 122.081 225.792 120.457 225.72C118.833 225.648 109.471 217.792 109.471 217.792C106.589 216.264 103.735 211.152 102.405 208.529C102.483 208.213 102.541 207.892 102.578 207.568C103.159 202.672 115.264 183.929 115.264 183.929C115.264 183.929 119.943 178.418 121.768 168.208C121.821 167.977 121.855 167.727 121.898 167.492C121.95 167.174 121.982 166.853 121.994 166.531C122.21 162.606 119.357 161.179 115.966 160.837C114.204 160.7 112.432 160.755 110.682 161.001C108.931 161.22 107.197 161.56 105.494 162.019C104.053 161.832 100.469 167.862 98.1248 172.133C96.8614 174.449 95.9535 176.26 95.9535 176.26C95.9535 176.26 91.0586 187.398 90.5109 188.911C89.9633 190.425 90.511 192.914 90.2948 193.783C90.0786 194.653 87.8017 195.398 87.4846 196.594C87.1676 197.79 87.3693 200.154 87.1532 200.587C86.937 201.019 86.0724 205.348 86.4374 206.429Z"/><path fill="#000" d="M67.8135 181.502C70.859 184.635 75.826 184.645 79.7938 183.054C83.7617 181.464 87.1291 178.562 90.8135 176.328C93.2153 174.886 95.7324 173.671 98.0862 172.167C98.4321 171.941 98.7684 171.715 99.095 171.485C101.814 169.563 104.163 167.098 106.973 165.335C108.856 164.088 111.047 163.387 113.304 163.307C114.346 163.297 115.377 163.513 116.326 163.941C116.491 164.013 116.652 164.097 116.806 164.191C117.73 164.726 118.585 165.371 119.352 166.113C120.145 166.829 120.908 167.593 121.754 168.256C121.807 168.025 121.84 167.775 121.884 167.54C121.935 167.222 121.967 166.901 121.98 166.579C122.614 166.642 123.253 166.675 123.901 166.675C125.97 166.664 128.022 166.3 129.968 165.599C129.968 165.522 129.997 165.44 130.011 165.363C130.703 161.731 131.933 157.883 134.873 155.841C136.568 154.654 139.278 154.173 141.622 153.27C142.435 150.437 142.558 147.451 141.98 144.561C141.402 141.671 140.141 138.961 138.301 136.659C136.461 134.357 134.097 132.529 131.406 131.328C128.715 130.128 125.775 129.59 122.833 129.759C119.892 129.928 117.033 130.8 114.497 132.301C111.962 133.802 109.822 135.889 108.258 138.386C106.694 140.884 105.752 143.721 105.509 146.658C105.266 149.595 105.73 152.548 106.863 155.269C103.884 154.88 99.657 155.269 93.8926 157.7C80.3463 163.466 77.1758 163.754 77.1758 163.754L70.4027 172.691C71.1376 173.815 71.9687 174.925 72.0455 176.237C72.1992 178.668 69.855 180.345 67.8135 181.502Z" opacity=".1"/><path fill="#7C5C5C" d="M134.897 154.116C131.971 156.162 130.727 160.006 130.036 163.634C129.819 164.768 129.613 165.964 128.921 166.862C127.37 168.876 124.247 168.304 122.22 166.862C120.193 165.421 118.598 163.23 116.335 162.207C113.328 160.852 109.798 161.842 106.988 163.605C104.177 165.368 101.824 167.833 99.1047 169.75C96.4771 171.605 93.5468 172.926 90.8087 174.593C87.1291 176.837 83.7666 179.734 79.7939 181.32C75.8213 182.905 70.8591 182.905 67.8184 179.773C69.8599 178.639 72.2041 176.962 72.0456 174.536C71.8871 172.109 69.0577 170.288 69.2499 167.809C69.442 165.33 72.3674 164.34 74.4667 163.12C78.862 160.563 80.7114 154.952 81.6722 149.762C82.4023 145.712 83.0028 141.181 86.0339 138.582C87.9842 136.905 90.631 136.357 92.5957 134.7C94.4595 133.124 95.4779 130.736 96.6692 128.54C98.6243 124.874 101.189 121.472 104.586 119.281C107.982 117.091 112.3 116.245 116.028 117.72C117.469 118.282 118.757 119.161 120.169 119.772C123.675 121.29 127.696 121.088 131.174 122.683C135.454 124.653 138.235 129.006 140.781 133.138C142.957 136.67 147.213 142.921 146.022 147.485C144.807 152.141 138.072 151.891 134.897 154.116Z"/><g opacity=".1"><path fill="#000" d="M69.2497 167.506C69.2653 167.316 69.2991 167.128 69.3506 166.944C70.124 168.165 71.0895 169.347 71.1808 170.788C71.2028 171.119 71.1753 171.451 71.0991 171.773C70.2392 170.389 69.1296 169.097 69.2497 167.506Z" opacity=".1"/><path fill="#000" d="M78.9292 177.567C82.9018 175.972 86.2644 173.075 89.944 170.841C92.6821 169.174 95.6124 167.852 98.24 165.998C100.959 164.076 103.313 161.611 106.123 159.852C108.933 158.094 112.464 157.099 115.471 158.454C117.733 159.478 119.314 161.645 121.355 163.11C123.397 164.576 126.505 165.147 128.056 163.134C128.753 162.236 128.955 161.044 129.171 159.91C129.863 156.278 131.092 152.434 134.032 150.387C137.212 148.167 143.942 148.417 145.162 143.733C145.366 142.902 145.419 142.041 145.321 141.191C146.104 143.271 146.503 145.366 146.032 147.192C144.807 151.877 138.077 151.627 134.897 153.847C131.976 155.893 130.727 159.737 130.036 163.37C129.819 164.503 129.618 165.7 128.926 166.593C127.369 168.607 124.247 168.035 122.201 166.569C120.154 165.104 118.579 162.937 116.316 161.914C113.309 160.559 109.778 161.553 106.968 163.312C104.158 165.07 101.804 167.54 99.0854 169.457C96.4578 171.317 93.5276 172.633 90.7895 174.3C87.1098 176.549 83.7473 179.441 79.7746 181.027C75.802 182.612 70.8398 182.608 67.7991 179.475C68.5848 179.049 69.3307 178.554 70.028 177.995C72.8045 179.009 76.119 178.692 78.9292 177.567Z" opacity=".1"/></g><path fill="#3ACC6C" d="M391.769 130.4L372.074 110.59C371.108 109.602 369.957 108.816 368.685 108.276C367.414 107.736 366.049 107.453 364.668 107.444C363.287 107.434 361.918 107.699 360.64 108.221C359.362 108.744 358.199 109.515 357.221 110.489L233.545 233.143L181.252 180.431C179.311 178.461 176.666 177.343 173.901 177.323C171.135 177.304 168.475 178.383 166.505 180.325L146.599 200.025C144.631 201.99 143.518 204.651 143.499 207.432C143.48 210.213 144.557 212.889 146.498 214.881L225.912 294.937C227.876 296.905 230.537 298.02 233.317 298.04C236.097 298.059 238.773 296.982 240.765 295.042L391.658 145.251C392.645 144.286 393.432 143.135 393.972 141.864C394.512 140.594 394.796 139.229 394.806 137.848C394.816 136.468 394.553 135.099 394.032 133.82C393.511 132.542 392.741 131.379 391.769 130.4Z"/><g opacity=".5"><path fill="#34CB79" d="M362.091 289.248C362.091 289.248 347.402 288.364 349.121 298.66C349.033 299.182 349.112 299.719 349.347 300.193C349.581 300.668 349.96 301.056 350.428 301.303C350.428 301.303 350.428 300.539 351.932 300.798C352.46 300.889 352.997 300.914 353.531 300.875C354.252 300.828 354.937 300.546 355.482 300.073C355.482 300.073 359.608 298.367 361.217 291.612C361.217 291.612 362.404 290.142 362.356 289.762L359.877 290.824C359.877 290.824 360.727 292.611 360.059 294.096C360.059 294.096 359.978 290.886 359.502 290.963C359.406 290.963 358.215 291.583 358.215 291.583C358.215 291.583 359.656 294.696 358.57 296.964C358.57 296.964 358.988 293.12 357.759 291.809L356.015 292.827C356.015 292.827 357.715 296.047 356.562 298.67C356.562 298.67 356.86 294.644 355.645 293.077L354.064 294.307C354.064 294.307 355.664 297.478 354.689 299.66C354.689 299.66 354.564 294.97 353.728 294.615C353.728 294.615 352.345 295.835 352.133 296.34C352.133 296.34 353.229 298.641 352.551 299.857C352.551 299.857 352.133 296.729 351.792 296.719C351.792 296.719 350.414 298.785 350.27 300.203C350.336 298.892 350.745 297.621 351.456 296.517C350.662 296.67 349.929 297.05 349.347 297.613C349.347 297.613 349.559 296.171 351.797 296.018C351.797 296.018 352.936 294.451 353.238 294.355C353.238 294.355 351.014 294.168 349.664 294.768C349.664 294.768 350.851 293.385 353.642 294.014L355.203 292.741C355.203 292.741 352.278 292.337 351.033 292.779C351.033 292.779 352.474 291.559 355.626 292.448L357.326 291.434C357.326 291.434 354.828 290.896 353.339 291.088C353.339 291.088 354.91 290.242 357.826 291.16L359.041 290.612C359.041 290.612 357.211 290.252 356.673 290.199C356.135 290.146 356.111 289.993 356.111 289.993C357.269 289.801 358.458 289.934 359.545 290.377C359.545 290.377 362.135 289.411 362.091 289.248Z" opacity=".5"/></g><g opacity=".5"><path fill="#34CB79" d="M335.733 217.341C335.733 217.341 328.273 230.03 338.236 233.163C338.661 233.479 339.175 233.652 339.705 233.659C340.234 233.666 340.753 233.506 341.186 233.201C341.186 233.201 340.518 232.831 341.416 231.63C341.735 231.2 342.003 230.734 342.214 230.241C342.494 229.576 342.553 228.838 342.382 228.137C342.382 228.137 342.732 223.683 337.448 219.186C337.448 219.186 336.675 217.456 336.32 217.326L336.137 220.017C336.137 220.017 338.111 220.075 339.135 221.343C339.135 221.343 336.252 219.959 336.089 220.416C336.06 220.512 336.055 221.857 336.055 221.857C336.055 221.857 339.495 221.972 341.013 223.981C341.013 223.981 337.785 221.867 336.051 222.366L336.166 224.384C336.166 224.384 339.807 224.327 341.623 226.547C341.623 226.547 338.169 224.452 336.223 224.822L336.603 226.792C336.603 226.792 340.158 226.792 341.652 228.661C341.652 228.661 337.42 226.647 336.723 227.219C336.723 227.219 337.203 229.007 337.53 229.425C337.53 229.425 340.081 229.492 340.854 230.65C340.854 230.65 337.881 229.602 337.713 229.9C337.713 229.9 338.933 232.067 340.114 232.841C338.977 232.185 338.031 231.242 337.372 230.107C337.134 230.89 337.134 231.726 337.372 232.509C337.372 232.509 336.166 231.654 337.069 229.626C337.069 229.626 336.185 227.901 336.238 227.584C336.238 227.584 335.066 229.482 334.984 230.948C334.984 230.948 334.292 229.261 336.118 227.056L335.695 225.086C335.695 225.086 334.009 227.517 333.836 228.824C333.836 228.824 333.399 226.993 335.628 224.581L335.493 222.607C335.493 222.607 333.879 224.586 333.38 225.999C333.38 225.999 333.336 224.216 335.474 222.035L335.541 220.704C335.541 220.704 334.388 222.174 334.1 222.626C333.812 223.078 333.663 223.034 333.663 223.034C334.016 221.916 334.673 220.918 335.561 220.151C335.561 220.151 335.897 217.374 335.733 217.341Z" opacity=".5"/></g><g opacity=".5"><path fill="#34CB79" d="M289.076 116.101C289.076 116.101 281.62 128.795 291.578 131.923C292.003 132.24 292.517 132.415 293.047 132.422C293.577 132.428 294.095 132.267 294.528 131.961C294.528 131.961 293.86 131.591 294.763 130.39C295.081 129.96 295.347 129.494 295.556 129.001C295.839 128.337 295.898 127.598 295.724 126.897C295.724 126.897 296.079 122.443 290.791 117.946C290.791 117.946 290.017 116.221 289.662 116.091L289.479 118.777C289.479 118.777 291.458 118.835 292.477 120.103C292.477 120.103 289.594 118.719 289.436 119.176C289.402 119.272 289.402 120.617 289.402 120.617C289.402 120.617 292.837 120.733 294.355 122.741C294.355 122.741 291.127 120.627 289.393 121.127L289.513 123.144C289.513 123.144 293.149 123.087 294.965 125.307C294.965 125.307 291.511 123.217 289.566 123.582L289.945 125.552C289.945 125.552 293.5 125.552 294.999 127.425C294.999 127.425 290.762 125.408 290.065 125.984C290.065 125.984 290.546 127.767 290.877 128.185C290.877 128.185 293.423 128.252 294.196 129.41C294.196 129.41 291.223 128.362 291.06 128.66C291.06 128.66 292.275 130.832 293.461 131.601C292.323 130.946 291.376 130.006 290.714 128.872C290.484 129.646 290.484 130.471 290.714 131.245C290.714 131.245 289.508 130.39 290.411 128.338C290.411 128.338 289.527 126.613 289.58 126.296C289.58 126.296 288.408 128.194 288.326 129.66C288.326 129.66 287.635 127.973 289.465 125.768L289.037 123.798C289.037 123.798 287.351 126.229 287.183 127.536C287.183 127.536 286.741 125.705 288.97 123.293L288.835 121.319C288.835 121.319 287.221 123.298 286.722 124.711C286.722 124.711 286.679 122.928 288.816 120.752L288.883 119.416C288.883 119.416 287.731 120.886 287.442 121.338C287.154 121.79 287.005 121.746 287.005 121.746C287.366 120.626 288.031 119.628 288.927 118.864C288.927 118.864 289.239 116.158 289.076 116.101Z" opacity=".5"/></g><g opacity=".5"><path fill="#34CB79" d="M128.46 19.9635C128.46 19.9635 100.695 40.1433 119.073 56.1285C119.073 56.1285 121.153 59.9146 125.347 58.9585C125.347 58.9585 124.261 57.5459 127.312 55.8162C128.393 55.1948 129.396 54.4464 130.3 53.5868C131.522 52.4355 132.336 50.9177 132.62 49.2626C132.62 49.2626 137.529 40.0664 130.415 25.5273C130.415 25.5273 130.372 21.1118 129.723 20.5016L126.841 26.0847C126.841 26.0847 131.015 28.0498 132.019 31.7158C132.019 31.7158 127.115 26.0511 126.37 26.9111C126.221 27.0793 124.968 29.9381 124.968 29.9381C124.968 29.9381 132.216 33.3878 133.59 39.0958C133.59 39.0958 128.652 31.562 124.463 31.0143L122.835 35.4394C122.835 35.4394 130.67 38.7115 132.485 45.1498C132.485 45.1498 127.048 37.4622 122.542 36.4292L121.523 40.9985C121.523 40.9985 129.104 44.3378 130.578 49.7046C130.578 49.7046 123.373 41.4501 121.36 42.0603C121.36 42.0603 120.678 46.3077 121.038 47.5233C121.038 47.5233 126.428 50.0457 127.004 53.2409C127.004 53.2409 121.619 48.2344 120.985 48.7148C120.985 48.7148 121.571 54.4805 123.416 57.2528C123.416 57.2528 120.394 53.3658 120.087 48.8542C120.087 48.8542 118.026 51.2565 117.911 53.952C117.911 53.952 116.124 50.9971 119.962 47.4512C119.962 47.4512 119.688 42.9348 120.097 42.3102C120.097 42.3102 115.812 45.2747 114.27 48.3497C114.27 48.3497 114.361 44.1023 120.322 41.0898L121.245 36.4821C121.245 36.4821 115.379 40.1 113.799 42.7282C113.799 42.7282 114.563 38.4039 121.571 35.3193L123.128 30.9711C123.128 30.9711 117.844 33.7049 115.442 36.2562C115.442 36.2562 117.013 32.4125 123.608 29.7363L124.987 26.9495C124.987 26.9495 121.144 29.0156 120.111 29.7074C119.078 30.3993 118.79 30.1879 118.79 30.1879C120.589 28.1214 122.928 26.5959 125.544 25.782C125.544 25.782 128.782 20.1893 128.46 19.9635Z" opacity=".5"/></g><g opacity=".5"><path fill="#34CB79" d="M101.487 86.5519C101.487 86.5519 65.5701 71.4459 60.8625 98.6838C60.8625 98.6838 58.4078 102.931 61.8232 106.439C61.8232 106.439 62.5582 104.555 66.0312 106.501C67.27 107.186 68.5858 107.722 69.951 108.096C71.7947 108.605 73.7538 108.5 75.5329 107.798C75.5329 107.798 87.3403 107.159 97.2792 91.7025C97.2792 91.7025 101.535 89.0696 101.751 88.0798L94.6275 88.5603C94.6275 88.5603 95.1751 93.7734 92.2257 96.9012C92.2257 96.9012 94.8437 88.8101 93.5851 88.5843C93.3305 88.5362 89.8238 88.9975 89.8238 88.9975C89.8238 88.9975 90.7317 98.064 85.9809 102.753C85.9809 102.753 90.3907 93.5331 88.4692 89.1608L83.2188 90.1746C83.2188 90.1746 84.6599 99.712 79.4623 105.257C79.4623 105.257 83.7328 95.455 82.0851 90.4773L77.0509 92.1686C77.0509 92.1686 78.2662 101.495 73.9189 106.102C73.9189 106.102 77.7138 94.2779 75.9268 92.6491C75.9268 92.6491 71.4017 94.4845 70.4314 95.5319C70.4314 95.5319 71.152 102.258 68.385 104.685C68.385 104.685 70.0855 96.5168 69.2449 96.1805C69.2449 96.1805 63.9849 100.14 62.3804 103.556C62.3804 103.556 64.3836 98.3378 68.582 95.3877C68.582 95.3877 65.0561 94.7872 62.3372 96.267C62.3372 96.267 64.1578 92.8028 69.855 94.446C69.855 94.446 74.0774 91.52 74.9228 91.5632C74.9228 91.5632 69.5331 89.1608 65.6373 89.4587C65.6373 89.4587 69.8117 87.0564 76.239 91.0683L81.2493 89.2521C81.2493 89.2521 74.2888 85.6822 70.7965 85.6967C70.7965 85.6967 75.4368 83.8997 82.5559 88.8966L87.6958 87.8347C87.6958 87.8347 81.9314 84.3033 78.0404 83.4865C78.0404 83.4865 82.7048 82.7466 89.1754 87.5945L92.6916 87.3014C92.6916 87.3014 88.4356 84.7934 87.1482 84.1832C85.8608 83.573 85.9185 83.179 85.9185 83.179C88.9826 83.7111 91.8383 85.0852 94.1664 87.1477C94.1664 87.1477 101.454 86.9987 101.487 86.5519Z" opacity=".5"/></g><g opacity=".5"><path fill="#34CB79" d="M79.9812 48.4121C79.9812 48.4121 67.2466 18.9737 48.9398 32.475C48.9398 32.475 45.0633 33.5993 45.0969 37.616C45.0969 37.616 46.6053 36.9145 47.5564 40.052C47.911 41.1633 48.3947 42.2292 48.9975 43.2279C49.8022 44.5818 51.0267 45.6362 52.4849 46.2308C52.4849 46.2308 59.8634 52.5826 74.5819 49.0608C74.5819 49.0608 78.6121 49.9208 79.3039 49.4596L74.8028 45.6783C74.8028 45.6783 72.1608 49.0896 68.6157 49.253C68.6157 49.253 74.7788 45.9377 74.1591 45.0873C74.0342 44.9143 71.69 43.1942 71.69 43.1942C71.69 43.1942 67.0641 49.0944 61.6023 49.1857C61.6023 49.1857 69.4755 46.2164 70.8206 42.5312L67.1217 40.1288C67.1217 40.1288 62.4766 46.6296 56.2366 46.9707C56.2366 46.9707 64.3548 43.5834 66.2139 39.682L62.2604 37.8418C62.2604 37.8418 57.6681 44.0879 52.4753 44.3233C52.4753 44.3233 61.463 39.461 61.3237 37.4767C61.3237 37.4767 57.5913 35.9872 56.4095 36.0737C56.4095 36.0737 53.0134 40.47 49.9822 40.3451C49.9822 40.3451 55.6458 36.4581 55.3335 35.7806C55.3335 35.7806 49.9534 35.1368 47.0568 36.2611C47.0568 36.2611 51.2168 34.3007 55.3912 34.9446C55.3912 34.9446 53.6378 32.5759 51.188 31.9176C51.188 31.9176 54.2479 30.8942 56.693 35.1127C56.693 35.1127 60.8674 35.7854 61.3525 36.2851C61.3525 36.2851 59.5271 31.7735 57.0292 29.7411C57.0292 29.7411 60.8722 30.702 62.4141 36.7415L66.4252 38.5241C66.4252 38.5241 64.326 32.4317 62.2412 30.457C62.2412 30.457 66.0217 32.0329 67.4052 39.0574L71.0512 41.3588C71.0512 41.3588 69.6389 35.9776 67.7991 33.2725C67.7991 33.2725 70.9887 35.4923 72.0743 42.0603L74.3321 43.8861C74.3321 43.8861 73.2272 39.9751 72.8093 38.8796C72.3914 37.7842 72.6556 37.5824 72.6556 37.5824C74.1708 39.6438 75.0838 42.0856 75.2928 44.6357C75.2928 44.6357 79.7122 48.6668 79.9812 48.4121Z" opacity=".5"/></g><g opacity=".5"><path fill="#34CB79" d="M328.178 63.7296C328.178 63.7296 325.175 49.3155 315.688 53.6926C315.161 53.743 314.662 53.9595 314.265 54.3108C313.868 54.6622 313.593 55.1303 313.479 55.6481C313.479 55.6481 314.223 55.4703 314.362 56.9694C314.415 57.5013 314.53 58.0254 314.703 58.5309C314.943 59.2126 315.396 59.7989 315.996 60.2029C315.996 60.2029 318.724 63.7392 325.656 63.5182C325.656 63.5182 327.39 64.2773 327.745 64.1332L326.069 62.0191C326.069 62.0191 324.565 63.3067 322.961 63.0521C322.961 63.0521 326.035 62.1344 325.843 61.6924C325.8 61.6011 324.906 60.6113 324.906 60.6113C324.906 60.6113 322.284 62.8359 319.81 62.3698C319.81 62.3698 323.619 61.7644 324.57 60.2317L323.129 58.8144C323.129 58.8144 320.468 61.3032 317.634 60.8756C317.634 60.8756 321.597 60.1068 322.793 58.5261L321.188 57.3249C321.188 57.3249 318.546 59.6984 316.188 59.3285C316.188 59.3285 320.679 57.9735 320.799 57.0703C320.799 57.0703 319.262 56.0565 318.719 55.9844C318.719 55.9844 316.798 57.6468 315.438 57.3105C315.438 57.3105 318.321 56.0901 318.268 55.7538C318.268 55.7538 315.909 54.9658 314.502 55.2012C315.784 54.9232 317.117 54.9845 318.369 55.379C318.016 54.6506 317.456 54.0424 316.759 53.6301C316.759 53.6301 318.229 53.4523 318.94 55.552C318.94 55.552 320.751 56.239 320.924 56.5129C320.924 56.5129 320.521 54.3172 319.589 53.1496C319.589 53.1496 321.232 53.9328 321.361 56.7964L322.999 57.9687C322.999 57.9687 322.62 55.0379 321.866 53.952C321.866 53.952 323.417 55.0138 323.389 58.2762L324.83 59.6504C324.83 59.6504 324.695 57.0991 324.119 55.7153C324.119 55.7153 325.344 57.0078 325.224 60.0396L326.069 61.0726C326.069 61.0726 325.939 59.2131 325.853 58.6702C325.766 58.1273 325.901 58.0696 325.901 58.0696C326.392 59.1386 326.576 60.3229 326.434 61.4906C326.434 61.4906 328.034 63.816 328.178 63.7296Z" opacity=".5"/></g><g opacity=".5"><path fill="#34CB79" d="M276.48 330.929C276.48 330.929 273.483 316.515 263.991 320.892C263.463 320.942 262.964 321.158 262.566 321.509C262.168 321.861 261.892 322.329 261.776 322.847C261.776 322.847 262.521 322.669 262.66 324.168C262.712 324.701 262.828 325.225 263.006 325.73C263.245 326.411 263.696 326.997 264.293 327.402C264.293 327.402 267.022 330.938 273.959 330.717C273.959 330.717 275.693 331.476 276.043 331.332L274.372 329.218C274.372 329.218 272.868 330.506 271.259 330.251C271.259 330.251 274.333 329.334 274.141 328.892C274.103 328.8 273.204 327.81 273.204 327.81C273.204 327.81 270.582 330.035 268.108 329.569C268.108 329.569 271.922 328.964 272.868 327.431L271.427 325.989C271.427 325.989 268.795 328.488 265.951 328.046C265.951 328.046 269.914 327.277 271.11 325.696L269.505 324.495C269.505 324.495 266.868 326.869 264.51 326.499C264.51 326.499 269.001 325.149 269.121 324.241C269.121 324.241 267.579 323.227 267.041 323.155C267.041 323.155 265.12 324.817 263.755 324.481C263.755 324.481 266.638 323.26 266.585 322.924C266.585 322.924 264.226 322.136 262.819 322.372C264.103 322.093 265.437 322.155 266.691 322.549C266.336 321.822 265.776 321.214 265.081 320.8C265.081 320.8 266.546 320.623 267.257 322.722C267.257 322.722 269.073 323.409 269.246 323.683C269.246 323.683 268.843 321.487 267.911 320.32C267.911 320.32 269.554 321.103 269.678 323.967L271.321 325.139C271.321 325.139 270.937 322.208 270.183 321.122C270.183 321.122 271.739 322.184 271.71 325.447L273.151 326.821C273.151 326.821 273.017 324.269 272.436 322.886C272.436 322.886 273.665 324.178 273.545 327.21L274.391 328.243C274.391 328.243 274.256 326.383 274.17 325.841C274.083 325.298 274.218 325.245 274.218 325.245C274.709 326.312 274.894 327.495 274.751 328.661C274.751 328.661 276.346 331.001 276.48 330.929Z" opacity=".5"/></g></g><defs><linearGradient id="paint0_linear" x1="26173.9" x2="26173.9" y1="133353" y2="58782.4" gradientUnits="userSpaceOnUse"><stop stop-color="gray" stop-opacity=".25"/><stop offset=".54" stop-color="gray" stop-opacity=".12"/><stop offset="1" stop-color="gray" stop-opacity=".1"/></linearGradient><clipPath id="clip0"><rect width="552" height="363" fill="#fff"/></clipPath></defs></svg>